ISO-10303-21;
HEADER;

/* File generated by Shapr3D Version 26.143.0.11521 */

FILE_DESCRIPTION(('HOOPS Exchange Step'),'2;1');

FILE_NAME('/Users/hrushka/Library/Containers/com.shapr3d.shapr/Data/tmp/export/temp_export',
'2026-09-26T16:54:17-07:00',
('hrushka'),
('Shapr3D Limited'),
'HOOPS Exchange 2026.3',
'Shapr3D',
'Authorized');

FILE_SCHEMA( ('AP242_MANAGED_MODEL_BASED_3D_ENGINEERING_MIM_LF {1 0 10303 442 1 1 4}') );

ENDSEC;

DATA;
#3=(NAMED_UNIT(*)PLANE_ANGLE_UNIT()SI_UNIT($,.RADIAN.));
#4=PLANE_ANGLE_MEASURE_WITH_UNIT(PLANE_ANGLE_MEASURE(0.0174532925),#3);
#5=(CONVERSION_BASED_UNIT('DEGREE',#4)NAMED_UNIT(#6)PLANE_ANGLE_UNIT());
#6=DIMENSIONAL_EXPONENTS(0.,0.,0.,0.,0.,0.,0.);
#7=(NAMED_UNIT(*)SI_UNIT($,.STERADIAN.)SOLID_ANGLE_UNIT());
#8=(LENGTH_UNIT()NAMED_UNIT(*)SI_UNIT(.MILLI.,.METRE.));
#9=UNCERTAINTY_MEASURE_WITH_UNIT(LENGTH_MEASURE(1.000000E-05),#8,'DISTANCE_ACCURACY_VALUE','Maximum Tolerance applied to model');
#10=(GEOMETRIC_REPRESENTATION_CONTEXT(3)GLOBAL_UNCERTAINTY_ASSIGNED_CONTEXT((#9))GLOBAL_UNIT_ASSIGNED_CONTEXT((#8,#5,#7))REPRESENTATION_CONTEXT('','root'));
#12=CARTESIAN_POINT('',(0.,0.,0.));
#13=DIRECTION('',(0.,0.,1.));
#14=DIRECTION('',(1.,0.,0.));
#15=AXIS2_PLACEMENT_3D('TS3D_PRODUCT_CSYS',#12,#13,#14);
#27=CARTESIAN_POINT('',(12.3,46.875,0.));
#28=DIRECTION('',(-1.,0.,-0.));
#29=DIRECTION('',(0.,1.,0.));
#30=AXIS2_PLACEMENT_3D('',#27,#28,#29);
#31=PLANE('',#30);
#32=CARTESIAN_POINT('',(12.3,49.25,2.));
#33=VERTEX_POINT('',#32);
#34=CARTESIAN_POINT('',(12.3,47.75,2.));
#35=VERTEX_POINT('',#34);
#36=CARTESIAN_POINT('',(12.3,49.25,2.));
#37=DIRECTION('',(-0.,-1.,-0.));
#38=VECTOR('',#37,1.5);
#39=LINE('',#36,#38);
#40=EDGE_CURVE('',#33,#35,#39,.T.);
#41=ORIENTED_EDGE('',*,*,#40,.F.);
#42=CARTESIAN_POINT('',(12.3,45.75,5.5));
#43=VERTEX_POINT('',#42);
#44=CARTESIAN_POINT('',(12.3,49.25,2.));
#45=DIRECTION('',(-0.,-0.707106781,0.707106781));
#46=VECTOR('',#45,4.949747468);
#47=LINE('',#44,#46);
#48=EDGE_CURVE('',#33,#43,#47,.T.);
#49=ORIENTED_EDGE('',*,*,#48,.T.);
#50=CARTESIAN_POINT('',(12.3,45.75,2.));
#51=VERTEX_POINT('',#50);
#52=CARTESIAN_POINT('',(12.3,45.75,5.5));
#53=DIRECTION('',(0.,0.,-1.));
#54=VECTOR('',#53,3.5);
#55=LINE('',#52,#54);
#56=EDGE_CURVE('',#43,#51,#55,.T.);
#57=ORIENTED_EDGE('',*,*,#56,.T.);
#58=CARTESIAN_POINT('',(12.3,44.,2.));
#59=VERTEX_POINT('',#58);
#60=CARTESIAN_POINT('',(12.3,45.75,2.));
#61=DIRECTION('',(-0.,-1.,-0.));
#62=VECTOR('',#61,1.75);
#63=LINE('',#60,#62);
#64=EDGE_CURVE('',#51,#59,#63,.T.);
#65=ORIENTED_EDGE('',*,*,#64,.T.);
#66=CARTESIAN_POINT('',(12.3,44.,0.));
#67=VERTEX_POINT('',#66);
#68=CARTESIAN_POINT('',(12.3,44.,0.));
#69=DIRECTION('',(-0.,0.,1.));
#70=VECTOR('',#69,2.);
#71=LINE('',#68,#70);
#72=EDGE_CURVE('',#67,#59,#71,.T.);
#73=ORIENTED_EDGE('',*,*,#72,.F.);
#74=CARTESIAN_POINT('',(12.3,47.75,0.));
#75=VERTEX_POINT('',#74);
#76=CARTESIAN_POINT('',(12.3,47.75,0.));
#77=DIRECTION('',(-0.,-1.,-0.));
#78=VECTOR('',#77,3.75);
#79=LINE('',#76,#78);
#80=EDGE_CURVE('',#75,#67,#79,.T.);
#81=ORIENTED_EDGE('',*,*,#80,.F.);
#82=CARTESIAN_POINT('',(12.3,47.75,0.));
#83=DIRECTION('',(-0.,0.,1.));
#84=VECTOR('',#83,2.);
#85=LINE('',#82,#84);
#86=EDGE_CURVE('',#75,#35,#85,.T.);
#87=ORIENTED_EDGE('',*,*,#86,.T.);
#88=EDGE_LOOP('',(#41,#49,#57,#65,#73,#81,#87));
#89=FACE_BOUND('',#88,.T.);
#90=ADVANCED_FACE('',(#89),#31,.F.);
#91=CARTESIAN_POINT('',(6.3,46.875,0.));
#92=DIRECTION('',(1.,-0.,0.));
#93=DIRECTION('',(-0.,-1.,-0.));
#94=AXIS2_PLACEMENT_3D('',#91,#92,#93);
#95=PLANE('',#94);
#96=CARTESIAN_POINT('',(6.3,45.75,2.));
#97=VERTEX_POINT('',#96);
#98=CARTESIAN_POINT('',(6.3,45.75,5.5));
#99=VERTEX_POINT('',#98);
#100=CARTESIAN_POINT('',(6.3,45.75,2.));
#101=DIRECTION('',(-0.,0.,1.));
#102=VECTOR('',#101,3.5);
#103=LINE('',#100,#102);
#104=EDGE_CURVE('',#97,#99,#103,.T.);
#105=ORIENTED_EDGE('',*,*,#104,.T.);
#106=CARTESIAN_POINT('',(6.3,49.25,2.));
#107=VERTEX_POINT('',#106);
#108=CARTESIAN_POINT('',(6.3,45.75,5.5));
#109=DIRECTION('',(0.,0.707106781,-0.707106781));
#110=VECTOR('',#109,4.949747468);
#111=LINE('',#108,#110);
#112=EDGE_CURVE('',#99,#107,#111,.T.);
#113=ORIENTED_EDGE('',*,*,#112,.T.);
#114=CARTESIAN_POINT('',(6.3,47.75,2.));
#115=VERTEX_POINT('',#114);
#116=CARTESIAN_POINT('',(6.3,47.75,2.));
#117=DIRECTION('',(0.,1.,0.));
#118=VECTOR('',#117,1.5);
#119=LINE('',#116,#118);
#120=EDGE_CURVE('',#115,#107,#119,.T.);
#121=ORIENTED_EDGE('',*,*,#120,.F.);
#122=CARTESIAN_POINT('',(6.3,47.75,0.));
#123=VERTEX_POINT('',#122);
#124=CARTESIAN_POINT('',(6.3,47.75,0.));
#125=DIRECTION('',(-0.,0.,1.));
#126=VECTOR('',#125,2.);
#127=LINE('',#124,#126);
#128=EDGE_CURVE('',#123,#115,#127,.T.);
#129=ORIENTED_EDGE('',*,*,#128,.F.);
#130=CARTESIAN_POINT('',(6.3,44.,0.));
#131=VERTEX_POINT('',#130);
#132=CARTESIAN_POINT('',(6.3,44.,-0.));
#133=DIRECTION('',(0.,1.,0.));
#134=VECTOR('',#133,3.75);
#135=LINE('',#132,#134);
#136=EDGE_CURVE('',#131,#123,#135,.T.);
#137=ORIENTED_EDGE('',*,*,#136,.F.);
#138=CARTESIAN_POINT('',(6.3,44.,2.));
#139=VERTEX_POINT('',#138);
#140=CARTESIAN_POINT('',(6.3,44.,0.));
#141=DIRECTION('',(-0.,0.,1.));
#142=VECTOR('',#141,2.);
#143=LINE('',#140,#142);
#144=EDGE_CURVE('',#131,#139,#143,.T.);
#145=ORIENTED_EDGE('',*,*,#144,.T.);
#146=CARTESIAN_POINT('',(6.3,44.,2.));
#147=DIRECTION('',(0.,1.,0.));
#148=VECTOR('',#147,1.75);
#149=LINE('',#146,#148);
#150=EDGE_CURVE('',#139,#97,#149,.T.);
#151=ORIENTED_EDGE('',*,*,#150,.T.);
#152=EDGE_LOOP('',(#105,#113,#121,#129,#137,#145,#151));
#153=FACE_BOUND('',#152,.T.);
#154=ADVANCED_FACE('',(#153),#95,.F.);
#155=CARTESIAN_POINT('',(9.3,46.875,2.));
#156=DIRECTION('',(0.,0.,-1.));
#157=DIRECTION('',(-1.,0.,-0.));
#158=AXIS2_PLACEMENT_3D('',#155,#156,#157);
#159=PLANE('',#158);
#160=CARTESIAN_POINT('',(6.3,47.75,2.));
#161=DIRECTION('',(1.,0.,0.));
#162=VECTOR('',#161,6.);
#163=LINE('',#160,#162);
#164=EDGE_CURVE('',#115,#35,#163,.T.);
#165=ORIENTED_EDGE('',*,*,#164,.F.);
#166=ORIENTED_EDGE('',*,*,#120,.T.);
#167=CARTESIAN_POINT('',(6.3,49.25,2.));
#168=DIRECTION('',(1.,-0.,0.));
#169=VECTOR('',#168,6.);
#170=LINE('',#167,#169);
#171=EDGE_CURVE('',#107,#33,#170,.T.);
#172=ORIENTED_EDGE('',*,*,#171,.T.);
#173=ORIENTED_EDGE('',*,*,#40,.T.);
#174=EDGE_LOOP('',(#165,#166,#172,#173));
#175=FACE_BOUND('',#174,.T.);
#176=ADVANCED_FACE('',(#175),#159,.T.);
#177=CARTESIAN_POINT('',(9.3,45.75,1.));
#178=DIRECTION('',(0.,1.,0.));
#179=DIRECTION('',(0.,0.,-1.));
#180=AXIS2_PLACEMENT_3D('',#177,#178,#179);
#181=PLANE('',#180);
#182=ORIENTED_EDGE('',*,*,#104,.F.);
#183=CARTESIAN_POINT('',(6.3,45.75,2.));
#184=DIRECTION('',(1.,0.,0.));
#185=VECTOR('',#184,6.);
#186=LINE('',#183,#185);
#187=EDGE_CURVE('',#97,#51,#186,.T.);
#188=ORIENTED_EDGE('',*,*,#187,.T.);
#189=ORIENTED_EDGE('',*,*,#56,.F.);
#190=CARTESIAN_POINT('',(6.3,45.75,5.5));
#191=DIRECTION('',(1.,0.,0.));
#192=VECTOR('',#191,6.);
#193=LINE('',#190,#192);
#194=EDGE_CURVE('',#99,#43,#193,.T.);
#195=ORIENTED_EDGE('',*,*,#194,.F.);
#196=EDGE_LOOP('',(#182,#188,#189,#195));
#197=FACE_BOUND('',#196,.T.);
#198=ADVANCED_FACE('',(#197),#181,.F.);
#199=CARTESIAN_POINT('',(9.3,49.75,1.5));
#200=DIRECTION('',(0.,-0.707106781,-0.707106781));
#201=DIRECTION('',(1.,0.,0.));
#202=AXIS2_PLACEMENT_3D('',#199,#200,#201);
#203=PLANE('',#202);
#204=ORIENTED_EDGE('',*,*,#112,.F.);
#205=ORIENTED_EDGE('',*,*,#194,.T.);
#206=ORIENTED_EDGE('',*,*,#48,.F.);
#207=ORIENTED_EDGE('',*,*,#171,.F.);
#208=EDGE_LOOP('',(#204,#205,#206,#207));
#209=FACE_BOUND('',#208,.T.);
#210=ADVANCED_FACE('',(#209),#203,.F.);
#211=CARTESIAN_POINT('',(15.3,0.,0.));
#212=DIRECTION('',(0.,0.,-1.));
#213=DIRECTION('',(-1.,0.,-0.));
#214=AXIS2_PLACEMENT_3D('',#211,#212,#213);
#215=PLANE('',#214);
#216=CARTESIAN_POINT('',(4.,0.2,-0.));
#217=VERTEX_POINT('',#216);
#218=CARTESIAN_POINT('',(0.,0.2,-0.));
#219=VERTEX_POINT('',#218);
#220=CARTESIAN_POINT('',(4.,0.2,-0.));
#221=DIRECTION('',(-1.,0.,-0.));
#222=VECTOR('',#221,4.);
#223=LINE('',#220,#222);
#224=EDGE_CURVE('',#217,#219,#223,.T.);
#225=ORIENTED_EDGE('',*,*,#224,.T.);
#226=CARTESIAN_POINT('',(0.,44.,-0.));
#227=VERTEX_POINT('',#226);
#228=CARTESIAN_POINT('',(0.,0.2,-0.));
#229=DIRECTION('',(0.,1.,0.));
#230=VECTOR('',#229,43.8);
#231=LINE('',#228,#230);
#232=EDGE_CURVE('',#219,#227,#231,.T.);
#233=ORIENTED_EDGE('',*,*,#232,.T.);
#234=CARTESIAN_POINT('',(0.,44.,-0.));
#235=DIRECTION('',(1.,0.,0.));
#236=VECTOR('',#235,6.3);
#237=LINE('',#234,#236);
#238=EDGE_CURVE('',#227,#131,#237,.T.);
#239=ORIENTED_EDGE('',*,*,#238,.T.);
#240=ORIENTED_EDGE('',*,*,#136,.T.);
#241=CARTESIAN_POINT('',(6.3,47.75,-0.));
#242=DIRECTION('',(1.,0.,0.));
#243=VECTOR('',#242,6.);
#244=LINE('',#241,#243);
#245=EDGE_CURVE('',#123,#75,#244,.T.);
#246=ORIENTED_EDGE('',*,*,#245,.T.);
#247=ORIENTED_EDGE('',*,*,#80,.T.);
#248=CARTESIAN_POINT('',(16.3,44.,0.));
#249=VERTEX_POINT('',#248);
#250=CARTESIAN_POINT('',(12.3,44.,0.));
#251=DIRECTION('',(1.,0.,0.));
#252=VECTOR('',#251,4.);
#253=LINE('',#250,#252);
#254=EDGE_CURVE('',#67,#249,#253,.T.);
#255=ORIENTED_EDGE('',*,*,#254,.T.);
#256=CARTESIAN_POINT('',(16.3,0.2,0.));
#257=VERTEX_POINT('',#256);
#258=CARTESIAN_POINT('',(16.3,0.2,0.));
#259=DIRECTION('',(0.,1.,0.));
#260=VECTOR('',#259,43.8);
#261=LINE('',#258,#260);
#262=EDGE_CURVE('',#257,#249,#261,.T.);
#263=ORIENTED_EDGE('',*,*,#262,.F.);
#264=CARTESIAN_POINT('',(14.3,0.2,0.));
#265=VERTEX_POINT('',#264);
#266=CARTESIAN_POINT('',(16.3,0.2,0.));
#267=DIRECTION('',(-1.,0.,-0.));
#268=VECTOR('',#267,2.);
#269=LINE('',#266,#268);
#270=EDGE_CURVE('',#257,#265,#269,.T.);
#271=ORIENTED_EDGE('',*,*,#270,.T.);
#272=CARTESIAN_POINT('',(14.3,1.25,0.));
#273=VERTEX_POINT('',#272);
#274=CARTESIAN_POINT('',(14.3,1.25,0.));
#275=DIRECTION('',(0.,-1.,0.));
#276=VECTOR('',#275,1.05);
#277=LINE('',#274,#276);
#278=EDGE_CURVE('',#273,#265,#277,.T.);
#279=ORIENTED_EDGE('',*,*,#278,.F.);
#280=CARTESIAN_POINT('',(12.55,3.,0.));
#281=VERTEX_POINT('',#280);
#282=CARTESIAN_POINT('',(12.55,1.25,0.));
#283=DIRECTION('',(-0.,-0.,1.));
#284=DIRECTION('',(-1.,0.,-0.));
#285=AXIS2_PLACEMENT_3D('',#282,#283,#284);
#286=CIRCLE('',#285,1.75);
#287=EDGE_CURVE('',#273,#281,#286,.T.);
#288=ORIENTED_EDGE('',*,*,#287,.T.);
#289=CARTESIAN_POINT('',(5.75,3.,0.));
#290=VERTEX_POINT('',#289);
#291=CARTESIAN_POINT('',(12.55,3.,0.));
#292=DIRECTION('',(-1.,0.,-0.));
#293=VECTOR('',#292,6.8);
#294=LINE('',#291,#293);
#295=EDGE_CURVE('',#281,#290,#294,.T.);
#296=ORIENTED_EDGE('',*,*,#295,.T.);
#297=CARTESIAN_POINT('',(4.,1.25,-0.));
#298=VERTEX_POINT('',#297);
#299=CARTESIAN_POINT('',(5.75,1.25,0.));
#300=DIRECTION('',(-0.,-0.,1.));
#301=DIRECTION('',(-1.,0.,-0.));
#302=AXIS2_PLACEMENT_3D('',#299,#300,#301);
#303=CIRCLE('',#302,1.75);
#304=EDGE_CURVE('',#290,#298,#303,.T.);
#305=ORIENTED_EDGE('',*,*,#304,.T.);
#306=CARTESIAN_POINT('',(4.,0.2,-0.));
#307=DIRECTION('',(0.,1.,0.));
#308=VECTOR('',#307,1.05);
#309=LINE('',#306,#308);
#310=EDGE_CURVE('',#217,#298,#309,.T.);
#311=ORIENTED_EDGE('',*,*,#310,.F.);
#312=EDGE_LOOP('',(#225,#233,#239,#240,#246,#247,#255,#263,#271,#279,#288,#296,#305,#311));
#313=FACE_BOUND('',#312,.T.);
#314=ADVANCED_FACE('',(#313),#215,.T.);
#315=CARTESIAN_POINT('',(8.15,44.,0.));
#316=DIRECTION('',(0.,-1.,0.));
#317=DIRECTION('',(-0.,0.,1.));
#318=AXIS2_PLACEMENT_3D('',#315,#316,#317);
#319=PLANE('',#318);
#320=ORIENTED_EDGE('',*,*,#238,.F.);
#321=CARTESIAN_POINT('',(0.,44.,2.));
#322=VERTEX_POINT('',#321);
#323=CARTESIAN_POINT('',(0.,44.,-0.));
#324=DIRECTION('',(-0.,0.,1.));
#325=VECTOR('',#324,2.);
#326=LINE('',#323,#325);
#327=EDGE_CURVE('',#227,#322,#326,.T.);
#328=ORIENTED_EDGE('',*,*,#327,.T.);
#329=CARTESIAN_POINT('',(4.,44.,2.));
#330=VERTEX_POINT('',#329);
#331=CARTESIAN_POINT('',(0.,44.,2.));
#332=DIRECTION('',(1.,0.,0.));
#333=VECTOR('',#332,4.);
#334=LINE('',#331,#333);
#335=EDGE_CURVE('',#322,#330,#334,.T.);
#336=ORIENTED_EDGE('',*,*,#335,.T.);
#337=CARTESIAN_POINT('',(4.,44.,2.));
#338=DIRECTION('',(1.,0.,0.));
#339=VECTOR('',#338,2.3);
#340=LINE('',#337,#339);
#341=EDGE_CURVE('',#330,#139,#340,.T.);
#342=ORIENTED_EDGE('',*,*,#341,.T.);
#343=ORIENTED_EDGE('',*,*,#144,.F.);
#344=EDGE_LOOP('',(#320,#328,#336,#342,#343));
#345=FACE_BOUND('',#344,.T.);
#346=ADVANCED_FACE('',(#345),#319,.F.);
#347=CARTESIAN_POINT('',(16.3,0.2,0.));
#348=DIRECTION('',(0.,1.,0.));
#349=DIRECTION('',(0.,0.,-1.));
#350=AXIS2_PLACEMENT_3D('',#347,#348,#349);
#351=PLANE('',#350);
#352=CARTESIAN_POINT('',(4.,0.2,2.));
#353=VERTEX_POINT('',#352);
#354=CARTESIAN_POINT('',(0.,0.2,2.));
#355=VERTEX_POINT('',#354);
#356=CARTESIAN_POINT('',(4.,0.2,2.));
#357=DIRECTION('',(-1.,0.,-0.));
#358=VECTOR('',#357,4.);
#359=LINE('',#356,#358);
#360=EDGE_CURVE('',#353,#355,#359,.T.);
#361=ORIENTED_EDGE('',*,*,#360,.T.);
#362=CARTESIAN_POINT('',(0.,0.2,-0.));
#363=DIRECTION('',(-0.,0.,1.));
#364=VECTOR('',#363,2.);
#365=LINE('',#362,#364);
#366=EDGE_CURVE('',#219,#355,#365,.T.);
#367=ORIENTED_EDGE('',*,*,#366,.F.);
#368=ORIENTED_EDGE('',*,*,#224,.F.);
#369=CARTESIAN_POINT('',(4.,0.2,-0.));
#370=DIRECTION('',(-0.,0.,1.));
#371=VECTOR('',#370,2.);
#372=LINE('',#369,#371);
#373=EDGE_CURVE('',#217,#353,#372,.T.);
#374=ORIENTED_EDGE('',*,*,#373,.T.);
#375=EDGE_LOOP('',(#361,#367,#368,#374));
#376=FACE_BOUND('',#375,.T.);
#377=ADVANCED_FACE('',(#376),#351,.F.);
#378=CARTESIAN_POINT('',(9.3,47.75,0.));
#379=DIRECTION('',(0.,-1.,0.));
#380=DIRECTION('',(-0.,0.,1.));
#381=AXIS2_PLACEMENT_3D('',#378,#379,#380);
#382=PLANE('',#381);
#383=ORIENTED_EDGE('',*,*,#128,.T.);
#384=ORIENTED_EDGE('',*,*,#164,.T.);
#385=ORIENTED_EDGE('',*,*,#86,.F.);
#386=ORIENTED_EDGE('',*,*,#245,.F.);
#387=EDGE_LOOP('',(#383,#384,#385,#386));
#388=FACE_BOUND('',#387,.T.);
#389=ADVANCED_FACE('',(#388),#382,.F.);
#390=CARTESIAN_POINT('',(9.3,46.875,2.));
#391=DIRECTION('',(0.,0.,-1.));
#392=DIRECTION('',(-1.,0.,-0.));
#393=AXIS2_PLACEMENT_3D('',#390,#391,#392);
#394=PLANE('',#393);
#395=ORIENTED_EDGE('',*,*,#187,.F.);
#396=ORIENTED_EDGE('',*,*,#150,.F.);
#397=ORIENTED_EDGE('',*,*,#341,.F.);
#398=CARTESIAN_POINT('',(4.,41.,2.));
#399=VERTEX_POINT('',#398);
#400=CARTESIAN_POINT('',(4.,44.,2.));
#401=DIRECTION('',(-0.,-1.,-0.));
#402=VECTOR('',#401,3.);
#403=LINE('',#400,#402);
#404=EDGE_CURVE('',#330,#399,#403,.T.);
#405=ORIENTED_EDGE('',*,*,#404,.T.);
#406=CARTESIAN_POINT('',(14.3,41.,2.));
#407=VERTEX_POINT('',#406);
#408=CARTESIAN_POINT('',(4.,41.,2.));
#409=DIRECTION('',(1.,0.,0.));
#410=VECTOR('',#409,10.3);
#411=LINE('',#408,#410);
#412=EDGE_CURVE('',#399,#407,#411,.T.);
#413=ORIENTED_EDGE('',*,*,#412,.T.);
#414=CARTESIAN_POINT('',(14.3,44.,2.));
#415=VERTEX_POINT('',#414);
#416=CARTESIAN_POINT('',(14.3,41.,2.));
#417=DIRECTION('',(0.,1.,0.));
#418=VECTOR('',#417,3.);
#419=LINE('',#416,#418);
#420=EDGE_CURVE('',#407,#415,#419,.T.);
#421=ORIENTED_EDGE('',*,*,#420,.T.);
#422=CARTESIAN_POINT('',(12.3,44.,2.));
#423=DIRECTION('',(1.,0.,0.));
#424=VECTOR('',#423,2.);
#425=LINE('',#422,#424);
#426=EDGE_CURVE('',#59,#415,#425,.T.);
#427=ORIENTED_EDGE('',*,*,#426,.F.);
#428=ORIENTED_EDGE('',*,*,#64,.F.);
#429=EDGE_LOOP('',(#395,#396,#397,#405,#413,#421,#427,#428));
#430=FACE_BOUND('',#429,.T.);
#431=ADVANCED_FACE('',(#430),#394,.F.);
#432=CARTESIAN_POINT('',(8.15,44.,0.));
#433=DIRECTION('',(0.,-1.,0.));
#434=DIRECTION('',(-0.,0.,1.));
#435=AXIS2_PLACEMENT_3D('',#432,#433,#434);
#436=PLANE('',#435);
#437=ORIENTED_EDGE('',*,*,#254,.F.);
#438=ORIENTED_EDGE('',*,*,#72,.T.);
#439=ORIENTED_EDGE('',*,*,#426,.T.);
#440=CARTESIAN_POINT('',(16.3,44.,2.));
#441=VERTEX_POINT('',#440);
#442=CARTESIAN_POINT('',(14.3,44.,2.));
#443=DIRECTION('',(1.,0.,0.));
#444=VECTOR('',#443,2.);
#445=LINE('',#442,#444);
#446=EDGE_CURVE('',#415,#441,#445,.T.);
#447=ORIENTED_EDGE('',*,*,#446,.T.);
#448=CARTESIAN_POINT('',(16.3,44.,0.));
#449=DIRECTION('',(-0.,0.,1.));
#450=VECTOR('',#449,2.);
#451=LINE('',#448,#450);
#452=EDGE_CURVE('',#249,#441,#451,.T.);
#453=ORIENTED_EDGE('',*,*,#452,.F.);
#454=EDGE_LOOP('',(#437,#438,#439,#447,#453));
#455=FACE_BOUND('',#454,.T.);
#456=ADVANCED_FACE('',(#455),#436,.F.);
#457=CARTESIAN_POINT('',(4.,22.,3.375));
#458=DIRECTION('',(-1.,0.,-0.));
#459=DIRECTION('',(0.,1.,0.));
#460=AXIS2_PLACEMENT_3D('',#457,#458,#459);
#461=PLANE('',#460);
#462=CARTESIAN_POINT('',(4.,1.25,2.));
#463=VERTEX_POINT('',#462);
#464=CARTESIAN_POINT('',(4.,1.25,-0.));
#465=DIRECTION('',(-0.,0.,1.));
#466=VECTOR('',#465,2.);
#467=LINE('',#464,#466);
#468=EDGE_CURVE('',#298,#463,#467,.T.);
#469=ORIENTED_EDGE('',*,*,#468,.T.);
#470=CARTESIAN_POINT('',(4.,1.25,2.));
#471=DIRECTION('',(-0.,-1.,-0.));
#472=VECTOR('',#471,1.05);
#473=LINE('',#470,#472);
#474=EDGE_CURVE('',#463,#353,#473,.T.);
#475=ORIENTED_EDGE('',*,*,#474,.T.);
#476=ORIENTED_EDGE('',*,*,#373,.F.);
#477=ORIENTED_EDGE('',*,*,#310,.T.);
#478=EDGE_LOOP('',(#469,#475,#476,#477));
#479=FACE_BOUND('',#478,.T.);
#480=ADVANCED_FACE('',(#479),#461,.F.);
#481=CARTESIAN_POINT('',(14.3,22.,3.375));
#482=DIRECTION('',(1.,0.,0.));
#483=DIRECTION('',(0.,0.,-1.));
#484=AXIS2_PLACEMENT_3D('',#481,#482,#483);
#485=PLANE('',#484);
#486=CARTESIAN_POINT('',(14.3,0.2,2.));
#487=VERTEX_POINT('',#486);
#488=CARTESIAN_POINT('',(14.3,0.2,2.));
#489=DIRECTION('',(0.,0.,-1.));
#490=VECTOR('',#489,2.);
#491=LINE('',#488,#490);
#492=EDGE_CURVE('',#487,#265,#491,.T.);
#493=ORIENTED_EDGE('',*,*,#492,.F.);
#494=CARTESIAN_POINT('',(14.3,1.25,2.));
#495=VERTEX_POINT('',#494);
#496=CARTESIAN_POINT('',(14.3,0.2,2.));
#497=DIRECTION('',(0.,1.,0.));
#498=VECTOR('',#497,1.05);
#499=LINE('',#496,#498);
#500=EDGE_CURVE('',#487,#495,#499,.T.);
#501=ORIENTED_EDGE('',*,*,#500,.T.);
#502=CARTESIAN_POINT('',(14.3,1.25,2.));
#503=DIRECTION('',(0.,0.,-1.));
#504=VECTOR('',#503,2.);
#505=LINE('',#502,#504);
#506=EDGE_CURVE('',#495,#273,#505,.T.);
#507=ORIENTED_EDGE('',*,*,#506,.T.);
#508=ORIENTED_EDGE('',*,*,#278,.T.);
#509=EDGE_LOOP('',(#493,#501,#507,#508));
#510=FACE_BOUND('',#509,.T.);
#511=ADVANCED_FACE('',(#510),#485,.F.);
#512=CARTESIAN_POINT('',(9.15,3.,3.375));
#513=DIRECTION('',(0.,-1.,0.));
#514=DIRECTION('',(-0.,0.,1.));
#515=AXIS2_PLACEMENT_3D('',#512,#513,#514);
#516=PLANE('',#515);
#517=CARTESIAN_POINT('',(5.75,3.,2.));
#518=VERTEX_POINT('',#517);
#519=CARTESIAN_POINT('',(12.55,3.,2.));
#520=VERTEX_POINT('',#519);
#521=CARTESIAN_POINT('',(5.75,3.,2.));
#522=DIRECTION('',(1.,0.,0.));
#523=VECTOR('',#522,6.8);
#524=LINE('',#521,#523);
#525=EDGE_CURVE('',#518,#520,#524,.T.);
#526=ORIENTED_EDGE('',*,*,#525,.F.);
#527=CARTESIAN_POINT('',(5.75,3.,2.));
#528=DIRECTION('',(0.,-0.,-1.));
#529=VECTOR('',#528,2.);
#530=LINE('',#527,#529);
#531=EDGE_CURVE('',#518,#290,#530,.T.);
#532=ORIENTED_EDGE('',*,*,#531,.T.);
#533=ORIENTED_EDGE('',*,*,#295,.F.);
#534=CARTESIAN_POINT('',(12.55,3.,0.));
#535=DIRECTION('',(-0.,-0.,1.));
#536=VECTOR('',#535,2.);
#537=LINE('',#534,#536);
#538=EDGE_CURVE('',#281,#520,#537,.T.);
#539=ORIENTED_EDGE('',*,*,#538,.T.);
#540=EDGE_LOOP('',(#526,#532,#533,#539));
#541=FACE_BOUND('',#540,.T.);
#542=ADVANCED_FACE('',(#541),#516,.T.);
#543=CARTESIAN_POINT('',(16.3,0.,0.));
#544=DIRECTION('',(1.,0.,0.));
#545=DIRECTION('',(0.,0.,-1.));
#546=AXIS2_PLACEMENT_3D('',#543,#544,#545);
#547=PLANE('',#546);
#548=CARTESIAN_POINT('',(16.3,0.2,2.));
#549=VERTEX_POINT('',#548);
#550=CARTESIAN_POINT('',(16.3,0.2,2.));
#551=DIRECTION('',(0.,1.,0.));
#552=VECTOR('',#551,43.8);
#553=LINE('',#550,#552);
#554=EDGE_CURVE('',#549,#441,#553,.T.);
#555=ORIENTED_EDGE('',*,*,#554,.F.);
#556=CARTESIAN_POINT('',(16.3,0.2,0.));
#557=DIRECTION('',(-0.,0.,1.));
#558=VECTOR('',#557,2.);
#559=LINE('',#556,#558);
#560=EDGE_CURVE('',#257,#549,#559,.T.);
#561=ORIENTED_EDGE('',*,*,#560,.F.);
#562=ORIENTED_EDGE('',*,*,#262,.T.);
#563=ORIENTED_EDGE('',*,*,#452,.T.);
#564=EDGE_LOOP('',(#555,#561,#562,#563));
#565=FACE_BOUND('',#564,.T.);
#566=ADVANCED_FACE('',(#565),#547,.T.);
#567=CARTESIAN_POINT('',(16.3,0.2,0.));
#568=DIRECTION('',(0.,1.,0.));
#569=DIRECTION('',(0.,0.,-1.));
#570=AXIS2_PLACEMENT_3D('',#567,#568,#569);
#571=PLANE('',#570);
#572=ORIENTED_EDGE('',*,*,#560,.T.);
#573=CARTESIAN_POINT('',(16.3,0.2,2.));
#574=DIRECTION('',(-1.,0.,-0.));
#575=VECTOR('',#574,2.);
#576=LINE('',#573,#575);
#577=EDGE_CURVE('',#549,#487,#576,.T.);
#578=ORIENTED_EDGE('',*,*,#577,.T.);
#579=ORIENTED_EDGE('',*,*,#492,.T.);
#580=ORIENTED_EDGE('',*,*,#270,.F.);
#581=EDGE_LOOP('',(#572,#578,#579,#580));
#582=FACE_BOUND('',#581,.T.);
#583=ADVANCED_FACE('',(#582),#571,.F.);
#584=CARTESIAN_POINT('',(16.3,0.,2.));
#585=DIRECTION('',(0.,0.,-1.));
#586=DIRECTION('',(-1.,0.,-0.));
#587=AXIS2_PLACEMENT_3D('',#584,#585,#586);
#588=PLANE('',#587);
#589=CARTESIAN_POINT('',(4.,3.,2.));
#590=VERTEX_POINT('',#589);
#591=CARTESIAN_POINT('',(4.,3.,2.));
#592=DIRECTION('',(1.,0.,0.));
#593=VECTOR('',#592,1.75);
#594=LINE('',#591,#593);
#595=EDGE_CURVE('',#590,#518,#594,.T.);
#596=ORIENTED_EDGE('',*,*,#595,.F.);
#597=CARTESIAN_POINT('',(4.,3.,2.));
#598=DIRECTION('',(-0.,-1.,-0.));
#599=VECTOR('',#598,1.75);
#600=LINE('',#597,#599);
#601=EDGE_CURVE('',#590,#463,#600,.T.);
#602=ORIENTED_EDGE('',*,*,#601,.T.);
#603=CARTESIAN_POINT('',(5.75,1.25,2.));
#604=DIRECTION('',(0.,0.,-1.));
#605=DIRECTION('',(-1.,0.,-0.));
#606=AXIS2_PLACEMENT_3D('',#603,#604,#605);
#607=CIRCLE('',#606,1.75);
#608=EDGE_CURVE('',#463,#518,#607,.T.);
#609=ORIENTED_EDGE('',*,*,#608,.T.);
#610=EDGE_LOOP('',(#596,#602,#609));
#611=FACE_BOUND('',#610,.T.);
#612=ADVANCED_FACE('',(#611),#588,.F.);
#613=CARTESIAN_POINT('',(16.3,0.,2.));
#614=DIRECTION('',(0.,0.,-1.));
#615=DIRECTION('',(-1.,0.,-0.));
#616=AXIS2_PLACEMENT_3D('',#613,#614,#615);
#617=PLANE('',#616);
#618=CARTESIAN_POINT('',(12.55,1.25,2.));
#619=DIRECTION('',(0.,0.,-1.));
#620=DIRECTION('',(-1.,0.,-0.));
#621=AXIS2_PLACEMENT_3D('',#618,#619,#620);
#622=CIRCLE('',#621,1.75);
#623=EDGE_CURVE('',#520,#495,#622,.T.);
#624=ORIENTED_EDGE('',*,*,#623,.T.);
#625=CARTESIAN_POINT('',(14.3,3.,2.));
#626=VERTEX_POINT('',#625);
#627=CARTESIAN_POINT('',(14.3,1.25,2.));
#628=DIRECTION('',(0.,1.,0.));
#629=VECTOR('',#628,1.75);
#630=LINE('',#627,#629);
#631=EDGE_CURVE('',#495,#626,#630,.T.);
#632=ORIENTED_EDGE('',*,*,#631,.T.);
#633=CARTESIAN_POINT('',(12.55,3.,2.));
#634=DIRECTION('',(1.,0.,0.));
#635=VECTOR('',#634,1.75);
#636=LINE('',#633,#635);
#637=EDGE_CURVE('',#520,#626,#636,.T.);
#638=ORIENTED_EDGE('',*,*,#637,.F.);
#639=EDGE_LOOP('',(#624,#632,#638));
#640=FACE_BOUND('',#639,.T.);
#641=ADVANCED_FACE('',(#640),#617,.F.);
#642=CARTESIAN_POINT('',(12.55,1.25,3.375));
#643=DIRECTION('',(0.,0.,-1.));
#644=DIRECTION('',(-1.,0.,-0.));
#645=AXIS2_PLACEMENT_3D('',#642,#643,#644);
#646=CYLINDRICAL_SURFACE('',#645,1.75);
#647=ORIENTED_EDGE('',*,*,#623,.F.);
#648=ORIENTED_EDGE('',*,*,#538,.F.);
#649=ORIENTED_EDGE('',*,*,#287,.F.);
#650=ORIENTED_EDGE('',*,*,#506,.F.);
#651=EDGE_LOOP('',(#647,#648,#649,#650));
#652=FACE_BOUND('',#651,.T.);
#653=ADVANCED_FACE('',(#652),#646,.F.);
#654=CARTESIAN_POINT('',(5.75,1.25,3.375));
#655=DIRECTION('',(-0.,0.,1.));
#656=DIRECTION('',(1.,0.,0.));
#657=AXIS2_PLACEMENT_3D('',#654,#655,#656);
#658=CYLINDRICAL_SURFACE('',#657,1.75);
#659=ORIENTED_EDGE('',*,*,#304,.F.);
#660=ORIENTED_EDGE('',*,*,#531,.F.);
#661=ORIENTED_EDGE('',*,*,#608,.F.);
#662=ORIENTED_EDGE('',*,*,#468,.F.);
#663=EDGE_LOOP('',(#659,#660,#661,#662));
#664=FACE_BOUND('',#663,.T.);
#665=ADVANCED_FACE('',(#664),#658,.F.);
#666=CARTESIAN_POINT('',(16.3,0.,2.));
#667=DIRECTION('',(0.,0.,-1.));
#668=DIRECTION('',(-1.,0.,-0.));
#669=AXIS2_PLACEMENT_3D('',#666,#667,#668);
#670=PLANE('',#669);
#671=CARTESIAN_POINT('',(4.,39.,2.));
#672=VERTEX_POINT('',#671);
#673=CARTESIAN_POINT('',(14.3,39.,2.));
#674=VERTEX_POINT('',#673);
#675=CARTESIAN_POINT('',(4.,39.,2.));
#676=DIRECTION('',(1.,0.,0.));
#677=VECTOR('',#676,10.3);
#678=LINE('',#675,#677);
#679=EDGE_CURVE('',#672,#674,#678,.T.);
#680=ORIENTED_EDGE('',*,*,#679,.T.);
#681=CARTESIAN_POINT('',(14.3,5.,2.));
#682=VERTEX_POINT('',#681);
#683=CARTESIAN_POINT('',(14.3,39.,2.));
#684=DIRECTION('',(0.,-1.,0.));
#685=VECTOR('',#684,34.);
#686=LINE('',#683,#685);
#687=EDGE_CURVE('',#674,#682,#686,.T.);
#688=ORIENTED_EDGE('',*,*,#687,.T.);
#689=CARTESIAN_POINT('',(4.,5.,2.));
#690=VERTEX_POINT('',#689);
#691=CARTESIAN_POINT('',(14.3,5.,2.));
#692=DIRECTION('',(-1.,0.,-0.));
#693=VECTOR('',#692,10.3);
#694=LINE('',#691,#693);
#695=EDGE_CURVE('',#682,#690,#694,.T.);
#696=ORIENTED_EDGE('',*,*,#695,.T.);
#697=CARTESIAN_POINT('',(4.,5.,2.));
#698=DIRECTION('',(0.,1.,0.));
#699=VECTOR('',#698,34.);
#700=LINE('',#697,#699);
#701=EDGE_CURVE('',#690,#672,#700,.T.);
#702=ORIENTED_EDGE('',*,*,#701,.T.);
#703=EDGE_LOOP('',(#680,#688,#696,#702));
#704=FACE_BOUND('',#703,.T.);
#705=ORIENTED_EDGE('',*,*,#335,.F.);
#706=CARTESIAN_POINT('',(0.,0.2,2.));
#707=DIRECTION('',(0.,1.,0.));
#708=VECTOR('',#707,43.8);
#709=LINE('',#706,#708);
#710=EDGE_CURVE('',#355,#322,#709,.T.);
#711=ORIENTED_EDGE('',*,*,#710,.F.);
#712=ORIENTED_EDGE('',*,*,#360,.F.);
#713=ORIENTED_EDGE('',*,*,#474,.F.);
#714=ORIENTED_EDGE('',*,*,#601,.F.);
#715=ORIENTED_EDGE('',*,*,#595,.T.);
#716=ORIENTED_EDGE('',*,*,#525,.T.);
#717=ORIENTED_EDGE('',*,*,#637,.T.);
#718=ORIENTED_EDGE('',*,*,#631,.F.);
#719=ORIENTED_EDGE('',*,*,#500,.F.);
#720=ORIENTED_EDGE('',*,*,#577,.F.);
#721=ORIENTED_EDGE('',*,*,#554,.T.);
#722=ORIENTED_EDGE('',*,*,#446,.F.);
#723=ORIENTED_EDGE('',*,*,#420,.F.);
#724=ORIENTED_EDGE('',*,*,#412,.F.);
#725=ORIENTED_EDGE('',*,*,#404,.F.);
#726=EDGE_LOOP('',(#705,#711,#712,#713,#714,#715,#716,#717,#718,#719,#720,#721,#722,#723,#724,#725));
#727=FACE_BOUND('',#726,.T.);
#728=ADVANCED_FACE('',(#704,#727),#670,.F.);
#729=CARTESIAN_POINT('',(16.3,0.,2.));
#730=DIRECTION('',(0.,0.,-1.));
#731=DIRECTION('',(-1.,0.,-0.));
#732=AXIS2_PLACEMENT_3D('',#729,#730,#731);
#733=PLANE('',#732);
#734=ORIENTED_EDGE('',*,*,#679,.F.);
#735=ORIENTED_EDGE('',*,*,#701,.F.);
#736=ORIENTED_EDGE('',*,*,#695,.F.);
#737=ORIENTED_EDGE('',*,*,#687,.F.);
#738=EDGE_LOOP('',(#734,#735,#736,#737));
#739=FACE_BOUND('',#738,.T.);
#740=ADVANCED_FACE('',(#739),#733,.F.);
#741=CARTESIAN_POINT('',(0.,22.,-0.));
#742=DIRECTION('',(1.,-0.,0.));
#743=DIRECTION('',(-0.,-1.,-0.));
#744=AXIS2_PLACEMENT_3D('',#741,#742,#743);
#745=PLANE('',#744);
#746=ORIENTED_EDGE('',*,*,#710,.T.);
#747=ORIENTED_EDGE('',*,*,#327,.F.);
#748=ORIENTED_EDGE('',*,*,#232,.F.);
#749=ORIENTED_EDGE('',*,*,#366,.T.);
#750=EDGE_LOOP('',(#746,#747,#748,#749));
#751=FACE_BOUND('',#750,.T.);
#752=ADVANCED_FACE('',(#751),#745,.F.);
#753=CLOSED_SHELL('',(#90,#154,#176,#198,#210,#314,#346,#377,#389,#431,#456,#480,#511,#542,#566,#583,#612,#641,#653,#665,#728,#740,#752));
#754=MANIFOLD_SOLID_BREP('top',#753);
#755=COLOUR_RGB('',0.494117647,0.494117647,0.525490224);
#756=FILL_AREA_STYLE_COLOUR('',#755);
#757=FILL_AREA_STYLE('',(#756));
#758=SURFACE_STYLE_FILL_AREA(#757);
#759=SURFACE_SIDE_STYLE('',(#758));
#760=SURFACE_STYLE_USAGE(.BOTH.,#759);
#761=PRESENTATION_STYLE_ASSIGNMENT((#760));
#26=STYLED_ITEM('',(#761),#754);
#763=CARTESIAN_POINT('',(16.3,0.,6.75));
#764=DIRECTION('',(0.,0.,-1.));
#765=DIRECTION('',(-1.,0.,-0.));
#766=AXIS2_PLACEMENT_3D('',#763,#764,#765);
#767=PLANE('',#766);
#768=CARTESIAN_POINT('',(4.,3.2,6.75));
#769=VERTEX_POINT('',#768);
#770=CARTESIAN_POINT('',(4.,41.,6.75));
#771=VERTEX_POINT('',#770);
#772=CARTESIAN_POINT('',(4.,3.2,6.75));
#773=DIRECTION('',(0.,1.,0.));
#774=VECTOR('',#773,37.8);
#775=LINE('',#772,#774);
#776=EDGE_CURVE('',#769,#771,#775,.T.);
#777=ORIENTED_EDGE('',*,*,#776,.T.);
#778=CARTESIAN_POINT('',(2.,41.,6.75));
#779=VERTEX_POINT('',#778);
#780=CARTESIAN_POINT('',(4.,41.,6.75));
#781=DIRECTION('',(-1.,-0.,-0.));
#782=VECTOR('',#781,2.);
#783=LINE('',#780,#782);
#784=EDGE_CURVE('',#771,#779,#783,.T.);
#785=ORIENTED_EDGE('',*,*,#784,.T.);
#786=CARTESIAN_POINT('',(2.,3.2,6.75));
#787=VERTEX_POINT('',#786);
#788=CARTESIAN_POINT('',(2.,3.2,6.75));
#789=DIRECTION('',(0.,1.,0.));
#790=VECTOR('',#789,37.8);
#791=LINE('',#788,#790);
#792=EDGE_CURVE('',#787,#779,#791,.T.);
#793=ORIENTED_EDGE('',*,*,#792,.F.);
#794=CARTESIAN_POINT('',(2.,3.2,6.75));
#795=DIRECTION('',(1.,-0.,0.));
#796=VECTOR('',#795,2.);
#797=LINE('',#794,#796);
#798=EDGE_CURVE('',#787,#769,#797,.T.);
#799=ORIENTED_EDGE('',*,*,#798,.T.);
#800=EDGE_LOOP('',(#777,#785,#793,#799));
#801=FACE_BOUND('',#800,.T.);
#802=ADVANCED_FACE('',(#801),#767,.F.);
#803=CARTESIAN_POINT('',(16.3,0.,4.75));
#804=DIRECTION('',(0.,0.,-1.));
#805=DIRECTION('',(-1.,0.,-0.));
#806=AXIS2_PLACEMENT_3D('',#803,#804,#805);
#807=PLANE('',#806);
#808=CARTESIAN_POINT('',(13.8,3.,4.75));
#809=VERTEX_POINT('',#808);
#810=CARTESIAN_POINT('',(7.482050808,3.,4.75));
#811=VERTEX_POINT('',#810);
#812=CARTESIAN_POINT('',(13.8,3.,4.75));
#813=DIRECTION('',(-1.,0.,-0.));
#814=VECTOR('',#813,6.317949192);
#815=LINE('',#812,#814);
#816=EDGE_CURVE('',#809,#811,#815,.T.);
#817=ORIENTED_EDGE('',*,*,#816,.F.);
#818=CARTESIAN_POINT('',(13.8,5.,4.75));
#819=VERTEX_POINT('',#818);
#820=CARTESIAN_POINT('',(13.8,3.,4.75));
#821=DIRECTION('',(-0.,1.,-0.));
#822=VECTOR('',#821,2.);
#823=LINE('',#820,#822);
#824=EDGE_CURVE('',#809,#819,#823,.T.);
#825=ORIENTED_EDGE('',*,*,#824,.T.);
#826=CARTESIAN_POINT('',(7.482050808,5.,4.75));
#827=VERTEX_POINT('',#826);
#828=CARTESIAN_POINT('',(13.8,5.,4.75));
#829=DIRECTION('',(-1.,0.,-0.));
#830=VECTOR('',#829,6.317949192);
#831=LINE('',#828,#830);
#832=EDGE_CURVE('',#819,#827,#831,.T.);
#833=ORIENTED_EDGE('',*,*,#832,.T.);
#834=CARTESIAN_POINT('',(7.482050808,5.,4.75));
#835=DIRECTION('',(-0.,-1.,-0.));
#836=VECTOR('',#835,2.);
#837=LINE('',#834,#836);
#838=EDGE_CURVE('',#827,#811,#837,.T.);
#839=ORIENTED_EDGE('',*,*,#838,.T.);
#840=EDGE_LOOP('',(#817,#825,#833,#839));
#841=FACE_BOUND('',#840,.T.);
#842=ADVANCED_FACE('',(#841),#807,.F.);
#843=CARTESIAN_POINT('',(7.482050808,22.,6.5));
#844=DIRECTION('',(0.,1.,0.));
#845=DIRECTION('',(1.,-0.,0.));
#846=AXIS2_PLACEMENT_3D('',#843,#844,#845);
#847=CYLINDRICAL_SURFACE('',#846,1.75);
#848=CARTESIAN_POINT('',(5.75,5.,6.25));
#849=VERTEX_POINT('',#848);
#850=CARTESIAN_POINT('',(7.482050808,5.,6.5));
#851=DIRECTION('',(0.,-1.,0.));
#852=DIRECTION('',(-0.,0.,1.));
#853=AXIS2_PLACEMENT_3D('',#850,#851,#852);
#854=CIRCLE('',#853,1.75);
#855=EDGE_CURVE('',#849,#827,#854,.T.);
#856=ORIENTED_EDGE('',*,*,#855,.F.);
#857=CARTESIAN_POINT('',(5.75,3.,6.25));
#858=VERTEX_POINT('',#857);
#859=CARTESIAN_POINT('',(5.75,5.,6.25));
#860=DIRECTION('',(-0.,-1.,-0.));
#861=VECTOR('',#860,2.);
#862=LINE('',#859,#861);
#863=EDGE_CURVE('',#849,#858,#862,.T.);
#864=ORIENTED_EDGE('',*,*,#863,.T.);
#865=CARTESIAN_POINT('',(7.482050808,3.,6.5));
#866=DIRECTION('',(-0.,1.,-0.));
#867=DIRECTION('',(-0.,0.,1.));
#868=AXIS2_PLACEMENT_3D('',#865,#866,#867);
#869=CIRCLE('',#868,1.75);
#870=EDGE_CURVE('',#811,#858,#869,.T.);
#871=ORIENTED_EDGE('',*,*,#870,.F.);
#872=ORIENTED_EDGE('',*,*,#838,.F.);
#873=EDGE_LOOP('',(#856,#864,#871,#872));
#874=FACE_BOUND('',#873,.T.);
#875=ADVANCED_FACE('',(#874),#847,.F.);
#876=CARTESIAN_POINT('',(13.8,22.,5.25));
#877=DIRECTION('',(0.,1.,0.));
#878=DIRECTION('',(0.,0.,-1.));
#879=AXIS2_PLACEMENT_3D('',#876,#877,#878);
#880=CYLINDRICAL_SURFACE('',#879,0.5);
#881=CARTESIAN_POINT('',(14.3,5.,5.25));
#882=VERTEX_POINT('',#881);
#883=CARTESIAN_POINT('',(13.8,5.,5.25));
#884=DIRECTION('',(0.,-1.,0.));
#885=DIRECTION('',(-0.,0.,1.));
#886=AXIS2_PLACEMENT_3D('',#883,#884,#885);
#887=CIRCLE('',#886,0.5);
#888=EDGE_CURVE('',#819,#882,#887,.T.);
#889=ORIENTED_EDGE('',*,*,#888,.F.);
#890=ORIENTED_EDGE('',*,*,#824,.F.);
#891=CARTESIAN_POINT('',(14.3,3.,5.25));
#892=VERTEX_POINT('',#891);
#893=CARTESIAN_POINT('',(13.8,3.,5.25));
#894=DIRECTION('',(-0.,1.,-0.));
#895=DIRECTION('',(-0.,0.,1.));
#896=AXIS2_PLACEMENT_3D('',#893,#894,#895);
#897=CIRCLE('',#896,0.5);
#898=EDGE_CURVE('',#892,#809,#897,.T.);
#899=ORIENTED_EDGE('',*,*,#898,.F.);
#900=CARTESIAN_POINT('',(14.3,5.,5.25));
#901=DIRECTION('',(0.,-1.,0.));
#902=VECTOR('',#901,2.);
#903=LINE('',#900,#902);
#904=EDGE_CURVE('',#882,#892,#903,.T.);
#905=ORIENTED_EDGE('',*,*,#904,.F.);
#906=EDGE_LOOP('',(#889,#890,#899,#905));
#907=FACE_BOUND('',#906,.T.);
#908=ADVANCED_FACE('',(#907),#880,.F.);
#909=CARTESIAN_POINT('',(16.3,0.,6.25));
#910=DIRECTION('',(0.,0.,-1.));
#911=DIRECTION('',(-1.,0.,-0.));
#912=AXIS2_PLACEMENT_3D('',#909,#910,#911);
#913=PLANE('',#912);
#914=ORIENTED_EDGE('',*,*,#863,.F.);
#915=CARTESIAN_POINT('',(4.,5.,6.25));
#916=VERTEX_POINT('',#915);
#917=CARTESIAN_POINT('',(5.75,5.,6.25));
#918=DIRECTION('',(-1.,0.,-0.));
#919=VECTOR('',#918,1.75);
#920=LINE('',#917,#919);
#921=EDGE_CURVE('',#849,#916,#920,.T.);
#922=ORIENTED_EDGE('',*,*,#921,.T.);
#923=CARTESIAN_POINT('',(4.,3.,6.25));
#924=VERTEX_POINT('',#923);
#925=CARTESIAN_POINT('',(4.,3.,6.25));
#926=DIRECTION('',(0.,1.,0.));
#927=VECTOR('',#926,2.);
#928=LINE('',#925,#927);
#929=EDGE_CURVE('',#924,#916,#928,.T.);
#930=ORIENTED_EDGE('',*,*,#929,.F.);
#931=CARTESIAN_POINT('',(5.75,3.,6.25));
#932=DIRECTION('',(-1.,0.,-0.));
#933=VECTOR('',#932,1.75);
#934=LINE('',#931,#933);
#935=EDGE_CURVE('',#858,#924,#934,.T.);
#936=ORIENTED_EDGE('',*,*,#935,.F.);
#937=EDGE_LOOP('',(#914,#922,#930,#936));
#938=FACE_BOUND('',#937,.T.);
#939=ADVANCED_FACE('',(#938),#913,.F.);
#940=CARTESIAN_POINT('',(16.3,3.2,3.75));
#941=DIRECTION('',(-1.,0.,-0.));
#942=DIRECTION('',(-0.,0.,1.));
#943=AXIS2_PLACEMENT_3D('',#940,#941,#942);
#944=CYLINDRICAL_SURFACE('',#943,3.);
#945=CARTESIAN_POINT('',(4.,0.2,3.75));
#946=VERTEX_POINT('',#945);
#947=CARTESIAN_POINT('',(4.,3.2,3.75));
#948=DIRECTION('',(1.,-0.,0.));
#949=DIRECTION('',(0.,1.,0.));
#950=AXIS2_PLACEMENT_3D('',#947,#948,#949);
#951=CIRCLE('',#950,3.);
#952=EDGE_CURVE('',#769,#946,#951,.T.);
#953=ORIENTED_EDGE('',*,*,#952,.F.);
#954=ORIENTED_EDGE('',*,*,#798,.F.);
#955=CARTESIAN_POINT('',(2.,0.2,3.75));
#956=VERTEX_POINT('',#955);
#957=CARTESIAN_POINT('',(2.,3.2,3.75));
#958=DIRECTION('',(-1.,0.,-0.));
#959=DIRECTION('',(0.,1.,0.));
#960=AXIS2_PLACEMENT_3D('',#957,#958,#959);
#961=CIRCLE('',#960,3.);
#962=EDGE_CURVE('',#956,#787,#961,.T.);
#963=ORIENTED_EDGE('',*,*,#962,.F.);
#964=CARTESIAN_POINT('',(4.,0.2,3.75));
#965=DIRECTION('',(-1.,0.,-0.));
#966=VECTOR('',#965,2.);
#967=LINE('',#964,#966);
#968=EDGE_CURVE('',#946,#956,#967,.T.);
#969=ORIENTED_EDGE('',*,*,#968,.F.);
#970=EDGE_LOOP('',(#953,#954,#963,#969));
#971=FACE_BOUND('',#970,.T.);
#972=ADVANCED_FACE('',(#971),#944,.T.);
#973=CARTESIAN_POINT('',(16.3,3.2,3.75));
#974=DIRECTION('',(-1.,0.,-0.));
#975=DIRECTION('',(-0.,0.,1.));
#976=AXIS2_PLACEMENT_3D('',#973,#974,#975);
#977=CYLINDRICAL_SURFACE('',#976,3.);
#978=CARTESIAN_POINT('',(16.3,3.2,6.75));
#979=VERTEX_POINT('',#978);
#980=CARTESIAN_POINT('',(16.3,0.2,3.75));
#981=VERTEX_POINT('',#980);
#982=CARTESIAN_POINT('',(16.3,3.2,3.75));
#983=DIRECTION('',(1.,0.,0.));
#984=DIRECTION('',(0.,0.,-1.));
#985=AXIS2_PLACEMENT_3D('',#982,#983,#984);
#986=CIRCLE('',#985,3.);
#987=EDGE_CURVE('',#979,#981,#986,.T.);
#988=ORIENTED_EDGE('',*,*,#987,.F.);
#989=CARTESIAN_POINT('',(14.3,3.2,6.75));
#990=VERTEX_POINT('',#989);
#991=CARTESIAN_POINT('',(14.3,3.2,6.75));
#992=DIRECTION('',(1.,-0.,0.));
#993=VECTOR('',#992,2.);
#994=LINE('',#991,#993);
#995=EDGE_CURVE('',#990,#979,#994,.T.);
#996=ORIENTED_EDGE('',*,*,#995,.F.);
#997=CARTESIAN_POINT('',(14.3,0.2,3.75));
#998=VERTEX_POINT('',#997);
#999=CARTESIAN_POINT('',(14.3,3.2,3.75));
#1000=DIRECTION('',(-1.,-0.,-0.));
#1001=DIRECTION('',(0.,0.,-1.));
#1002=AXIS2_PLACEMENT_3D('',#999,#1000,#1001);
#1003=CIRCLE('',#1002,3.);
#1004=EDGE_CURVE('',#998,#990,#1003,.T.);
#1005=ORIENTED_EDGE('',*,*,#1004,.F.);
#1006=CARTESIAN_POINT('',(16.3,0.2,3.75));
#1007=DIRECTION('',(-1.,0.,-0.));
#1008=VECTOR('',#1007,2.);
#1009=LINE('',#1006,#1008);
#1010=EDGE_CURVE('',#981,#998,#1009,.T.);
#1011=ORIENTED_EDGE('',*,*,#1010,.F.);
#1012=EDGE_LOOP('',(#988,#996,#1005,#1011));
#1013=FACE_BOUND('',#1012,.T.);
#1014=ADVANCED_FACE('',(#1013),#977,.T.);
#1015=CARTESIAN_POINT('',(16.3,0.2,0.));
#1016=DIRECTION('',(0.,1.,0.));
#1017=DIRECTION('',(0.,0.,-1.));
#1018=AXIS2_PLACEMENT_3D('',#1015,#1016,#1017);
#1019=PLANE('',#1018);
#1020=CARTESIAN_POINT('',(4.,0.2,2.));
#1021=VERTEX_POINT('',#1020);
#1022=CARTESIAN_POINT('',(2.,0.2,2.));
#1023=VERTEX_POINT('',#1022);
#1024=CARTESIAN_POINT('',(4.,0.2,2.));
#1025=DIRECTION('',(-1.,0.,-0.));
#1026=VECTOR('',#1025,2.);
#1027=LINE('',#1024,#1026);
#1028=EDGE_CURVE('',#1021,#1023,#1027,.T.);
#1029=ORIENTED_EDGE('',*,*,#1028,.F.);
#1030=CARTESIAN_POINT('',(4.,0.2,2.));
#1031=DIRECTION('',(-0.,0.,1.));
#1032=VECTOR('',#1031,1.75);
#1033=LINE('',#1030,#1032);
#1034=EDGE_CURVE('',#1021,#946,#1033,.T.);
#1035=ORIENTED_EDGE('',*,*,#1034,.T.);
#1036=ORIENTED_EDGE('',*,*,#968,.T.);
#1037=CARTESIAN_POINT('',(2.,0.2,2.));
#1038=DIRECTION('',(-0.,0.,1.));
#1039=VECTOR('',#1038,1.75);
#1040=LINE('',#1037,#1039);
#1041=EDGE_CURVE('',#1023,#956,#1040,.T.);
#1042=ORIENTED_EDGE('',*,*,#1041,.F.);
#1043=EDGE_LOOP('',(#1029,#1035,#1036,#1042));
#1044=FACE_BOUND('',#1043,.T.);
#1045=ADVANCED_FACE('',(#1044),#1019,.F.);
#1046=CARTESIAN_POINT('',(9.15,3.,3.375));
#1047=DIRECTION('',(0.,-1.,0.));
#1048=DIRECTION('',(-0.,0.,1.));
#1049=AXIS2_PLACEMENT_3D('',#1046,#1047,#1048);
#1050=PLANE('',#1049);
#1051=CARTESIAN_POINT('',(4.,3.,2.));
#1052=VERTEX_POINT('',#1051);
#1053=CARTESIAN_POINT('',(5.75,3.,2.));
#1054=VERTEX_POINT('',#1053);
#1055=CARTESIAN_POINT('',(4.,3.,2.));
#1056=DIRECTION('',(1.,0.,0.));
#1057=VECTOR('',#1056,1.75);
#1058=LINE('',#1055,#1057);
#1059=EDGE_CURVE('',#1052,#1054,#1058,.T.);
#1060=ORIENTED_EDGE('',*,*,#1059,.T.);
#1061=CARTESIAN_POINT('',(12.55,3.,2.));
#1062=VERTEX_POINT('',#1061);
#1063=CARTESIAN_POINT('',(5.75,3.,2.));
#1064=DIRECTION('',(1.,0.,0.));
#1065=VECTOR('',#1064,6.8);
#1066=LINE('',#1063,#1065);
#1067=EDGE_CURVE('',#1054,#1062,#1066,.T.);
#1068=ORIENTED_EDGE('',*,*,#1067,.T.);
#1069=CARTESIAN_POINT('',(14.3,3.,2.));
#1070=VERTEX_POINT('',#1069);
#1071=CARTESIAN_POINT('',(12.55,3.,2.));
#1072=DIRECTION('',(1.,0.,0.));
#1073=VECTOR('',#1072,1.75);
#1074=LINE('',#1071,#1073);
#1075=EDGE_CURVE('',#1062,#1070,#1074,.T.);
#1076=ORIENTED_EDGE('',*,*,#1075,.T.);
#1077=CARTESIAN_POINT('',(14.3,3.,5.25));
#1078=DIRECTION('',(0.,0.,-1.));
#1079=VECTOR('',#1078,3.25);
#1080=LINE('',#1077,#1079);
#1081=EDGE_CURVE('',#892,#1070,#1080,.T.);
#1082=ORIENTED_EDGE('',*,*,#1081,.F.);
#1083=ORIENTED_EDGE('',*,*,#898,.T.);
#1084=ORIENTED_EDGE('',*,*,#816,.T.);
#1085=ORIENTED_EDGE('',*,*,#870,.T.);
#1086=ORIENTED_EDGE('',*,*,#935,.T.);
#1087=CARTESIAN_POINT('',(4.,3.,2.));
#1088=DIRECTION('',(-0.,0.,1.));
#1089=VECTOR('',#1088,4.25);
#1090=LINE('',#1087,#1089);
#1091=EDGE_CURVE('',#1052,#924,#1090,.T.);
#1092=ORIENTED_EDGE('',*,*,#1091,.F.);
#1093=EDGE_LOOP('',(#1060,#1068,#1076,#1082,#1083,#1084,#1085,#1086,#1092));
#1094=FACE_BOUND('',#1093,.T.);
#1095=ADVANCED_FACE('',(#1094),#1050,.T.);
#1096=CARTESIAN_POINT('',(16.3,0.2,0.));
#1097=DIRECTION('',(0.,1.,0.));
#1098=DIRECTION('',(0.,0.,-1.));
#1099=AXIS2_PLACEMENT_3D('',#1096,#1097,#1098);
#1100=PLANE('',#1099);
#1101=CARTESIAN_POINT('',(16.3,0.2,2.));
#1102=VERTEX_POINT('',#1101);
#1103=CARTESIAN_POINT('',(14.3,0.2,2.));
#1104=VERTEX_POINT('',#1103);
#1105=CARTESIAN_POINT('',(16.3,0.2,2.));
#1106=DIRECTION('',(-1.,0.,-0.));
#1107=VECTOR('',#1106,2.);
#1108=LINE('',#1105,#1107);
#1109=EDGE_CURVE('',#1102,#1104,#1108,.T.);
#1110=ORIENTED_EDGE('',*,*,#1109,.F.);
#1111=CARTESIAN_POINT('',(16.3,0.2,2.));
#1112=DIRECTION('',(-0.,0.,1.));
#1113=VECTOR('',#1112,1.75);
#1114=LINE('',#1111,#1113);
#1115=EDGE_CURVE('',#1102,#981,#1114,.T.);
#1116=ORIENTED_EDGE('',*,*,#1115,.T.);
#1117=ORIENTED_EDGE('',*,*,#1010,.T.);
#1118=CARTESIAN_POINT('',(14.3,0.2,3.75));
#1119=DIRECTION('',(0.,0.,-1.));
#1120=VECTOR('',#1119,1.75);
#1121=LINE('',#1118,#1120);
#1122=EDGE_CURVE('',#998,#1104,#1121,.T.);
#1123=ORIENTED_EDGE('',*,*,#1122,.T.);
#1124=EDGE_LOOP('',(#1110,#1116,#1117,#1123));
#1125=FACE_BOUND('',#1124,.T.);
#1126=ADVANCED_FACE('',(#1125),#1100,.F.);
#1127=CARTESIAN_POINT('',(9.15,5.,3.375));
#1128=DIRECTION('',(0.,-1.,0.));
#1129=DIRECTION('',(-0.,0.,1.));
#1130=AXIS2_PLACEMENT_3D('',#1127,#1128,#1129);
#1131=PLANE('',#1130);
#1132=CARTESIAN_POINT('',(14.3,5.,2.));
#1133=VERTEX_POINT('',#1132);
#1134=CARTESIAN_POINT('',(14.3,5.,5.25));
#1135=DIRECTION('',(0.,0.,-1.));
#1136=VECTOR('',#1135,3.25);
#1137=LINE('',#1134,#1136);
#1138=EDGE_CURVE('',#882,#1133,#1137,.T.);
#1139=ORIENTED_EDGE('',*,*,#1138,.T.);
#1140=CARTESIAN_POINT('',(4.,5.,2.));
#1141=VERTEX_POINT('',#1140);
#1142=CARTESIAN_POINT('',(14.3,5.,2.));
#1143=DIRECTION('',(-1.,0.,-0.));
#1144=VECTOR('',#1143,10.3);
#1145=LINE('',#1142,#1144);
#1146=EDGE_CURVE('',#1133,#1141,#1145,.T.);
#1147=ORIENTED_EDGE('',*,*,#1146,.T.);
#1148=CARTESIAN_POINT('',(4.,5.,2.));
#1149=DIRECTION('',(-0.,0.,1.));
#1150=VECTOR('',#1149,4.25);
#1151=LINE('',#1148,#1150);
#1152=EDGE_CURVE('',#1141,#916,#1151,.T.);
#1153=ORIENTED_EDGE('',*,*,#1152,.T.);
#1154=ORIENTED_EDGE('',*,*,#921,.F.);
#1155=ORIENTED_EDGE('',*,*,#855,.T.);
#1156=ORIENTED_EDGE('',*,*,#832,.F.);
#1157=ORIENTED_EDGE('',*,*,#888,.T.);
#1158=EDGE_LOOP('',(#1139,#1147,#1153,#1154,#1155,#1156,#1157));
#1159=FACE_BOUND('',#1158,.T.);
#1160=ADVANCED_FACE('',(#1159),#1131,.F.);
#1161=CARTESIAN_POINT('',(7.482050808,22.,6.5));
#1162=DIRECTION('',(0.,1.,0.));
#1163=DIRECTION('',(1.,-0.,0.));
#1164=AXIS2_PLACEMENT_3D('',#1161,#1162,#1163);
#1165=CYLINDRICAL_SURFACE('',#1164,1.75);
#1166=CARTESIAN_POINT('',(5.75,41.,6.25));
#1167=VERTEX_POINT('',#1166);
#1168=CARTESIAN_POINT('',(7.482050808,41.,4.75));
#1169=VERTEX_POINT('',#1168);
#1170=CARTESIAN_POINT('',(7.482050808,41.,6.5));
#1171=DIRECTION('',(-0.,-1.,-0.));
#1172=DIRECTION('',(0.,0.,-1.));
#1173=AXIS2_PLACEMENT_3D('',#1170,#1171,#1172);
#1174=CIRCLE('',#1173,1.75);
#1175=EDGE_CURVE('',#1167,#1169,#1174,.T.);
#1176=ORIENTED_EDGE('',*,*,#1175,.F.);
#1177=CARTESIAN_POINT('',(5.75,39.,6.25));
#1178=VERTEX_POINT('',#1177);
#1179=CARTESIAN_POINT('',(5.75,41.,6.25));
#1180=DIRECTION('',(-0.,-1.,-0.));
#1181=VECTOR('',#1180,2.);
#1182=LINE('',#1179,#1181);
#1183=EDGE_CURVE('',#1167,#1178,#1182,.T.);
#1184=ORIENTED_EDGE('',*,*,#1183,.T.);
#1185=CARTESIAN_POINT('',(7.482050808,39.,4.75));
#1186=VERTEX_POINT('',#1185);
#1187=CARTESIAN_POINT('',(7.482050808,39.,6.5));
#1188=DIRECTION('',(0.,1.,0.));
#1189=DIRECTION('',(0.,0.,-1.));
#1190=AXIS2_PLACEMENT_3D('',#1187,#1188,#1189);
#1191=CIRCLE('',#1190,1.75);
#1192=EDGE_CURVE('',#1186,#1178,#1191,.T.);
#1193=ORIENTED_EDGE('',*,*,#1192,.F.);
#1194=CARTESIAN_POINT('',(7.482050808,41.,4.75));
#1195=DIRECTION('',(-0.,-1.,-0.));
#1196=VECTOR('',#1195,2.);
#1197=LINE('',#1194,#1196);
#1198=EDGE_CURVE('',#1169,#1186,#1197,.T.);
#1199=ORIENTED_EDGE('',*,*,#1198,.F.);
#1200=EDGE_LOOP('',(#1176,#1184,#1193,#1199));
#1201=FACE_BOUND('',#1200,.T.);
#1202=ADVANCED_FACE('',(#1201),#1165,.F.);
#1203=CARTESIAN_POINT('',(16.3,0.,4.75));
#1204=DIRECTION('',(0.,0.,-1.));
#1205=DIRECTION('',(-1.,0.,-0.));
#1206=AXIS2_PLACEMENT_3D('',#1203,#1204,#1205);
#1207=PLANE('',#1206);
#1208=CARTESIAN_POINT('',(13.8,41.,4.75));
#1209=VERTEX_POINT('',#1208);
#1210=CARTESIAN_POINT('',(7.482050808,41.,4.75));
#1211=DIRECTION('',(1.,0.,0.));
#1212=VECTOR('',#1211,6.317949192);
#1213=LINE('',#1210,#1212);
#1214=EDGE_CURVE('',#1169,#1209,#1213,.T.);
#1215=ORIENTED_EDGE('',*,*,#1214,.F.);
#1216=ORIENTED_EDGE('',*,*,#1198,.T.);
#1217=CARTESIAN_POINT('',(13.8,39.,4.75));
#1218=VERTEX_POINT('',#1217);
#1219=CARTESIAN_POINT('',(7.482050808,39.,4.75));
#1220=DIRECTION('',(1.,0.,0.));
#1221=VECTOR('',#1220,6.317949192);
#1222=LINE('',#1219,#1221);
#1223=EDGE_CURVE('',#1186,#1218,#1222,.T.);
#1224=ORIENTED_EDGE('',*,*,#1223,.T.);
#1225=CARTESIAN_POINT('',(13.8,39.,4.75));
#1226=DIRECTION('',(-0.,1.,-0.));
#1227=VECTOR('',#1226,2.);
#1228=LINE('',#1225,#1227);
#1229=EDGE_CURVE('',#1218,#1209,#1228,.T.);
#1230=ORIENTED_EDGE('',*,*,#1229,.T.);
#1231=EDGE_LOOP('',(#1215,#1216,#1224,#1230));
#1232=FACE_BOUND('',#1231,.T.);
#1233=ADVANCED_FACE('',(#1232),#1207,.F.);
#1234=CARTESIAN_POINT('',(8.15,41.,3.75));
#1235=DIRECTION('',(1.,0.,0.));
#1236=DIRECTION('',(0.,0.,-1.));
#1237=AXIS2_PLACEMENT_3D('',#1234,#1235,#1236);
#1238=CYLINDRICAL_SURFACE('',#1237,3.);
#1239=CARTESIAN_POINT('',(2.,44.,3.75));
#1240=VERTEX_POINT('',#1239);
#1241=CARTESIAN_POINT('',(2.,41.,3.75));
#1242=DIRECTION('',(-1.,0.,-0.));
#1243=DIRECTION('',(0.,1.,0.));
#1244=AXIS2_PLACEMENT_3D('',#1241,#1242,#1243);
#1245=CIRCLE('',#1244,3.);
#1246=EDGE_CURVE('',#779,#1240,#1245,.T.);
#1247=ORIENTED_EDGE('',*,*,#1246,.F.);
#1248=ORIENTED_EDGE('',*,*,#784,.F.);
#1249=CARTESIAN_POINT('',(4.,44.,3.75));
#1250=VERTEX_POINT('',#1249);
#1251=CARTESIAN_POINT('',(4.,41.,3.75));
#1252=DIRECTION('',(1.,-0.,0.));
#1253=DIRECTION('',(0.,1.,0.));
#1254=AXIS2_PLACEMENT_3D('',#1251,#1252,#1253);
#1255=CIRCLE('',#1254,3.);
#1256=EDGE_CURVE('',#1250,#771,#1255,.T.);
#1257=ORIENTED_EDGE('',*,*,#1256,.F.);
#1258=CARTESIAN_POINT('',(2.,44.,3.75));
#1259=DIRECTION('',(1.,0.,0.));
#1260=VECTOR('',#1259,2.);
#1261=LINE('',#1258,#1260);
#1262=EDGE_CURVE('',#1240,#1250,#1261,.T.);
#1263=ORIENTED_EDGE('',*,*,#1262,.F.);
#1264=EDGE_LOOP('',(#1247,#1248,#1257,#1263));
#1265=FACE_BOUND('',#1264,.T.);
#1266=ADVANCED_FACE('',(#1265),#1238,.T.);
#1267=CARTESIAN_POINT('',(16.3,0.,6.25));
#1268=DIRECTION('',(0.,0.,-1.));
#1269=DIRECTION('',(-1.,0.,-0.));
#1270=AXIS2_PLACEMENT_3D('',#1267,#1268,#1269);
#1271=PLANE('',#1270);
#1272=ORIENTED_EDGE('',*,*,#1183,.F.);
#1273=CARTESIAN_POINT('',(4.,41.,6.25));
#1274=VERTEX_POINT('',#1273);
#1275=CARTESIAN_POINT('',(4.,41.,6.25));
#1276=DIRECTION('',(1.,0.,0.));
#1277=VECTOR('',#1276,1.75);
#1278=LINE('',#1275,#1277);
#1279=EDGE_CURVE('',#1274,#1167,#1278,.T.);
#1280=ORIENTED_EDGE('',*,*,#1279,.F.);
#1281=CARTESIAN_POINT('',(4.,39.,6.25));
#1282=VERTEX_POINT('',#1281);
#1283=CARTESIAN_POINT('',(4.,39.,6.25));
#1284=DIRECTION('',(0.,1.,0.));
#1285=VECTOR('',#1284,2.);
#1286=LINE('',#1283,#1285);
#1287=EDGE_CURVE('',#1282,#1274,#1286,.T.);
#1288=ORIENTED_EDGE('',*,*,#1287,.F.);
#1289=CARTESIAN_POINT('',(4.,39.,6.25));
#1290=DIRECTION('',(1.,0.,0.));
#1291=VECTOR('',#1290,1.75);
#1292=LINE('',#1289,#1291);
#1293=EDGE_CURVE('',#1282,#1178,#1292,.T.);
#1294=ORIENTED_EDGE('',*,*,#1293,.T.);
#1295=EDGE_LOOP('',(#1272,#1280,#1288,#1294));
#1296=FACE_BOUND('',#1295,.T.);
#1297=ADVANCED_FACE('',(#1296),#1271,.F.);
#1298=CARTESIAN_POINT('',(13.8,22.,5.25));
#1299=DIRECTION('',(0.,1.,0.));
#1300=DIRECTION('',(0.,0.,-1.));
#1301=AXIS2_PLACEMENT_3D('',#1298,#1299,#1300);
#1302=CYLINDRICAL_SURFACE('',#1301,0.5);
#1303=CARTESIAN_POINT('',(14.3,41.,5.25));
#1304=VERTEX_POINT('',#1303);
#1305=CARTESIAN_POINT('',(13.8,41.,5.25));
#1306=DIRECTION('',(-0.,-1.,-0.));
#1307=DIRECTION('',(0.,0.,-1.));
#1308=AXIS2_PLACEMENT_3D('',#1305,#1306,#1307);
#1309=CIRCLE('',#1308,0.5);
#1310=EDGE_CURVE('',#1209,#1304,#1309,.T.);
#1311=ORIENTED_EDGE('',*,*,#1310,.F.);
#1312=ORIENTED_EDGE('',*,*,#1229,.F.);
#1313=CARTESIAN_POINT('',(14.3,39.,5.25));
#1314=VERTEX_POINT('',#1313);
#1315=CARTESIAN_POINT('',(13.8,39.,5.25));
#1316=DIRECTION('',(0.,1.,0.));
#1317=DIRECTION('',(0.,0.,-1.));
#1318=AXIS2_PLACEMENT_3D('',#1315,#1316,#1317);
#1319=CIRCLE('',#1318,0.5);
#1320=EDGE_CURVE('',#1314,#1218,#1319,.T.);
#1321=ORIENTED_EDGE('',*,*,#1320,.F.);
#1322=CARTESIAN_POINT('',(14.3,41.,5.25));
#1323=DIRECTION('',(0.,-1.,0.));
#1324=VECTOR('',#1323,2.);
#1325=LINE('',#1322,#1324);
#1326=EDGE_CURVE('',#1304,#1314,#1325,.T.);
#1327=ORIENTED_EDGE('',*,*,#1326,.F.);
#1328=EDGE_LOOP('',(#1311,#1312,#1321,#1327));
#1329=FACE_BOUND('',#1328,.T.);
#1330=ADVANCED_FACE('',(#1329),#1302,.F.);
#1331=CARTESIAN_POINT('',(8.15,41.,3.75));
#1332=DIRECTION('',(1.,0.,0.));
#1333=DIRECTION('',(0.,0.,-1.));
#1334=AXIS2_PLACEMENT_3D('',#1331,#1332,#1333);
#1335=CYLINDRICAL_SURFACE('',#1334,3.);
#1336=CARTESIAN_POINT('',(14.3,41.,6.75));
#1337=VERTEX_POINT('',#1336);
#1338=CARTESIAN_POINT('',(14.3,44.,3.75));
#1339=VERTEX_POINT('',#1338);
#1340=CARTESIAN_POINT('',(14.3,41.,3.75));
#1341=DIRECTION('',(-1.,-0.,-0.));
#1342=DIRECTION('',(0.,0.,-1.));
#1343=AXIS2_PLACEMENT_3D('',#1340,#1341,#1342);
#1344=CIRCLE('',#1343,3.);
#1345=EDGE_CURVE('',#1337,#1339,#1344,.T.);
#1346=ORIENTED_EDGE('',*,*,#1345,.F.);
#1347=CARTESIAN_POINT('',(16.3,41.,6.75));
#1348=VERTEX_POINT('',#1347);
#1349=CARTESIAN_POINT('',(16.3,41.,6.75));
#1350=DIRECTION('',(-1.,-0.,-0.));
#1351=VECTOR('',#1350,2.);
#1352=LINE('',#1349,#1351);
#1353=EDGE_CURVE('',#1348,#1337,#1352,.T.);
#1354=ORIENTED_EDGE('',*,*,#1353,.F.);
#1355=CARTESIAN_POINT('',(16.3,44.,3.75));
#1356=VERTEX_POINT('',#1355);
#1357=CARTESIAN_POINT('',(16.3,41.,3.75));
#1358=DIRECTION('',(1.,0.,0.));
#1359=DIRECTION('',(0.,0.,-1.));
#1360=AXIS2_PLACEMENT_3D('',#1357,#1358,#1359);
#1361=CIRCLE('',#1360,3.);
#1362=EDGE_CURVE('',#1356,#1348,#1361,.T.);
#1363=ORIENTED_EDGE('',*,*,#1362,.F.);
#1364=CARTESIAN_POINT('',(14.3,44.,3.75));
#1365=DIRECTION('',(1.,0.,0.));
#1366=VECTOR('',#1365,2.);
#1367=LINE('',#1364,#1366);
#1368=EDGE_CURVE('',#1339,#1356,#1367,.T.);
#1369=ORIENTED_EDGE('',*,*,#1368,.F.);
#1370=EDGE_LOOP('',(#1346,#1354,#1363,#1369));
#1371=FACE_BOUND('',#1370,.T.);
#1372=ADVANCED_FACE('',(#1371),#1335,.T.);
#1373=CARTESIAN_POINT('',(9.15,39.,3.375));
#1374=DIRECTION('',(0.,1.,0.));
#1375=DIRECTION('',(0.,0.,-1.));
#1376=AXIS2_PLACEMENT_3D('',#1373,#1374,#1375);
#1377=PLANE('',#1376);
#1378=CARTESIAN_POINT('',(4.,39.,2.));
#1379=VERTEX_POINT('',#1378);
#1380=CARTESIAN_POINT('',(4.,39.,6.25));
#1381=DIRECTION('',(0.,0.,-1.));
#1382=VECTOR('',#1381,4.25);
#1383=LINE('',#1380,#1382);
#1384=EDGE_CURVE('',#1282,#1379,#1383,.T.);
#1385=ORIENTED_EDGE('',*,*,#1384,.T.);
#1386=CARTESIAN_POINT('',(14.3,39.,2.));
#1387=VERTEX_POINT('',#1386);
#1388=CARTESIAN_POINT('',(4.,39.,2.));
#1389=DIRECTION('',(1.,0.,0.));
#1390=VECTOR('',#1389,10.3);
#1391=LINE('',#1388,#1390);
#1392=EDGE_CURVE('',#1379,#1387,#1391,.T.);
#1393=ORIENTED_EDGE('',*,*,#1392,.T.);
#1394=CARTESIAN_POINT('',(14.3,39.,2.));
#1395=DIRECTION('',(-0.,0.,1.));
#1396=VECTOR('',#1395,3.25);
#1397=LINE('',#1394,#1396);
#1398=EDGE_CURVE('',#1387,#1314,#1397,.T.);
#1399=ORIENTED_EDGE('',*,*,#1398,.T.);
#1400=ORIENTED_EDGE('',*,*,#1320,.T.);
#1401=ORIENTED_EDGE('',*,*,#1223,.F.);
#1402=ORIENTED_EDGE('',*,*,#1192,.T.);
#1403=ORIENTED_EDGE('',*,*,#1293,.F.);
#1404=EDGE_LOOP('',(#1385,#1393,#1399,#1400,#1401,#1402,#1403));
#1405=FACE_BOUND('',#1404,.T.);
#1406=ADVANCED_FACE('',(#1405),#1377,.F.);
#1407=CARTESIAN_POINT('',(9.15,41.,3.375));
#1408=DIRECTION('',(0.,1.,0.));
#1409=DIRECTION('',(0.,0.,-1.));
#1410=AXIS2_PLACEMENT_3D('',#1407,#1408,#1409);
#1411=PLANE('',#1410);
#1412=CARTESIAN_POINT('',(14.3,41.,2.));
#1413=VERTEX_POINT('',#1412);
#1414=CARTESIAN_POINT('',(14.3,41.,2.));
#1415=DIRECTION('',(-0.,0.,1.));
#1416=VECTOR('',#1415,3.25);
#1417=LINE('',#1414,#1416);
#1418=EDGE_CURVE('',#1413,#1304,#1417,.T.);
#1419=ORIENTED_EDGE('',*,*,#1418,.F.);
#1420=CARTESIAN_POINT('',(4.,41.,2.));
#1421=VERTEX_POINT('',#1420);
#1422=CARTESIAN_POINT('',(4.,41.,2.));
#1423=DIRECTION('',(1.,0.,0.));
#1424=VECTOR('',#1423,10.3);
#1425=LINE('',#1422,#1424);
#1426=EDGE_CURVE('',#1421,#1413,#1425,.T.);
#1427=ORIENTED_EDGE('',*,*,#1426,.F.);
#1428=CARTESIAN_POINT('',(4.,41.,6.25));
#1429=DIRECTION('',(0.,0.,-1.));
#1430=VECTOR('',#1429,4.25);
#1431=LINE('',#1428,#1430);
#1432=EDGE_CURVE('',#1274,#1421,#1431,.T.);
#1433=ORIENTED_EDGE('',*,*,#1432,.F.);
#1434=ORIENTED_EDGE('',*,*,#1279,.T.);
#1435=ORIENTED_EDGE('',*,*,#1175,.T.);
#1436=ORIENTED_EDGE('',*,*,#1214,.T.);
#1437=ORIENTED_EDGE('',*,*,#1310,.T.);
#1438=EDGE_LOOP('',(#1419,#1427,#1433,#1434,#1435,#1436,#1437));
#1439=FACE_BOUND('',#1438,.T.);
#1440=ADVANCED_FACE('',(#1439),#1411,.T.);
#1441=CARTESIAN_POINT('',(8.15,44.,0.));
#1442=DIRECTION('',(0.,-1.,0.));
#1443=DIRECTION('',(-0.,0.,1.));
#1444=AXIS2_PLACEMENT_3D('',#1441,#1442,#1443);
#1445=PLANE('',#1444);
#1446=CARTESIAN_POINT('',(14.3,44.,2.));
#1447=VERTEX_POINT('',#1446);
#1448=CARTESIAN_POINT('',(16.3,44.,2.));
#1449=VERTEX_POINT('',#1448);
#1450=CARTESIAN_POINT('',(14.3,44.,2.));
#1451=DIRECTION('',(1.,0.,0.));
#1452=VECTOR('',#1451,2.);
#1453=LINE('',#1450,#1452);
#1454=EDGE_CURVE('',#1447,#1449,#1453,.T.);
#1455=ORIENTED_EDGE('',*,*,#1454,.F.);
#1456=CARTESIAN_POINT('',(14.3,44.,2.));
#1457=DIRECTION('',(-0.,0.,1.));
#1458=VECTOR('',#1457,1.75);
#1459=LINE('',#1456,#1458);
#1460=EDGE_CURVE('',#1447,#1339,#1459,.T.);
#1461=ORIENTED_EDGE('',*,*,#1460,.T.);
#1462=ORIENTED_EDGE('',*,*,#1368,.T.);
#1463=CARTESIAN_POINT('',(16.3,44.,2.));
#1464=DIRECTION('',(-0.,0.,1.));
#1465=VECTOR('',#1464,1.75);
#1466=LINE('',#1463,#1465);
#1467=EDGE_CURVE('',#1449,#1356,#1466,.T.);
#1468=ORIENTED_EDGE('',*,*,#1467,.F.);
#1469=EDGE_LOOP('',(#1455,#1461,#1462,#1468));
#1470=FACE_BOUND('',#1469,.T.);
#1471=ADVANCED_FACE('',(#1470),#1445,.F.);
#1472=CARTESIAN_POINT('',(8.15,44.,0.));
#1473=DIRECTION('',(0.,-1.,0.));
#1474=DIRECTION('',(-0.,0.,1.));
#1475=AXIS2_PLACEMENT_3D('',#1472,#1473,#1474);
#1476=PLANE('',#1475);
#1477=CARTESIAN_POINT('',(2.,44.,2.));
#1478=VERTEX_POINT('',#1477);
#1479=CARTESIAN_POINT('',(4.,44.,2.));
#1480=VERTEX_POINT('',#1479);
#1481=CARTESIAN_POINT('',(2.,44.,2.));
#1482=DIRECTION('',(1.,0.,0.));
#1483=VECTOR('',#1482,2.);
#1484=LINE('',#1481,#1483);
#1485=EDGE_CURVE('',#1478,#1480,#1484,.T.);
#1486=ORIENTED_EDGE('',*,*,#1485,.F.);
#1487=CARTESIAN_POINT('',(2.,44.,3.75));
#1488=DIRECTION('',(0.,0.,-1.));
#1489=VECTOR('',#1488,1.75);
#1490=LINE('',#1487,#1489);
#1491=EDGE_CURVE('',#1240,#1478,#1490,.T.);
#1492=ORIENTED_EDGE('',*,*,#1491,.F.);
#1493=ORIENTED_EDGE('',*,*,#1262,.T.);
#1494=CARTESIAN_POINT('',(4.,44.,3.75));
#1495=DIRECTION('',(0.,0.,-1.));
#1496=VECTOR('',#1495,1.75);
#1497=LINE('',#1494,#1496);
#1498=EDGE_CURVE('',#1250,#1480,#1497,.T.);
#1499=ORIENTED_EDGE('',*,*,#1498,.T.);
#1500=EDGE_LOOP('',(#1486,#1492,#1493,#1499));
#1501=FACE_BOUND('',#1500,.T.);
#1502=ADVANCED_FACE('',(#1501),#1476,.F.);
#1503=CARTESIAN_POINT('',(3.15,17.,1.));
#1504=DIRECTION('',(0.,1.,0.));
#1505=DIRECTION('',(0.,0.,-1.));
#1506=AXIS2_PLACEMENT_3D('',#1503,#1504,#1505);
#1507=PLANE('',#1506);
#1508=CARTESIAN_POINT('',(2.,17.,5.25));
#1509=VERTEX_POINT('',#1508);
#1510=CARTESIAN_POINT('',(1.5,17.,4.75));
#1511=VERTEX_POINT('',#1510);
#1512=CARTESIAN_POINT('',(2.,17.,4.75));
#1513=DIRECTION('',(-0.,-1.,-0.));
#1514=DIRECTION('',(0.,0.,-1.));
#1515=AXIS2_PLACEMENT_3D('',#1512,#1513,#1514);
#1516=CIRCLE('',#1515,0.5);
#1517=EDGE_CURVE('',#1509,#1511,#1516,.T.);
#1518=ORIENTED_EDGE('',*,*,#1517,.T.);
#1519=CARTESIAN_POINT('',(2.,17.,4.25));
#1520=VERTEX_POINT('',#1519);
#1521=CARTESIAN_POINT('',(2.,17.,4.75));
#1522=DIRECTION('',(-0.,-1.,-0.));
#1523=DIRECTION('',(0.,0.,-1.));
#1524=AXIS2_PLACEMENT_3D('',#1521,#1522,#1523);
#1525=CIRCLE('',#1524,0.5);
#1526=EDGE_CURVE('',#1511,#1520,#1525,.T.);
#1527=ORIENTED_EDGE('',*,*,#1526,.T.);
#1528=CARTESIAN_POINT('',(2.,17.,5.25));
#1529=DIRECTION('',(0.,0.,-1.));
#1530=VECTOR('',#1529,1.);
#1531=LINE('',#1528,#1530);
#1532=EDGE_CURVE('',#1509,#1520,#1531,.T.);
#1533=ORIENTED_EDGE('',*,*,#1532,.F.);
#1534=EDGE_LOOP('',(#1518,#1527,#1533));
#1535=FACE_BOUND('',#1534,.T.);
#1536=ADVANCED_FACE('',(#1535),#1507,.F.);
#1537=CARTESIAN_POINT('',(3.15,27.,1.));
#1538=DIRECTION('',(0.,1.,0.));
#1539=DIRECTION('',(0.,0.,-1.));
#1540=AXIS2_PLACEMENT_3D('',#1537,#1538,#1539);
#1541=PLANE('',#1540);
#1542=CARTESIAN_POINT('',(2.,27.,5.25));
#1543=VERTEX_POINT('',#1542);
#1544=CARTESIAN_POINT('',(2.,27.,4.25));
#1545=VERTEX_POINT('',#1544);
#1546=CARTESIAN_POINT('',(2.,27.,5.25));
#1547=DIRECTION('',(0.,0.,-1.));
#1548=VECTOR('',#1547,1.);
#1549=LINE('',#1546,#1548);
#1550=EDGE_CURVE('',#1543,#1545,#1549,.T.);
#1551=ORIENTED_EDGE('',*,*,#1550,.T.);
#1552=CARTESIAN_POINT('',(1.5,27.,4.75));
#1553=VERTEX_POINT('',#1552);
#1554=CARTESIAN_POINT('',(2.,27.,4.75));
#1555=DIRECTION('',(0.,1.,0.));
#1556=DIRECTION('',(0.,0.,-1.));
#1557=AXIS2_PLACEMENT_3D('',#1554,#1555,#1556);
#1558=CIRCLE('',#1557,0.5);
#1559=EDGE_CURVE('',#1545,#1553,#1558,.T.);
#1560=ORIENTED_EDGE('',*,*,#1559,.T.);
#1561=CARTESIAN_POINT('',(2.,27.,4.75));
#1562=DIRECTION('',(0.,1.,0.));
#1563=DIRECTION('',(0.,0.,-1.));
#1564=AXIS2_PLACEMENT_3D('',#1561,#1562,#1563);
#1565=CIRCLE('',#1564,0.5);
#1566=EDGE_CURVE('',#1553,#1543,#1565,.T.);
#1567=ORIENTED_EDGE('',*,*,#1566,.T.);
#1568=EDGE_LOOP('',(#1551,#1560,#1567));
#1569=FACE_BOUND('',#1568,.T.);
#1570=ADVANCED_FACE('',(#1569),#1541,.T.);
#1571=CARTESIAN_POINT('',(2.,22.,3.375));
#1572=DIRECTION('',(-1.,0.,-0.));
#1573=DIRECTION('',(0.,1.,0.));
#1574=AXIS2_PLACEMENT_3D('',#1571,#1572,#1573);
#1575=PLANE('',#1574);
#1576=ORIENTED_EDGE('',*,*,#1491,.T.);
#1577=CARTESIAN_POINT('',(2.,44.,2.));
#1578=DIRECTION('',(-0.,-1.,-0.));
#1579=VECTOR('',#1578,43.8);
#1580=LINE('',#1577,#1579);
#1581=EDGE_CURVE('',#1478,#1023,#1580,.T.);
#1582=ORIENTED_EDGE('',*,*,#1581,.T.);
#1583=ORIENTED_EDGE('',*,*,#1041,.T.);
#1584=ORIENTED_EDGE('',*,*,#962,.T.);
#1585=ORIENTED_EDGE('',*,*,#792,.T.);
#1586=ORIENTED_EDGE('',*,*,#1246,.T.);
#1587=EDGE_LOOP('',(#1576,#1582,#1583,#1584,#1585,#1586));
#1588=FACE_BOUND('',#1587,.T.);
#1589=CARTESIAN_POINT('',(2.,17.,4.25));
#1590=DIRECTION('',(0.,1.,0.));
#1591=VECTOR('',#1590,10.);
#1592=LINE('',#1589,#1591);
#1593=EDGE_CURVE('',#1520,#1545,#1592,.T.);
#1594=ORIENTED_EDGE('',*,*,#1593,.T.);
#1595=ORIENTED_EDGE('',*,*,#1550,.F.);
#1596=CARTESIAN_POINT('',(2.,17.,5.25));
#1597=DIRECTION('',(0.,1.,0.));
#1598=VECTOR('',#1597,10.);
#1599=LINE('',#1596,#1598);
#1600=EDGE_CURVE('',#1509,#1543,#1599,.T.);
#1601=ORIENTED_EDGE('',*,*,#1600,.F.);
#1602=ORIENTED_EDGE('',*,*,#1532,.T.);
#1603=EDGE_LOOP('',(#1594,#1595,#1601,#1602));
#1604=FACE_BOUND('',#1603,.T.);
#1605=ADVANCED_FACE('',(#1588,#1604),#1575,.T.);
#1606=CARTESIAN_POINT('',(4.,22.,3.375));
#1607=DIRECTION('',(-1.,0.,-0.));
#1608=DIRECTION('',(0.,1.,0.));
#1609=AXIS2_PLACEMENT_3D('',#1606,#1607,#1608);
#1610=PLANE('',#1609);
#1611=CARTESIAN_POINT('',(4.,5.,2.));
#1612=DIRECTION('',(0.,1.,0.));
#1613=VECTOR('',#1612,34.);
#1614=LINE('',#1611,#1613);
#1615=EDGE_CURVE('',#1141,#1379,#1614,.T.);
#1616=ORIENTED_EDGE('',*,*,#1615,.T.);
#1617=ORIENTED_EDGE('',*,*,#1384,.F.);
#1618=ORIENTED_EDGE('',*,*,#1287,.T.);
#1619=ORIENTED_EDGE('',*,*,#1432,.T.);
#1620=CARTESIAN_POINT('',(4.,44.,2.));
#1621=DIRECTION('',(-0.,-1.,-0.));
#1622=VECTOR('',#1621,3.);
#1623=LINE('',#1620,#1622);
#1624=EDGE_CURVE('',#1480,#1421,#1623,.T.);
#1625=ORIENTED_EDGE('',*,*,#1624,.F.);
#1626=ORIENTED_EDGE('',*,*,#1498,.F.);
#1627=ORIENTED_EDGE('',*,*,#1256,.T.);
#1628=ORIENTED_EDGE('',*,*,#776,.F.);
#1629=ORIENTED_EDGE('',*,*,#952,.T.);
#1630=ORIENTED_EDGE('',*,*,#1034,.F.);
#1631=CARTESIAN_POINT('',(4.,1.25,2.));
#1632=VERTEX_POINT('',#1631);
#1633=CARTESIAN_POINT('',(4.,1.25,2.));
#1634=DIRECTION('',(-0.,-1.,-0.));
#1635=VECTOR('',#1634,1.05);
#1636=LINE('',#1633,#1635);
#1637=EDGE_CURVE('',#1632,#1021,#1636,.T.);
#1638=ORIENTED_EDGE('',*,*,#1637,.F.);
#1639=CARTESIAN_POINT('',(4.,3.,2.));
#1640=DIRECTION('',(-0.,-1.,-0.));
#1641=VECTOR('',#1640,1.75);
#1642=LINE('',#1639,#1641);
#1643=EDGE_CURVE('',#1052,#1632,#1642,.T.);
#1644=ORIENTED_EDGE('',*,*,#1643,.F.);
#1645=ORIENTED_EDGE('',*,*,#1091,.T.);
#1646=ORIENTED_EDGE('',*,*,#929,.T.);
#1647=ORIENTED_EDGE('',*,*,#1152,.F.);
#1648=EDGE_LOOP('',(#1616,#1617,#1618,#1619,#1625,#1626,#1627,#1628,#1629,#1630,#1638,#1644,#1645,#1646,#1647));
#1649=FACE_BOUND('',#1648,.T.);
#1650=ADVANCED_FACE('',(#1649),#1610,.F.);
#1651=CARTESIAN_POINT('',(16.3,0.,6.75));
#1652=DIRECTION('',(0.,0.,-1.));
#1653=DIRECTION('',(-1.,0.,-0.));
#1654=AXIS2_PLACEMENT_3D('',#1651,#1652,#1653);
#1655=PLANE('',#1654);
#1656=CARTESIAN_POINT('',(14.3,41.,6.75));
#1657=DIRECTION('',(0.,-1.,0.));
#1658=VECTOR('',#1657,37.8);
#1659=LINE('',#1656,#1658);
#1660=EDGE_CURVE('',#1337,#990,#1659,.T.);
#1661=ORIENTED_EDGE('',*,*,#1660,.T.);
#1662=ORIENTED_EDGE('',*,*,#995,.T.);
#1663=CARTESIAN_POINT('',(16.3,3.2,6.75));
#1664=DIRECTION('',(0.,1.,0.));
#1665=VECTOR('',#1664,37.8);
#1666=LINE('',#1663,#1665);
#1667=EDGE_CURVE('',#979,#1348,#1666,.T.);
#1668=ORIENTED_EDGE('',*,*,#1667,.T.);
#1669=ORIENTED_EDGE('',*,*,#1353,.T.);
#1670=EDGE_LOOP('',(#1661,#1662,#1668,#1669));
#1671=FACE_BOUND('',#1670,.T.);
#1672=ADVANCED_FACE('',(#1671),#1655,.F.);
#1673=CARTESIAN_POINT('',(14.3,22.,3.375));
#1674=DIRECTION('',(1.,0.,0.));
#1675=DIRECTION('',(0.,0.,-1.));
#1676=AXIS2_PLACEMENT_3D('',#1673,#1674,#1675);
#1677=PLANE('',#1676);
#1678=CARTESIAN_POINT('',(14.3,39.,2.));
#1679=DIRECTION('',(0.,-1.,0.));
#1680=VECTOR('',#1679,34.);
#1681=LINE('',#1678,#1680);
#1682=EDGE_CURVE('',#1387,#1133,#1681,.T.);
#1683=ORIENTED_EDGE('',*,*,#1682,.T.);
#1684=ORIENTED_EDGE('',*,*,#1138,.F.);
#1685=ORIENTED_EDGE('',*,*,#904,.T.);
#1686=ORIENTED_EDGE('',*,*,#1081,.T.);
#1687=CARTESIAN_POINT('',(14.3,1.25,2.));
#1688=VERTEX_POINT('',#1687);
#1689=CARTESIAN_POINT('',(14.3,1.25,2.));
#1690=DIRECTION('',(0.,1.,0.));
#1691=VECTOR('',#1690,1.75);
#1692=LINE('',#1689,#1691);
#1693=EDGE_CURVE('',#1688,#1070,#1692,.T.);
#1694=ORIENTED_EDGE('',*,*,#1693,.F.);
#1695=CARTESIAN_POINT('',(14.3,0.2,2.));
#1696=DIRECTION('',(0.,1.,0.));
#1697=VECTOR('',#1696,1.05);
#1698=LINE('',#1695,#1697);
#1699=EDGE_CURVE('',#1104,#1688,#1698,.T.);
#1700=ORIENTED_EDGE('',*,*,#1699,.F.);
#1701=ORIENTED_EDGE('',*,*,#1122,.F.);
#1702=ORIENTED_EDGE('',*,*,#1004,.T.);
#1703=ORIENTED_EDGE('',*,*,#1660,.F.);
#1704=ORIENTED_EDGE('',*,*,#1345,.T.);
#1705=ORIENTED_EDGE('',*,*,#1460,.F.);
#1706=CARTESIAN_POINT('',(14.3,41.,2.));
#1707=DIRECTION('',(0.,1.,0.));
#1708=VECTOR('',#1707,3.);
#1709=LINE('',#1706,#1708);
#1710=EDGE_CURVE('',#1413,#1447,#1709,.T.);
#1711=ORIENTED_EDGE('',*,*,#1710,.F.);
#1712=ORIENTED_EDGE('',*,*,#1418,.T.);
#1713=ORIENTED_EDGE('',*,*,#1326,.T.);
#1714=ORIENTED_EDGE('',*,*,#1398,.F.);
#1715=EDGE_LOOP('',(#1683,#1684,#1685,#1686,#1694,#1700,#1701,#1702,#1703,#1704,#1705,#1711,#1712,#1713,#1714));
#1716=FACE_BOUND('',#1715,.T.);
#1717=ADVANCED_FACE('',(#1716),#1677,.F.);
#1718=CARTESIAN_POINT('',(16.3,0.,0.));
#1719=DIRECTION('',(1.,0.,0.));
#1720=DIRECTION('',(0.,0.,-1.));
#1721=AXIS2_PLACEMENT_3D('',#1718,#1719,#1720);
#1722=PLANE('',#1721);
#1723=ORIENTED_EDGE('',*,*,#1667,.F.);
#1724=ORIENTED_EDGE('',*,*,#987,.T.);
#1725=ORIENTED_EDGE('',*,*,#1115,.F.);
#1726=CARTESIAN_POINT('',(16.3,0.2,2.));
#1727=DIRECTION('',(0.,1.,0.));
#1728=VECTOR('',#1727,43.8);
#1729=LINE('',#1726,#1728);
#1730=EDGE_CURVE('',#1102,#1449,#1729,.T.);
#1731=ORIENTED_EDGE('',*,*,#1730,.T.);
#1732=ORIENTED_EDGE('',*,*,#1467,.T.);
#1733=ORIENTED_EDGE('',*,*,#1362,.T.);
#1734=EDGE_LOOP('',(#1723,#1724,#1725,#1731,#1732,#1733));
#1735=FACE_BOUND('',#1734,.T.);
#1736=ADVANCED_FACE('',(#1735),#1722,.T.);
#1737=CARTESIAN_POINT('',(16.3,0.,2.));
#1738=DIRECTION('',(0.,0.,-1.));
#1739=DIRECTION('',(-1.,0.,-0.));
#1740=AXIS2_PLACEMENT_3D('',#1737,#1738,#1739);
#1741=PLANE('',#1740);
#1742=ORIENTED_EDGE('',*,*,#1454,.T.);
#1743=ORIENTED_EDGE('',*,*,#1730,.F.);
#1744=ORIENTED_EDGE('',*,*,#1109,.T.);
#1745=ORIENTED_EDGE('',*,*,#1699,.T.);
#1746=ORIENTED_EDGE('',*,*,#1693,.T.);
#1747=ORIENTED_EDGE('',*,*,#1075,.F.);
#1748=ORIENTED_EDGE('',*,*,#1067,.F.);
#1749=ORIENTED_EDGE('',*,*,#1059,.F.);
#1750=ORIENTED_EDGE('',*,*,#1643,.T.);
#1751=ORIENTED_EDGE('',*,*,#1637,.T.);
#1752=ORIENTED_EDGE('',*,*,#1028,.T.);
#1753=ORIENTED_EDGE('',*,*,#1581,.F.);
#1754=ORIENTED_EDGE('',*,*,#1485,.T.);
#1755=ORIENTED_EDGE('',*,*,#1624,.T.);
#1756=ORIENTED_EDGE('',*,*,#1426,.T.);
#1757=ORIENTED_EDGE('',*,*,#1710,.T.);
#1758=EDGE_LOOP('',(#1742,#1743,#1744,#1745,#1746,#1747,#1748,#1749,#1750,#1751,#1752,#1753,#1754,#1755,#1756,#1757));
#1759=FACE_BOUND('',#1758,.T.);
#1760=ORIENTED_EDGE('',*,*,#1682,.F.);
#1761=ORIENTED_EDGE('',*,*,#1392,.F.);
#1762=ORIENTED_EDGE('',*,*,#1615,.F.);
#1763=ORIENTED_EDGE('',*,*,#1146,.F.);
#1764=EDGE_LOOP('',(#1760,#1761,#1762,#1763));
#1765=FACE_BOUND('',#1764,.T.);
#1766=ADVANCED_FACE('',(#1759,#1765),#1741,.T.);
#1767=CARTESIAN_POINT('',(2.,22.,4.75));
#1768=DIRECTION('',(0.,1.,0.));
#1769=DIRECTION('',(1.,-0.,0.));
#1770=AXIS2_PLACEMENT_3D('',#1767,#1768,#1769);
#1771=CYLINDRICAL_SURFACE('',#1770,0.5);
#1772=ORIENTED_EDGE('',*,*,#1517,.F.);
#1773=ORIENTED_EDGE('',*,*,#1600,.T.);
#1774=ORIENTED_EDGE('',*,*,#1566,.F.);
#1775=CARTESIAN_POINT('',(1.5,17.,4.75));
#1776=DIRECTION('',(0.,1.,0.));
#1777=VECTOR('',#1776,10.);
#1778=LINE('',#1775,#1777);
#1779=EDGE_CURVE('',#1511,#1553,#1778,.T.);
#1780=ORIENTED_EDGE('',*,*,#1779,.F.);
#1781=EDGE_LOOP('',(#1772,#1773,#1774,#1780));
#1782=FACE_BOUND('',#1781,.T.);
#1783=ADVANCED_FACE('',(#1782),#1771,.T.);
#1784=CARTESIAN_POINT('',(2.,22.,4.75));
#1785=DIRECTION('',(-0.,-1.,-0.));
#1786=DIRECTION('',(-1.,0.,-0.));
#1787=AXIS2_PLACEMENT_3D('',#1784,#1785,#1786);
#1788=CYLINDRICAL_SURFACE('',#1787,0.5);
#1789=ORIENTED_EDGE('',*,*,#1526,.F.);
#1790=ORIENTED_EDGE('',*,*,#1779,.T.);
#1791=ORIENTED_EDGE('',*,*,#1559,.F.);
#1792=ORIENTED_EDGE('',*,*,#1593,.F.);
#1793=EDGE_LOOP('',(#1789,#1790,#1791,#1792));
#1794=FACE_BOUND('',#1793,.T.);
#1795=ADVANCED_FACE('',(#1794),#1788,.T.);
#1796=CLOSED_SHELL('',(#802,#842,#875,#908,#939,#972,#1014,#1045,#1095,#1126,#1160,#1202,#1233,#1266,#1297,#1330,#1372,#1406,#1440,#1471,#1502,#1536,#1570,#1605,#1650,#1672,
#1717,#1736,#1766,#1783,#1795));
#1797=MANIFOLD_SOLID_BREP('bottom',#1796);
#762=STYLED_ITEM('',(#761),#1797);
#16=SHAPE_REPRESENTATION('root',(#15),#10);
#17=ADVANCED_BREP_SHAPE_REPRESENTATION('root',(#754,#1797),#10);
#1805=SHAPE_REPRESENTATION_RELATIONSHIP('','',#16,#17);
#1806=CARTESIAN_POINT('',(0.,0.,0.));
#1807=DIRECTION('',(0.,0.,1.));
#1808=DIRECTION('',(1.,0.,0.));
#1809=AXIS2_PLACEMENT_3D('',#1806,#1807,#1808);
#1811=MAPPED_ITEM('',#1810,#1809);
#1810=REPRESENTATION_MAP(#1809,#16);
#1812=APPLICATION_CONTEXT('Managed model based 3d engineering');
#1813=APPLICATION_PROTOCOL_DEFINITION('international standard','ap242_managed_model_based_3d_engineering',2014,#1812);
#1814=PRODUCT_CONTEXT('',#1812,'mechanical');
#1815=PRODUCT_DEFINITION_CONTEXT('part definition',#1812,'design');
#24=PRODUCT('root','root','',(#1814));
#1816=PRODUCT_RELATED_PRODUCT_CATEGORY('part','',(#24));
#1817=PRODUCT_DEFINITION_FORMATION_WITH_SPECIFIED_SOURCE('','',#24,.NOT_KNOWN.);
#25=PRODUCT_DEFINITION('design','',#1817,#1815);
#23=PRODUCT_DEFINITION_SHAPE('','',#25);
#1818=SHAPE_DEFINITION_REPRESENTATION(#23,#16);
#11=DRAUGHTING_MODEL('',(#1811),#10);
#1819=DESCRIPTIVE_REPRESENTATION_ITEM('KEY','/Users/hrushka/Library/Containers/com.shapr3d.shapr/Data/tmp/E48B90C6-333E-4BB7-990A-F84B1AE04CD3.tmp');
#1820=PROPERTY_DEFINITION('KEY','',#25);
#1821=REPRESENTATION('',(#1819),#10);
#1822=PROPERTY_DEFINITION_REPRESENTATION(#1820,#1821);
#1823=GENERAL_PROPERTY('','KEY','');
#1824=GENERAL_PROPERTY_ASSOCIATION('','',#1823,#1820);
#1=MECHANICAL_DESIGN_GEOMETRIC_PRESENTATION_REPRESENTATION('',(#26,#762),#10);
ENDSEC;
END-ISO-10303-21;
