ISO-10303-21;
HEADER;

/* File generated by Shapr3D Version 26.143.0.11521 */

FILE_DESCRIPTION(('HOOPS Exchange Step'),'2;1');

FILE_NAME('/Users/hrushka/Library/Containers/com.shapr3d.shapr/Data/tmp/export/temp_export',
'2026-09-26T16:54:42-07:00',
('hrushka'),
('Shapr3D Limited'),
'HOOPS Exchange 2026.3',
'Shapr3D',
'Authorized');

FILE_SCHEMA( ('AP242_MANAGED_MODEL_BASED_3D_ENGINEERING_MIM_LF {1 0 10303 442 1 1 4}') );

ENDSEC;

DATA;
#3=(NAMED_UNIT(*)PLANE_ANGLE_UNIT()SI_UNIT($,.RADIAN.));
#4=PLANE_ANGLE_MEASURE_WITH_UNIT(PLANE_ANGLE_MEASURE(0.0174532925),#3);
#5=(CONVERSION_BASED_UNIT('DEGREE',#4)NAMED_UNIT(#6)PLANE_ANGLE_UNIT());
#6=DIMENSIONAL_EXPONENTS(0.,0.,0.,0.,0.,0.,0.);
#7=(NAMED_UNIT(*)SI_UNIT($,.STERADIAN.)SOLID_ANGLE_UNIT());
#8=(LENGTH_UNIT()NAMED_UNIT(*)SI_UNIT(.MILLI.,.METRE.));
#9=UNCERTAINTY_MEASURE_WITH_UNIT(LENGTH_MEASURE(1.000000E-05),#8,'DISTANCE_ACCURACY_VALUE','Maximum Tolerance applied to model');
#10=(GEOMETRIC_REPRESENTATION_CONTEXT(3)GLOBAL_UNCERTAINTY_ASSIGNED_CONTEXT((#9))GLOBAL_UNIT_ASSIGNED_CONTEXT((#8,#5,#7))REPRESENTATION_CONTEXT('','root'));
#12=CARTESIAN_POINT('',(0.,0.,0.));
#13=DIRECTION('',(0.,0.,1.));
#14=DIRECTION('',(1.,0.,0.));
#15=AXIS2_PLACEMENT_3D('TS3D_PRODUCT_CSYS',#12,#13,#14);
#27=CARTESIAN_POINT('',(12.,1.75,2.));
#28=DIRECTION('',(0.,1.,0.));
#29=DIRECTION('',(-1.,0.,0.));
#30=AXIS2_PLACEMENT_3D('',#27,#28,#29);
#31=PLANE('',#30);
#32=CARTESIAN_POINT('',(14.5,1.75,2.3));
#33=VERTEX_POINT('',#32);
#34=CARTESIAN_POINT('',(9.5,1.75,2.3));
#35=VERTEX_POINT('',#34);
#36=CARTESIAN_POINT('',(14.5,1.75,2.3));
#37=DIRECTION('',(-1.,0.,0.));
#38=VECTOR('',#37,5.);
#39=LINE('',#36,#38);
#40=EDGE_CURVE('',#33,#35,#39,.T.);
#41=ORIENTED_EDGE('',*,*,#40,.T.);
#42=CARTESIAN_POINT('',(9.5,1.75,2.));
#43=VERTEX_POINT('',#42);
#44=CARTESIAN_POINT('',(9.5,1.75,2.));
#45=DIRECTION('',(0.,0.,1.));
#46=VECTOR('',#45,0.3);
#47=LINE('',#44,#46);
#48=EDGE_CURVE('',#43,#35,#47,.T.);
#49=ORIENTED_EDGE('',*,*,#48,.F.);
#50=CARTESIAN_POINT('',(14.5,1.75,2.));
#51=VERTEX_POINT('',#50);
#52=CARTESIAN_POINT('',(14.5,1.75,2.));
#53=DIRECTION('',(-1.,0.,0.));
#54=VECTOR('',#53,5.);
#55=LINE('',#52,#54);
#56=EDGE_CURVE('',#51,#43,#55,.T.);
#57=ORIENTED_EDGE('',*,*,#56,.F.);
#58=CARTESIAN_POINT('',(14.5,1.75,2.));
#59=DIRECTION('',(0.,0.,1.));
#60=VECTOR('',#59,0.3);
#61=LINE('',#58,#60);
#62=EDGE_CURVE('',#51,#33,#61,.T.);
#63=ORIENTED_EDGE('',*,*,#62,.T.);
#64=EDGE_LOOP('',(#41,#49,#57,#63));
#65=FACE_BOUND('',#64,.T.);
#66=ADVANCED_FACE('',(#65),#31,.F.);
#67=CARTESIAN_POINT('',(14.5,4.3,2.));
#68=DIRECTION('',(-1.,0.,0.));
#69=DIRECTION('',(0.,0.,1.));
#70=AXIS2_PLACEMENT_3D('',#67,#68,#69);
#71=PLANE('',#70);
#72=CARTESIAN_POINT('',(14.5,4.15,2.));
#73=VERTEX_POINT('',#72);
#74=CARTESIAN_POINT('',(14.5,4.149013218,2.3));
#75=VERTEX_POINT('',#74);
#76=CARTESIAN_POINT('',(14.5,4.15,2.));
#77=DIRECTION('',(0.,0.,1.));
#78=VECTOR('',#77,0.3);
#79=LINE('',#76,#78);
#80=EDGE_CURVE('',#73,#75,#79,.T.);
#81=ORIENTED_EDGE('',*,*,#80,.T.);
#82=CARTESIAN_POINT('',(14.5,2.076794919,3.4));
#83=VERTEX_POINT('',#82);
#84=CARTESIAN_POINT('',(14.5,2.076794919,0.9));
#85=DIRECTION('',(1.,0.,0.));
#86=DIRECTION('',(0.,0.,-1.));
#87=AXIS2_PLACEMENT_3D('',#84,#85,#86);
#88=CIRCLE('',#87,2.5);
#89=EDGE_CURVE('',#75,#83,#88,.T.);
#90=ORIENTED_EDGE('',*,*,#89,.T.);
#91=CARTESIAN_POINT('',(14.5,1.776794919,3.4));
#92=VERTEX_POINT('',#91);
#93=CARTESIAN_POINT('',(14.5,2.076794919,3.4));
#94=DIRECTION('',(0.,-1.,0.));
#95=VECTOR('',#94,0.3);
#96=LINE('',#93,#95);
#97=EDGE_CURVE('',#83,#92,#96,.T.);
#98=ORIENTED_EDGE('',*,*,#97,.T.);
#99=CARTESIAN_POINT('',(14.5,0.776794919,2.4));
#100=VERTEX_POINT('',#99);
#101=CARTESIAN_POINT('',(14.5,1.776794919,2.4));
#102=DIRECTION('',(1.,0.,0.));
#103=DIRECTION('',(0.,0.,-1.));
#104=AXIS2_PLACEMENT_3D('',#101,#102,#103);
#105=CIRCLE('',#104,1.);
#106=EDGE_CURVE('',#92,#100,#105,.T.);
#107=ORIENTED_EDGE('',*,*,#106,.T.);
#108=CARTESIAN_POINT('',(14.5,0.95,2.3));
#109=VERTEX_POINT('',#108);
#110=CARTESIAN_POINT('',(14.5,0.95,2.5));
#111=DIRECTION('',(1.,0.,0.));
#112=DIRECTION('',(0.,0.,-1.));
#113=AXIS2_PLACEMENT_3D('',#110,#111,#112);
#114=CIRCLE('',#113,0.2);
#115=EDGE_CURVE('',#100,#109,#114,.T.);
#116=ORIENTED_EDGE('',*,*,#115,.T.);
#117=CARTESIAN_POINT('',(14.5,1.75,2.3));
#118=DIRECTION('',(0.,-1.,0.));
#119=VECTOR('',#118,0.8);
#120=LINE('',#117,#119);
#121=EDGE_CURVE('',#33,#109,#120,.T.);
#122=ORIENTED_EDGE('',*,*,#121,.F.);
#123=ORIENTED_EDGE('',*,*,#62,.F.);
#124=CARTESIAN_POINT('',(14.5,4.15,2.));
#125=DIRECTION('',(0.,-1.,0.));
#126=VECTOR('',#125,2.4);
#127=LINE('',#124,#126);
#128=EDGE_CURVE('',#73,#51,#127,.T.);
#129=ORIENTED_EDGE('',*,*,#128,.F.);
#130=EDGE_LOOP('',(#81,#90,#98,#107,#116,#122,#123,#129));
#131=FACE_BOUND('',#130,.T.);
#132=ADVANCED_FACE('',(#131),#71,.F.);
#133=CARTESIAN_POINT('',(12.,4.15,2.));
#134=DIRECTION('',(0.,-1.,0.));
#135=DIRECTION('',(0.,0.,-1.));
#136=AXIS2_PLACEMENT_3D('',#133,#134,#135);
#137=PLANE('',#136);
#138=CARTESIAN_POINT('',(9.5,4.149013218,2.3));
#139=VERTEX_POINT('',#138);
#140=CARTESIAN_POINT('',(9.5,4.15,2.3));
#141=DIRECTION('',(1.,0.,0.));
#142=VECTOR('',#141,5.);
#143=LINE('',#140,#142);
#144=EDGE_CURVE('',#139,#75,#143,.T.);
#145=ORIENTED_EDGE('',*,*,#144,.T.);
#146=ORIENTED_EDGE('',*,*,#80,.F.);
#147=CARTESIAN_POINT('',(9.5,4.15,2.));
#148=VERTEX_POINT('',#147);
#149=CARTESIAN_POINT('',(9.5,4.15,2.));
#150=DIRECTION('',(1.,0.,-0.));
#151=VECTOR('',#150,5.);
#152=LINE('',#149,#151);
#153=EDGE_CURVE('',#148,#73,#152,.T.);
#154=ORIENTED_EDGE('',*,*,#153,.F.);
#155=CARTESIAN_POINT('',(9.5,4.15,2.));
#156=DIRECTION('',(0.,0.,1.));
#157=VECTOR('',#156,0.3);
#158=LINE('',#155,#157);
#159=EDGE_CURVE('',#148,#139,#158,.T.);
#160=ORIENTED_EDGE('',*,*,#159,.T.);
#161=EDGE_LOOP('',(#145,#146,#154,#160));
#162=FACE_BOUND('',#161,.T.);
#163=ADVANCED_FACE('',(#162),#137,.F.);
#164=CARTESIAN_POINT('',(9.5,4.3,2.));
#165=DIRECTION('',(1.,0.,0.));
#166=DIRECTION('',(0.,0.,-1.));
#167=AXIS2_PLACEMENT_3D('',#164,#165,#166);
#168=PLANE('',#167);
#169=ORIENTED_EDGE('',*,*,#48,.T.);
#170=CARTESIAN_POINT('',(9.5,0.95,2.3));
#171=VERTEX_POINT('',#170);
#172=CARTESIAN_POINT('',(9.5,0.95,2.3));
#173=DIRECTION('',(-0.,1.,0.));
#174=VECTOR('',#173,0.8);
#175=LINE('',#172,#174);
#176=EDGE_CURVE('',#171,#35,#175,.T.);
#177=ORIENTED_EDGE('',*,*,#176,.F.);
#178=CARTESIAN_POINT('',(9.5,0.776794919,2.4));
#179=VERTEX_POINT('',#178);
#180=CARTESIAN_POINT('',(9.5,0.95,2.5));
#181=DIRECTION('',(-1.,0.,0.));
#182=DIRECTION('',(0.,0.,1.));
#183=AXIS2_PLACEMENT_3D('',#180,#181,#182);
#184=CIRCLE('',#183,0.2);
#185=EDGE_CURVE('',#171,#179,#184,.T.);
#186=ORIENTED_EDGE('',*,*,#185,.T.);
#187=CARTESIAN_POINT('',(9.5,1.776794919,3.4));
#188=VERTEX_POINT('',#187);
#189=CARTESIAN_POINT('',(9.5,1.776794919,2.4));
#190=DIRECTION('',(-1.,0.,0.));
#191=DIRECTION('',(0.,0.,1.));
#192=AXIS2_PLACEMENT_3D('',#189,#190,#191);
#193=CIRCLE('',#192,1.);
#194=EDGE_CURVE('',#179,#188,#193,.T.);
#195=ORIENTED_EDGE('',*,*,#194,.T.);
#196=CARTESIAN_POINT('',(9.5,2.076794919,3.4));
#197=VERTEX_POINT('',#196);
#198=CARTESIAN_POINT('',(9.5,1.776794919,3.4));
#199=DIRECTION('',(0.,1.,0.));
#200=VECTOR('',#199,0.3);
#201=LINE('',#198,#200);
#202=EDGE_CURVE('',#188,#197,#201,.T.);
#203=ORIENTED_EDGE('',*,*,#202,.T.);
#204=CARTESIAN_POINT('',(9.5,2.076794919,0.9));
#205=DIRECTION('',(-1.,0.,0.));
#206=DIRECTION('',(0.,0.,1.));
#207=AXIS2_PLACEMENT_3D('',#204,#205,#206);
#208=CIRCLE('',#207,2.5);
#209=EDGE_CURVE('',#197,#139,#208,.T.);
#210=ORIENTED_EDGE('',*,*,#209,.T.);
#211=ORIENTED_EDGE('',*,*,#159,.F.);
#212=CARTESIAN_POINT('',(9.5,1.75,2.));
#213=DIRECTION('',(0.,1.,0.));
#214=VECTOR('',#213,2.4);
#215=LINE('',#212,#214);
#216=EDGE_CURVE('',#43,#148,#215,.T.);
#217=ORIENTED_EDGE('',*,*,#216,.F.);
#218=EDGE_LOOP('',(#169,#177,#186,#195,#203,#210,#211,#217));
#219=FACE_BOUND('',#218,.T.);
#220=ADVANCED_FACE('',(#219),#168,.F.);
#221=CARTESIAN_POINT('',(0.,-0.35,2.));
#222=DIRECTION('',(0.,0.,1.));
#223=DIRECTION('',(1.,0.,0.));
#224=AXIS2_PLACEMENT_3D('',#221,#222,#223);
#225=PLANE('',#224);
#226=ORIENTED_EDGE('',*,*,#56,.T.);
#227=ORIENTED_EDGE('',*,*,#216,.T.);
#228=ORIENTED_EDGE('',*,*,#153,.T.);
#229=ORIENTED_EDGE('',*,*,#128,.T.);
#230=EDGE_LOOP('',(#226,#227,#228,#229));
#231=FACE_BOUND('',#230,.T.);
#232=ADVANCED_FACE('',(#231),#225,.F.);
#233=CARTESIAN_POINT('',(-15.5,-18.423205081,3.4));
#234=DIRECTION('',(0.,0.,1.));
#235=DIRECTION('',(1.,0.,0.));
#236=AXIS2_PLACEMENT_3D('',#233,#234,#235);
#237=PLANE('',#236);
#238=ORIENTED_EDGE('',*,*,#97,.F.);
#239=CARTESIAN_POINT('',(14.5,2.076794919,3.4));
#240=DIRECTION('',(-1.,0.,0.));
#241=VECTOR('',#240,5.);
#242=LINE('',#239,#241);
#243=EDGE_CURVE('',#83,#197,#242,.T.);
#244=ORIENTED_EDGE('',*,*,#243,.T.);
#245=ORIENTED_EDGE('',*,*,#202,.F.);
#246=CARTESIAN_POINT('',(9.5,1.776794919,3.4));
#247=DIRECTION('',(1.,-0.,-0.));
#248=VECTOR('',#247,5.);
#249=LINE('',#246,#248);
#250=EDGE_CURVE('',#188,#92,#249,.T.);
#251=ORIENTED_EDGE('',*,*,#250,.T.);
#252=EDGE_LOOP('',(#238,#244,#245,#251));
#253=FACE_BOUND('',#252,.T.);
#254=ADVANCED_FACE('',(#253),#237,.T.);
#255=CARTESIAN_POINT('',(-15.5,-18.423205081,2.3));
#256=DIRECTION('',(0.,0.,1.));
#257=DIRECTION('',(1.,0.,0.));
#258=AXIS2_PLACEMENT_3D('',#255,#256,#257);
#259=PLANE('',#258);
#260=ORIENTED_EDGE('',*,*,#40,.F.);
#261=ORIENTED_EDGE('',*,*,#121,.T.);
#262=CARTESIAN_POINT('',(14.5,0.95,2.3));
#263=DIRECTION('',(-1.,0.,0.));
#264=VECTOR('',#263,5.);
#265=LINE('',#262,#264);
#266=EDGE_CURVE('',#109,#171,#265,.T.);
#267=ORIENTED_EDGE('',*,*,#266,.T.);
#268=ORIENTED_EDGE('',*,*,#176,.T.);
#269=EDGE_LOOP('',(#260,#261,#267,#268));
#270=FACE_BOUND('',#269,.T.);
#271=ADVANCED_FACE('',(#270),#259,.F.);
#272=CARTESIAN_POINT('',(12.,1.776794919,2.4));
#273=DIRECTION('',(-1.,0.,0.));
#274=DIRECTION('',(0.,0.,1.));
#275=AXIS2_PLACEMENT_3D('',#272,#273,#274);
#276=CYLINDRICAL_SURFACE('',#275,1.);
#277=ORIENTED_EDGE('',*,*,#106,.F.);
#278=ORIENTED_EDGE('',*,*,#250,.F.);
#279=ORIENTED_EDGE('',*,*,#194,.F.);
#280=CARTESIAN_POINT('',(14.5,0.776794919,2.4));
#281=DIRECTION('',(-1.,0.,0.));
#282=VECTOR('',#281,5.);
#283=LINE('',#280,#282);
#284=EDGE_CURVE('',#100,#179,#283,.T.);
#285=ORIENTED_EDGE('',*,*,#284,.F.);
#286=EDGE_LOOP('',(#277,#278,#279,#285));
#287=FACE_BOUND('',#286,.T.);
#288=ADVANCED_FACE('',(#287),#276,.T.);
#289=CARTESIAN_POINT('',(-15.5,2.076794919,0.9));
#290=DIRECTION('',(-1.,0.,0.));
#291=DIRECTION('',(0.,0.,1.));
#292=AXIS2_PLACEMENT_3D('',#289,#290,#291);
#293=CYLINDRICAL_SURFACE('',#292,2.5);
#294=ORIENTED_EDGE('',*,*,#144,.F.);
#295=ORIENTED_EDGE('',*,*,#209,.F.);
#296=ORIENTED_EDGE('',*,*,#243,.F.);
#297=ORIENTED_EDGE('',*,*,#89,.F.);
#298=EDGE_LOOP('',(#294,#295,#296,#297));
#299=FACE_BOUND('',#298,.T.);
#300=ADVANCED_FACE('',(#299),#293,.T.);
#301=CARTESIAN_POINT('',(12.,0.95,2.5));
#302=DIRECTION('',(-1.,0.,0.));
#303=DIRECTION('',(0.,0.,1.));
#304=AXIS2_PLACEMENT_3D('',#301,#302,#303);
#305=CYLINDRICAL_SURFACE('',#304,0.2);
#306=ORIENTED_EDGE('',*,*,#115,.F.);
#307=ORIENTED_EDGE('',*,*,#284,.T.);
#308=ORIENTED_EDGE('',*,*,#185,.F.);
#309=ORIENTED_EDGE('',*,*,#266,.F.);
#310=EDGE_LOOP('',(#306,#307,#308,#309));
#311=FACE_BOUND('',#310,.T.);
#312=ADVANCED_FACE('',(#311),#305,.T.);
#313=CLOSED_SHELL('',(#66,#132,#163,#220,#232,#254,#271,#288,#300,#312));
#314=MANIFOLD_SOLID_BREP('Body 05',#313);
#315=COLOUR_RGB('',0.494117647,0.494117647,0.525490224);
#316=FILL_AREA_STYLE_COLOUR('',#315);
#317=FILL_AREA_STYLE('',(#316));
#318=SURFACE_STYLE_FILL_AREA(#317);
#319=SURFACE_SIDE_STYLE('',(#318));
#320=SURFACE_STYLE_USAGE(.BOTH.,#319);
#321=PRESENTATION_STYLE_ASSIGNMENT((#320));
#26=STYLED_ITEM('',(#321),#314);
#323=CARTESIAN_POINT('',(-22.8,1.1,2.3));
#324=DIRECTION('',(0.,0.,1.));
#325=DIRECTION('',(1.,0.,0.));
#326=AXIS2_PLACEMENT_3D('',#323,#324,#325);
#327=PLANE('',#326);
#328=CARTESIAN_POINT('',(2.2,21.3,2.3));
#329=VERTEX_POINT('',#328);
#330=CARTESIAN_POINT('',(7.2,21.3,2.3));
#331=VERTEX_POINT('',#330);
#332=CARTESIAN_POINT('',(2.2,21.3,2.3));
#333=DIRECTION('',(1.,0.,-0.));
#334=VECTOR('',#333,5.);
#335=LINE('',#332,#334);
#336=EDGE_CURVE('',#329,#331,#335,.T.);
#337=ORIENTED_EDGE('',*,*,#336,.F.);
#338=CARTESIAN_POINT('',(2.2,24.1,2.3));
#339=VERTEX_POINT('',#338);
#340=CARTESIAN_POINT('',(2.2,21.3,2.3));
#341=DIRECTION('',(0.,1.,0.));
#342=VECTOR('',#341,2.8);
#343=LINE('',#340,#342);
#344=EDGE_CURVE('',#329,#339,#343,.T.);
#345=ORIENTED_EDGE('',*,*,#344,.T.);
#346=CARTESIAN_POINT('',(7.2,24.1,2.3));
#347=VERTEX_POINT('',#346);
#348=CARTESIAN_POINT('',(2.2,24.1,2.3));
#349=DIRECTION('',(1.,0.,-0.));
#350=VECTOR('',#349,5.);
#351=LINE('',#348,#350);
#352=EDGE_CURVE('',#339,#347,#351,.T.);
#353=ORIENTED_EDGE('',*,*,#352,.T.);
#354=CARTESIAN_POINT('',(7.2,24.1,2.3));
#355=DIRECTION('',(0.,-1.,0.));
#356=VECTOR('',#355,2.8);
#357=LINE('',#354,#356);
#358=EDGE_CURVE('',#347,#331,#357,.T.);
#359=ORIENTED_EDGE('',*,*,#358,.T.);
#360=EDGE_LOOP('',(#337,#345,#353,#359));
#361=FACE_BOUND('',#360,.T.);
#362=ADVANCED_FACE('',(#361),#327,.F.);
#363=CARTESIAN_POINT('',(2.2,22.2,3.4));
#364=DIRECTION('',(-1.,0.,0.));
#365=DIRECTION('',(0.,0.,1.));
#366=AXIS2_PLACEMENT_3D('',#363,#364,#365);
#367=PLANE('',#366);
#368=CARTESIAN_POINT('',(2.2,20.3,2.4));
#369=VERTEX_POINT('',#368);
#370=CARTESIAN_POINT('',(2.2,20.3,2.));
#371=VERTEX_POINT('',#370);
#372=CARTESIAN_POINT('',(2.2,20.3,2.4));
#373=DIRECTION('',(0.,0.,-1.));
#374=VECTOR('',#373,0.4);
#375=LINE('',#372,#374);
#376=EDGE_CURVE('',#369,#371,#375,.T.);
#377=ORIENTED_EDGE('',*,*,#376,.F.);
#378=CARTESIAN_POINT('',(2.2,21.3,3.4));
#379=VERTEX_POINT('',#378);
#380=CARTESIAN_POINT('',(2.2,21.3,2.4));
#381=DIRECTION('',(-1.,0.,0.));
#382=DIRECTION('',(0.,0.,1.));
#383=AXIS2_PLACEMENT_3D('',#380,#381,#382);
#384=CIRCLE('',#383,1.);
#385=EDGE_CURVE('',#369,#379,#384,.T.);
#386=ORIENTED_EDGE('',*,*,#385,.T.);
#387=CARTESIAN_POINT('',(2.2,24.1,3.4));
#388=VERTEX_POINT('',#387);
#389=CARTESIAN_POINT('',(2.2,21.3,3.4));
#390=DIRECTION('',(0.,1.,0.));
#391=VECTOR('',#390,2.8);
#392=LINE('',#389,#391);
#393=EDGE_CURVE('',#379,#388,#392,.T.);
#394=ORIENTED_EDGE('',*,*,#393,.T.);
#395=CARTESIAN_POINT('',(2.2,24.1,3.4));
#396=DIRECTION('',(0.,0.,-1.));
#397=VECTOR('',#396,1.1);
#398=LINE('',#395,#397);
#399=EDGE_CURVE('',#388,#339,#398,.T.);
#400=ORIENTED_EDGE('',*,*,#399,.T.);
#401=ORIENTED_EDGE('',*,*,#344,.F.);
#402=CARTESIAN_POINT('',(2.2,21.3,2.));
#403=VERTEX_POINT('',#402);
#404=CARTESIAN_POINT('',(2.2,21.3,2.3));
#405=DIRECTION('',(0.,0.,-1.));
#406=VECTOR('',#405,0.3);
#407=LINE('',#404,#406);
#408=EDGE_CURVE('',#329,#403,#407,.T.);
#409=ORIENTED_EDGE('',*,*,#408,.T.);
#410=CARTESIAN_POINT('',(2.2,20.3,2.));
#411=DIRECTION('',(0.,1.,0.));
#412=VECTOR('',#411,1.);
#413=LINE('',#410,#412);
#414=EDGE_CURVE('',#371,#403,#413,.T.);
#415=ORIENTED_EDGE('',*,*,#414,.F.);
#416=EDGE_LOOP('',(#377,#386,#394,#400,#401,#409,#415));
#417=FACE_BOUND('',#416,.T.);
#418=ADVANCED_FACE('',(#417),#367,.T.);
#419=CARTESIAN_POINT('',(4.7,20.3,3.4));
#420=DIRECTION('',(0.,-1.,0.));
#421=DIRECTION('',(0.,0.,-1.));
#422=AXIS2_PLACEMENT_3D('',#419,#420,#421);
#423=PLANE('',#422);
#424=CARTESIAN_POINT('',(7.2,20.3,2.4));
#425=VERTEX_POINT('',#424);
#426=CARTESIAN_POINT('',(7.2,20.3,2.));
#427=VERTEX_POINT('',#426);
#428=CARTESIAN_POINT('',(7.2,20.3,2.4));
#429=DIRECTION('',(0.,0.,-1.));
#430=VECTOR('',#429,0.4);
#431=LINE('',#428,#430);
#432=EDGE_CURVE('',#425,#427,#431,.T.);
#433=ORIENTED_EDGE('',*,*,#432,.F.);
#434=CARTESIAN_POINT('',(7.2,20.3,2.4));
#435=DIRECTION('',(-1.,0.,0.));
#436=VECTOR('',#435,5.);
#437=LINE('',#434,#436);
#438=EDGE_CURVE('',#425,#369,#437,.T.);
#439=ORIENTED_EDGE('',*,*,#438,.T.);
#440=ORIENTED_EDGE('',*,*,#376,.T.);
#441=CARTESIAN_POINT('',(7.2,20.3,2.));
#442=DIRECTION('',(-1.,0.,0.));
#443=VECTOR('',#442,5.);
#444=LINE('',#441,#443);
#445=EDGE_CURVE('',#427,#371,#444,.T.);
#446=ORIENTED_EDGE('',*,*,#445,.F.);
#447=EDGE_LOOP('',(#433,#439,#440,#446));
#448=FACE_BOUND('',#447,.T.);
#449=ADVANCED_FACE('',(#448),#423,.T.);
#450=CARTESIAN_POINT('',(7.2,22.2,3.4));
#451=DIRECTION('',(1.,0.,0.));
#452=DIRECTION('',(0.,0.,-1.));
#453=AXIS2_PLACEMENT_3D('',#450,#451,#452);
#454=PLANE('',#453);
#455=CARTESIAN_POINT('',(7.2,24.1,3.4));
#456=VERTEX_POINT('',#455);
#457=CARTESIAN_POINT('',(7.2,21.3,3.4));
#458=VERTEX_POINT('',#457);
#459=CARTESIAN_POINT('',(7.2,24.1,3.4));
#460=DIRECTION('',(0.,-1.,0.));
#461=VECTOR('',#460,2.8);
#462=LINE('',#459,#461);
#463=EDGE_CURVE('',#456,#458,#462,.T.);
#464=ORIENTED_EDGE('',*,*,#463,.T.);
#465=CARTESIAN_POINT('',(7.2,21.3,2.4));
#466=DIRECTION('',(1.,0.,0.));
#467=DIRECTION('',(0.,0.,-1.));
#468=AXIS2_PLACEMENT_3D('',#465,#466,#467);
#469=CIRCLE('',#468,1.);
#470=EDGE_CURVE('',#458,#425,#469,.T.);
#471=ORIENTED_EDGE('',*,*,#470,.T.);
#472=ORIENTED_EDGE('',*,*,#432,.T.);
#473=CARTESIAN_POINT('',(7.2,21.3,2.));
#474=VERTEX_POINT('',#473);
#475=CARTESIAN_POINT('',(7.2,21.3,2.));
#476=DIRECTION('',(0.,-1.,0.));
#477=VECTOR('',#476,1.);
#478=LINE('',#475,#477);
#479=EDGE_CURVE('',#474,#427,#478,.T.);
#480=ORIENTED_EDGE('',*,*,#479,.F.);
#481=CARTESIAN_POINT('',(7.2,21.3,2.3));
#482=DIRECTION('',(0.,0.,-1.));
#483=VECTOR('',#482,0.3);
#484=LINE('',#481,#483);
#485=EDGE_CURVE('',#331,#474,#484,.T.);
#486=ORIENTED_EDGE('',*,*,#485,.F.);
#487=ORIENTED_EDGE('',*,*,#358,.F.);
#488=CARTESIAN_POINT('',(7.2,24.1,3.4));
#489=DIRECTION('',(0.,0.,-1.));
#490=VECTOR('',#489,1.1);
#491=LINE('',#488,#490);
#492=EDGE_CURVE('',#456,#347,#491,.T.);
#493=ORIENTED_EDGE('',*,*,#492,.F.);
#494=EDGE_LOOP('',(#464,#471,#472,#480,#486,#487,#493));
#495=FACE_BOUND('',#494,.T.);
#496=ADVANCED_FACE('',(#495),#454,.T.);
#497=CARTESIAN_POINT('',(4.7,24.1,3.4));
#498=DIRECTION('',(0.,1.,0.));
#499=DIRECTION('',(0.,0.,1.));
#500=AXIS2_PLACEMENT_3D('',#497,#498,#499);
#501=PLANE('',#500);
#502=ORIENTED_EDGE('',*,*,#352,.F.);
#503=ORIENTED_EDGE('',*,*,#399,.F.);
#504=CARTESIAN_POINT('',(2.2,24.1,3.4));
#505=DIRECTION('',(1.,0.,-0.));
#506=VECTOR('',#505,5.);
#507=LINE('',#504,#506);
#508=EDGE_CURVE('',#388,#456,#507,.T.);
#509=ORIENTED_EDGE('',*,*,#508,.T.);
#510=ORIENTED_EDGE('',*,*,#492,.T.);
#511=EDGE_LOOP('',(#502,#503,#509,#510));
#512=FACE_BOUND('',#511,.T.);
#513=ADVANCED_FACE('',(#512),#501,.T.);
#514=CARTESIAN_POINT('',(-22.8,1.1,3.4));
#515=DIRECTION('',(0.,0.,1.));
#516=DIRECTION('',(1.,0.,0.));
#517=AXIS2_PLACEMENT_3D('',#514,#515,#516);
#518=PLANE('',#517);
#519=ORIENTED_EDGE('',*,*,#393,.F.);
#520=CARTESIAN_POINT('',(2.2,21.3,3.4));
#521=DIRECTION('',(1.,-0.,-0.));
#522=VECTOR('',#521,5.);
#523=LINE('',#520,#522);
#524=EDGE_CURVE('',#379,#458,#523,.T.);
#525=ORIENTED_EDGE('',*,*,#524,.T.);
#526=ORIENTED_EDGE('',*,*,#463,.F.);
#527=ORIENTED_EDGE('',*,*,#508,.F.);
#528=EDGE_LOOP('',(#519,#525,#526,#527));
#529=FACE_BOUND('',#528,.T.);
#530=ADVANCED_FACE('',(#529),#518,.T.);
#531=CARTESIAN_POINT('',(4.7,21.3,2.4));
#532=DIRECTION('',(-1.,0.,0.));
#533=DIRECTION('',(0.,0.,1.));
#534=AXIS2_PLACEMENT_3D('',#531,#532,#533);
#535=CYLINDRICAL_SURFACE('',#534,1.);
#536=ORIENTED_EDGE('',*,*,#470,.F.);
#537=ORIENTED_EDGE('',*,*,#524,.F.);
#538=ORIENTED_EDGE('',*,*,#385,.F.);
#539=ORIENTED_EDGE('',*,*,#438,.F.);
#540=EDGE_LOOP('',(#536,#537,#538,#539));
#541=FACE_BOUND('',#540,.T.);
#542=ADVANCED_FACE('',(#541),#535,.T.);
#543=CARTESIAN_POINT('',(4.7,21.3,2.3));
#544=DIRECTION('',(0.,1.,0.));
#545=DIRECTION('',(0.,0.,1.));
#546=AXIS2_PLACEMENT_3D('',#543,#544,#545);
#547=PLANE('',#546);
#548=CARTESIAN_POINT('',(2.2,21.3,2.));
#549=DIRECTION('',(1.,0.,-0.));
#550=VECTOR('',#549,5.);
#551=LINE('',#548,#550);
#552=EDGE_CURVE('',#403,#474,#551,.T.);
#553=ORIENTED_EDGE('',*,*,#552,.F.);
#554=ORIENTED_EDGE('',*,*,#408,.F.);
#555=ORIENTED_EDGE('',*,*,#336,.T.);
#556=ORIENTED_EDGE('',*,*,#485,.T.);
#557=EDGE_LOOP('',(#553,#554,#555,#556));
#558=FACE_BOUND('',#557,.T.);
#559=ADVANCED_FACE('',(#558),#547,.T.);
#560=CARTESIAN_POINT('',(-14.6,-0.,2.));
#561=DIRECTION('',(0.,0.,1.));
#562=DIRECTION('',(1.,0.,0.));
#563=AXIS2_PLACEMENT_3D('',#560,#561,#562);
#564=PLANE('',#563);
#565=ORIENTED_EDGE('',*,*,#445,.T.);
#566=ORIENTED_EDGE('',*,*,#414,.T.);
#567=ORIENTED_EDGE('',*,*,#552,.T.);
#568=ORIENTED_EDGE('',*,*,#479,.T.);
#569=EDGE_LOOP('',(#565,#566,#567,#568));
#570=FACE_BOUND('',#569,.T.);
#571=ADVANCED_FACE('',(#570),#564,.F.);
#572=CLOSED_SHELL('',(#362,#418,#449,#496,#513,#530,#542,#559,#571));
#573=MANIFOLD_SOLID_BREP('clip_left',#572);
#322=STYLED_ITEM('',(#321),#573);
#575=CARTESIAN_POINT('',(-8.2,1.1,2.3));
#576=DIRECTION('',(0.,0.,1.));
#577=DIRECTION('',(1.,0.,0.));
#578=AXIS2_PLACEMENT_3D('',#575,#576,#577);
#579=PLANE('',#578);
#580=CARTESIAN_POINT('',(16.8,21.3,2.3));
#581=VERTEX_POINT('',#580);
#582=CARTESIAN_POINT('',(21.8,21.3,2.3));
#583=VERTEX_POINT('',#582);
#584=CARTESIAN_POINT('',(16.8,21.3,2.3));
#585=DIRECTION('',(1.,0.,-0.));
#586=VECTOR('',#585,5.);
#587=LINE('',#584,#586);
#588=EDGE_CURVE('',#581,#583,#587,.T.);
#589=ORIENTED_EDGE('',*,*,#588,.F.);
#590=CARTESIAN_POINT('',(16.8,24.1,2.3));
#591=VERTEX_POINT('',#590);
#592=CARTESIAN_POINT('',(16.8,21.3,2.3));
#593=DIRECTION('',(0.,1.,0.));
#594=VECTOR('',#593,2.8);
#595=LINE('',#592,#594);
#596=EDGE_CURVE('',#581,#591,#595,.T.);
#597=ORIENTED_EDGE('',*,*,#596,.T.);
#598=CARTESIAN_POINT('',(21.8,24.1,2.3));
#599=VERTEX_POINT('',#598);
#600=CARTESIAN_POINT('',(16.8,24.1,2.3));
#601=DIRECTION('',(1.,0.,-0.));
#602=VECTOR('',#601,5.);
#603=LINE('',#600,#602);
#604=EDGE_CURVE('',#591,#599,#603,.T.);
#605=ORIENTED_EDGE('',*,*,#604,.T.);
#606=CARTESIAN_POINT('',(21.8,24.1,2.3));
#607=DIRECTION('',(0.,-1.,0.));
#608=VECTOR('',#607,2.8);
#609=LINE('',#606,#608);
#610=EDGE_CURVE('',#599,#583,#609,.T.);
#611=ORIENTED_EDGE('',*,*,#610,.T.);
#612=EDGE_LOOP('',(#589,#597,#605,#611));
#613=FACE_BOUND('',#612,.T.);
#614=ADVANCED_FACE('',(#613),#579,.F.);
#615=CARTESIAN_POINT('',(16.8,22.2,3.4));
#616=DIRECTION('',(-1.,0.,0.));
#617=DIRECTION('',(0.,0.,1.));
#618=AXIS2_PLACEMENT_3D('',#615,#616,#617);
#619=PLANE('',#618);
#620=CARTESIAN_POINT('',(16.8,20.3,2.4));
#621=VERTEX_POINT('',#620);
#622=CARTESIAN_POINT('',(16.8,20.3,2.));
#623=VERTEX_POINT('',#622);
#624=CARTESIAN_POINT('',(16.8,20.3,2.4));
#625=DIRECTION('',(0.,0.,-1.));
#626=VECTOR('',#625,0.4);
#627=LINE('',#624,#626);
#628=EDGE_CURVE('',#621,#623,#627,.T.);
#629=ORIENTED_EDGE('',*,*,#628,.F.);
#630=CARTESIAN_POINT('',(16.8,21.3,3.4));
#631=VERTEX_POINT('',#630);
#632=CARTESIAN_POINT('',(16.8,21.3,2.4));
#633=DIRECTION('',(-1.,0.,0.));
#634=DIRECTION('',(0.,0.,1.));
#635=AXIS2_PLACEMENT_3D('',#632,#633,#634);
#636=CIRCLE('',#635,1.);
#637=EDGE_CURVE('',#621,#631,#636,.T.);
#638=ORIENTED_EDGE('',*,*,#637,.T.);
#639=CARTESIAN_POINT('',(16.8,24.1,3.4));
#640=VERTEX_POINT('',#639);
#641=CARTESIAN_POINT('',(16.8,21.3,3.4));
#642=DIRECTION('',(0.,1.,0.));
#643=VECTOR('',#642,2.8);
#644=LINE('',#641,#643);
#645=EDGE_CURVE('',#631,#640,#644,.T.);
#646=ORIENTED_EDGE('',*,*,#645,.T.);
#647=CARTESIAN_POINT('',(16.8,24.1,3.4));
#648=DIRECTION('',(0.,0.,-1.));
#649=VECTOR('',#648,1.1);
#650=LINE('',#647,#649);
#651=EDGE_CURVE('',#640,#591,#650,.T.);
#652=ORIENTED_EDGE('',*,*,#651,.T.);
#653=ORIENTED_EDGE('',*,*,#596,.F.);
#654=CARTESIAN_POINT('',(16.8,21.3,2.));
#655=VERTEX_POINT('',#654);
#656=CARTESIAN_POINT('',(16.8,21.3,2.3));
#657=DIRECTION('',(0.,0.,-1.));
#658=VECTOR('',#657,0.3);
#659=LINE('',#656,#658);
#660=EDGE_CURVE('',#581,#655,#659,.T.);
#661=ORIENTED_EDGE('',*,*,#660,.T.);
#662=CARTESIAN_POINT('',(16.8,20.3,2.));
#663=DIRECTION('',(0.,1.,0.));
#664=VECTOR('',#663,1.);
#665=LINE('',#662,#664);
#666=EDGE_CURVE('',#623,#655,#665,.T.);
#667=ORIENTED_EDGE('',*,*,#666,.F.);
#668=EDGE_LOOP('',(#629,#638,#646,#652,#653,#661,#667));
#669=FACE_BOUND('',#668,.T.);
#670=ADVANCED_FACE('',(#669),#619,.T.);
#671=CARTESIAN_POINT('',(19.3,20.3,3.4));
#672=DIRECTION('',(0.,-1.,0.));
#673=DIRECTION('',(0.,0.,-1.));
#674=AXIS2_PLACEMENT_3D('',#671,#672,#673);
#675=PLANE('',#674);
#676=CARTESIAN_POINT('',(21.8,20.3,2.4));
#677=VERTEX_POINT('',#676);
#678=CARTESIAN_POINT('',(21.8,20.3,2.));
#679=VERTEX_POINT('',#678);
#680=CARTESIAN_POINT('',(21.8,20.3,2.4));
#681=DIRECTION('',(0.,0.,-1.));
#682=VECTOR('',#681,0.4);
#683=LINE('',#680,#682);
#684=EDGE_CURVE('',#677,#679,#683,.T.);
#685=ORIENTED_EDGE('',*,*,#684,.F.);
#686=CARTESIAN_POINT('',(21.8,20.3,2.4));
#687=DIRECTION('',(-1.,0.,0.));
#688=VECTOR('',#687,5.);
#689=LINE('',#686,#688);
#690=EDGE_CURVE('',#677,#621,#689,.T.);
#691=ORIENTED_EDGE('',*,*,#690,.T.);
#692=ORIENTED_EDGE('',*,*,#628,.T.);
#693=CARTESIAN_POINT('',(21.8,20.3,2.));
#694=DIRECTION('',(-1.,0.,0.));
#695=VECTOR('',#694,5.);
#696=LINE('',#693,#695);
#697=EDGE_CURVE('',#679,#623,#696,.T.);
#698=ORIENTED_EDGE('',*,*,#697,.F.);
#699=EDGE_LOOP('',(#685,#691,#692,#698));
#700=FACE_BOUND('',#699,.T.);
#701=ADVANCED_FACE('',(#700),#675,.T.);
#702=CARTESIAN_POINT('',(21.8,22.2,3.4));
#703=DIRECTION('',(1.,0.,0.));
#704=DIRECTION('',(0.,0.,-1.));
#705=AXIS2_PLACEMENT_3D('',#702,#703,#704);
#706=PLANE('',#705);
#707=CARTESIAN_POINT('',(21.8,24.1,3.4));
#708=VERTEX_POINT('',#707);
#709=CARTESIAN_POINT('',(21.8,21.3,3.4));
#710=VERTEX_POINT('',#709);
#711=CARTESIAN_POINT('',(21.8,24.1,3.4));
#712=DIRECTION('',(0.,-1.,0.));
#713=VECTOR('',#712,2.8);
#714=LINE('',#711,#713);
#715=EDGE_CURVE('',#708,#710,#714,.T.);
#716=ORIENTED_EDGE('',*,*,#715,.T.);
#717=CARTESIAN_POINT('',(21.8,21.3,2.4));
#718=DIRECTION('',(1.,0.,0.));
#719=DIRECTION('',(0.,0.,-1.));
#720=AXIS2_PLACEMENT_3D('',#717,#718,#719);
#721=CIRCLE('',#720,1.);
#722=EDGE_CURVE('',#710,#677,#721,.T.);
#723=ORIENTED_EDGE('',*,*,#722,.T.);
#724=ORIENTED_EDGE('',*,*,#684,.T.);
#725=CARTESIAN_POINT('',(21.8,21.3,2.));
#726=VERTEX_POINT('',#725);
#727=CARTESIAN_POINT('',(21.8,21.3,2.));
#728=DIRECTION('',(0.,-1.,0.));
#729=VECTOR('',#728,1.);
#730=LINE('',#727,#729);
#731=EDGE_CURVE('',#726,#679,#730,.T.);
#732=ORIENTED_EDGE('',*,*,#731,.F.);
#733=CARTESIAN_POINT('',(21.8,21.3,2.3));
#734=DIRECTION('',(0.,0.,-1.));
#735=VECTOR('',#734,0.3);
#736=LINE('',#733,#735);
#737=EDGE_CURVE('',#583,#726,#736,.T.);
#738=ORIENTED_EDGE('',*,*,#737,.F.);
#739=ORIENTED_EDGE('',*,*,#610,.F.);
#740=CARTESIAN_POINT('',(21.8,24.1,3.4));
#741=DIRECTION('',(0.,0.,-1.));
#742=VECTOR('',#741,1.1);
#743=LINE('',#740,#742);
#744=EDGE_CURVE('',#708,#599,#743,.T.);
#745=ORIENTED_EDGE('',*,*,#744,.F.);
#746=EDGE_LOOP('',(#716,#723,#724,#732,#738,#739,#745));
#747=FACE_BOUND('',#746,.T.);
#748=ADVANCED_FACE('',(#747),#706,.T.);
#749=CARTESIAN_POINT('',(19.3,24.1,3.4));
#750=DIRECTION('',(0.,1.,0.));
#751=DIRECTION('',(0.,0.,1.));
#752=AXIS2_PLACEMENT_3D('',#749,#750,#751);
#753=PLANE('',#752);
#754=ORIENTED_EDGE('',*,*,#604,.F.);
#755=ORIENTED_EDGE('',*,*,#651,.F.);
#756=CARTESIAN_POINT('',(16.8,24.1,3.4));
#757=DIRECTION('',(1.,0.,-0.));
#758=VECTOR('',#757,5.);
#759=LINE('',#756,#758);
#760=EDGE_CURVE('',#640,#708,#759,.T.);
#761=ORIENTED_EDGE('',*,*,#760,.T.);
#762=ORIENTED_EDGE('',*,*,#744,.T.);
#763=EDGE_LOOP('',(#754,#755,#761,#762));
#764=FACE_BOUND('',#763,.T.);
#765=ADVANCED_FACE('',(#764),#753,.T.);
#766=CARTESIAN_POINT('',(-8.2,1.1,3.4));
#767=DIRECTION('',(0.,0.,1.));
#768=DIRECTION('',(1.,0.,0.));
#769=AXIS2_PLACEMENT_3D('',#766,#767,#768);
#770=PLANE('',#769);
#771=ORIENTED_EDGE('',*,*,#645,.F.);
#772=CARTESIAN_POINT('',(16.8,21.3,3.4));
#773=DIRECTION('',(1.,-0.,-0.));
#774=VECTOR('',#773,5.);
#775=LINE('',#772,#774);
#776=EDGE_CURVE('',#631,#710,#775,.T.);
#777=ORIENTED_EDGE('',*,*,#776,.T.);
#778=ORIENTED_EDGE('',*,*,#715,.F.);
#779=ORIENTED_EDGE('',*,*,#760,.F.);
#780=EDGE_LOOP('',(#771,#777,#778,#779));
#781=FACE_BOUND('',#780,.T.);
#782=ADVANCED_FACE('',(#781),#770,.T.);
#783=CARTESIAN_POINT('',(19.3,21.3,2.4));
#784=DIRECTION('',(-1.,0.,0.));
#785=DIRECTION('',(0.,0.,1.));
#786=AXIS2_PLACEMENT_3D('',#783,#784,#785);
#787=CYLINDRICAL_SURFACE('',#786,1.);
#788=ORIENTED_EDGE('',*,*,#722,.F.);
#789=ORIENTED_EDGE('',*,*,#776,.F.);
#790=ORIENTED_EDGE('',*,*,#637,.F.);
#791=ORIENTED_EDGE('',*,*,#690,.F.);
#792=EDGE_LOOP('',(#788,#789,#790,#791));
#793=FACE_BOUND('',#792,.T.);
#794=ADVANCED_FACE('',(#793),#787,.T.);
#795=CARTESIAN_POINT('',(19.3,21.3,2.3));
#796=DIRECTION('',(0.,1.,0.));
#797=DIRECTION('',(0.,0.,1.));
#798=AXIS2_PLACEMENT_3D('',#795,#796,#797);
#799=PLANE('',#798);
#800=CARTESIAN_POINT('',(16.8,21.3,2.));
#801=DIRECTION('',(1.,0.,-0.));
#802=VECTOR('',#801,5.);
#803=LINE('',#800,#802);
#804=EDGE_CURVE('',#655,#726,#803,.T.);
#805=ORIENTED_EDGE('',*,*,#804,.F.);
#806=ORIENTED_EDGE('',*,*,#660,.F.);
#807=ORIENTED_EDGE('',*,*,#588,.T.);
#808=ORIENTED_EDGE('',*,*,#737,.T.);
#809=EDGE_LOOP('',(#805,#806,#807,#808));
#810=FACE_BOUND('',#809,.T.);
#811=ADVANCED_FACE('',(#810),#799,.T.);
#812=CARTESIAN_POINT('',(0.,0.,2.));
#813=DIRECTION('',(0.,0.,1.));
#814=DIRECTION('',(1.,0.,0.));
#815=AXIS2_PLACEMENT_3D('',#812,#813,#814);
#816=PLANE('',#815);
#817=ORIENTED_EDGE('',*,*,#697,.T.);
#818=ORIENTED_EDGE('',*,*,#666,.T.);
#819=ORIENTED_EDGE('',*,*,#804,.T.);
#820=ORIENTED_EDGE('',*,*,#731,.T.);
#821=EDGE_LOOP('',(#817,#818,#819,#820));
#822=FACE_BOUND('',#821,.T.);
#823=ADVANCED_FACE('',(#822),#816,.F.);
#824=CLOSED_SHELL('',(#614,#670,#701,#748,#765,#782,#794,#811,#823));
#825=MANIFOLD_SOLID_BREP('clip_right',#824);
#574=STYLED_ITEM('',(#321),#825);
#827=CARTESIAN_POINT('',(0.,0.,0.));
#828=DIRECTION('',(0.,-0.752576695,0.658504608));
#829=DIRECTION('',(0.,-0.658504608,-0.752576695));
#830=AXIS2_PLACEMENT_3D('',#827,#828,#829);
#831=PLANE('',#830);
#832=CARTESIAN_POINT('',(23.247423305,0.,0.));
#833=VERTEX_POINT('',#832);
#834=CARTESIAN_POINT('',(21.497423305,1.75,2.));
#835=VERTEX_POINT('',#834);
#836=CARTESIAN_POINT('',(23.247423305,-0.,0.));
#837=DIRECTION('',(-0.549971941,0.549971941,0.628539361));
#838=VECTOR('',#837,3.181980515);
#839=LINE('',#836,#838);
#840=EDGE_CURVE('',#833,#835,#839,.T.);
#841=ORIENTED_EDGE('',*,*,#840,.T.);
#842=CARTESIAN_POINT('',(2.502576695,1.75,2.));
#843=VERTEX_POINT('',#842);
#844=CARTESIAN_POINT('',(2.502576695,1.75,2.));
#845=DIRECTION('',(1.,0.,-0.));
#846=VECTOR('',#845,18.994846611);
#847=LINE('',#844,#846);
#848=EDGE_CURVE('',#843,#835,#847,.T.);
#849=ORIENTED_EDGE('',*,*,#848,.F.);
#850=CARTESIAN_POINT('',(0.752576695,0.,0.));
#851=VERTEX_POINT('',#850);
#852=CARTESIAN_POINT('',(2.502576695,1.75,2.));
#853=DIRECTION('',(-0.549971941,-0.549971941,-0.628539361));
#854=VECTOR('',#853,3.181980515);
#855=LINE('',#852,#854);
#856=EDGE_CURVE('',#843,#851,#855,.T.);
#857=ORIENTED_EDGE('',*,*,#856,.T.);
#858=CARTESIAN_POINT('',(8.,0.,0.));
#859=VERTEX_POINT('',#858);
#860=CARTESIAN_POINT('',(0.752576695,0.,0.));
#861=DIRECTION('',(1.,0.,0.));
#862=VECTOR('',#861,7.247423305);
#863=LINE('',#860,#862);
#864=EDGE_CURVE('',#851,#859,#863,.T.);
#865=ORIENTED_EDGE('',*,*,#864,.T.);
#866=CARTESIAN_POINT('',(8.,1.,1.142857143));
#867=VERTEX_POINT('',#866);
#868=CARTESIAN_POINT('',(8.,1.,1.142857143));
#869=DIRECTION('',(-0.,-0.658504608,-0.752576695));
#870=VECTOR('',#869,1.518592259);
#871=LINE('',#868,#870);
#872=EDGE_CURVE('',#867,#859,#871,.T.);
#873=ORIENTED_EDGE('',*,*,#872,.F.);
#874=CARTESIAN_POINT('',(16.,1.,1.142857143));
#875=VERTEX_POINT('',#874);
#876=CARTESIAN_POINT('',(8.,1.,1.142857143));
#877=DIRECTION('',(1.,0.,0.));
#878=VECTOR('',#877,8.);
#879=LINE('',#876,#878);
#880=EDGE_CURVE('',#867,#875,#879,.T.);
#881=ORIENTED_EDGE('',*,*,#880,.T.);
#882=CARTESIAN_POINT('',(16.,0.,0.));
#883=VERTEX_POINT('',#882);
#884=CARTESIAN_POINT('',(16.,0.,0.));
#885=DIRECTION('',(-0.,0.658504608,0.752576695));
#886=VECTOR('',#885,1.518592259);
#887=LINE('',#884,#886);
#888=EDGE_CURVE('',#883,#875,#887,.T.);
#889=ORIENTED_EDGE('',*,*,#888,.F.);
#890=CARTESIAN_POINT('',(16.,0.,0.));
#891=DIRECTION('',(1.,0.,0.));
#892=VECTOR('',#891,7.247423305);
#893=LINE('',#890,#892);
#894=EDGE_CURVE('',#883,#833,#893,.T.);
#895=ORIENTED_EDGE('',*,*,#894,.T.);
#896=EDGE_LOOP('',(#841,#849,#857,#865,#873,#881,#889,#895));
#897=FACE_BOUND('',#896,.T.);
#898=ADVANCED_FACE('',(#897),#831,.T.);
#899=CARTESIAN_POINT('',(0.,0.,2.));
#900=DIRECTION('',(0.,0.,1.));
#901=DIRECTION('',(1.,0.,0.));
#902=AXIS2_PLACEMENT_3D('',#899,#900,#901);
#903=PLANE('',#902);
#904=ORIENTED_EDGE('',*,*,#848,.T.);
#905=CARTESIAN_POINT('',(22.25,2.502576695,2.));
#906=VERTEX_POINT('',#905);
#907=CARTESIAN_POINT('',(20.921231773,3.078768227,2.));
#908=DIRECTION('',(0.,0.,1.));
#909=DIRECTION('',(0.707106781,-0.707106781,0.));
#910=AXIS2_PLACEMENT_3D('',#907,#908,#909);
#911=ELLIPSE('',#910,1.590990258,1.);
#912=EDGE_CURVE('',#835,#906,#911,.T.);
#913=ORIENTED_EDGE('',*,*,#912,.T.);
#914=CARTESIAN_POINT('',(22.25,20.697423305,2.));
#915=VERTEX_POINT('',#914);
#916=CARTESIAN_POINT('',(22.25,2.502576695,2.));
#917=DIRECTION('',(-0.,1.,0.));
#918=VECTOR('',#917,18.194846611);
#919=LINE('',#916,#918);
#920=EDGE_CURVE('',#906,#915,#919,.T.);
#921=ORIENTED_EDGE('',*,*,#920,.T.);
#922=CARTESIAN_POINT('',(21.497423305,21.45,2.));
#923=VERTEX_POINT('',#922);
#924=CARTESIAN_POINT('',(20.921231773,20.121231773,2.));
#925=DIRECTION('',(0.,-0.,1.));
#926=DIRECTION('',(0.707106781,0.707106781,0.));
#927=AXIS2_PLACEMENT_3D('',#924,#925,#926);
#928=ELLIPSE('',#927,1.590990258,1.);
#929=EDGE_CURVE('',#915,#923,#928,.T.);
#930=ORIENTED_EDGE('',*,*,#929,.T.);
#931=CARTESIAN_POINT('',(2.502576695,21.45,2.));
#932=VERTEX_POINT('',#931);
#933=CARTESIAN_POINT('',(21.497423305,21.45,2.));
#934=DIRECTION('',(-1.,-0.,0.));
#935=VECTOR('',#934,18.994846611);
#936=LINE('',#933,#935);
#937=EDGE_CURVE('',#923,#932,#936,.T.);
#938=ORIENTED_EDGE('',*,*,#937,.T.);
#939=CARTESIAN_POINT('',(1.75,20.697423305,2.));
#940=VERTEX_POINT('',#939);
#941=CARTESIAN_POINT('',(3.078768227,20.121231773,2.));
#942=DIRECTION('',(0.,0.,1.));
#943=DIRECTION('',(-0.707106781,0.707106781,0.));
#944=AXIS2_PLACEMENT_3D('',#941,#942,#943);
#945=ELLIPSE('',#944,1.590990258,1.);
#946=EDGE_CURVE('',#932,#940,#945,.T.);
#947=ORIENTED_EDGE('',*,*,#946,.T.);
#948=CARTESIAN_POINT('',(1.75,2.502576695,2.));
#949=VERTEX_POINT('',#948);
#950=CARTESIAN_POINT('',(1.75,20.697423305,2.));
#951=DIRECTION('',(0.,-1.,0.));
#952=VECTOR('',#951,18.194846611);
#953=LINE('',#950,#952);
#954=EDGE_CURVE('',#940,#949,#953,.T.);
#955=ORIENTED_EDGE('',*,*,#954,.T.);
#956=CARTESIAN_POINT('',(3.078768227,3.078768227,2.));
#957=DIRECTION('',(0.,0.,1.));
#958=DIRECTION('',(-0.707106781,-0.707106781,0.));
#959=AXIS2_PLACEMENT_3D('',#956,#957,#958);
#960=ELLIPSE('',#959,1.590990258,1.);
#961=EDGE_CURVE('',#949,#843,#960,.T.);
#962=ORIENTED_EDGE('',*,*,#961,.T.);
#963=EDGE_LOOP('',(#904,#913,#921,#930,#938,#947,#955,#962));
#964=FACE_BOUND('',#963,.T.);
#965=ADVANCED_FACE('',(#964),#903,.T.);
#966=CARTESIAN_POINT('',(13.592920354,-1.,11.89380531));
#967=DIRECTION('',(0.752576695,0.,0.658504608));
#968=DIRECTION('',(0.658504608,-0.,-0.752576695));
#969=AXIS2_PLACEMENT_3D('',#966,#967,#968);
#970=PLANE('',#969);
#971=ORIENTED_EDGE('',*,*,#920,.F.);
#972=CARTESIAN_POINT('',(24.,0.752576695,0.));
#973=VERTEX_POINT('',#972);
#974=CARTESIAN_POINT('',(22.25,2.502576695,2.));
#975=DIRECTION('',(0.549971941,-0.549971941,-0.628539361));
#976=VECTOR('',#975,3.181980515);
#977=LINE('',#974,#976);
#978=EDGE_CURVE('',#906,#973,#977,.T.);
#979=ORIENTED_EDGE('',*,*,#978,.T.);
#980=CARTESIAN_POINT('',(24.,22.447423305,0.));
#981=VERTEX_POINT('',#980);
#982=CARTESIAN_POINT('',(24.,0.752576695,0.));
#983=DIRECTION('',(-0.,1.,0.));
#984=VECTOR('',#983,21.694846611);
#985=LINE('',#982,#984);
#986=EDGE_CURVE('',#973,#981,#985,.T.);
#987=ORIENTED_EDGE('',*,*,#986,.T.);
#988=CARTESIAN_POINT('',(24.,22.447423305,-0.));
#989=DIRECTION('',(-0.549971941,-0.549971941,0.628539361));
#990=VECTOR('',#989,3.181980515);
#991=LINE('',#988,#990);
#992=EDGE_CURVE('',#981,#915,#991,.T.);
#993=ORIENTED_EDGE('',*,*,#992,.T.);
#994=EDGE_LOOP('',(#971,#979,#987,#993));
#995=FACE_BOUND('',#994,.T.);
#996=ADVANCED_FACE('',(#995),#970,.T.);
#997=CARTESIAN_POINT('',(1.,13.139823009,11.497345133));
#998=DIRECTION('',(-0.,0.752576695,0.658504608));
#999=DIRECTION('',(0.,-0.658504608,0.752576695));
#1000=AXIS2_PLACEMENT_3D('',#997,#998,#999);
#1001=PLANE('',#1000);
#1002=ORIENTED_EDGE('',*,*,#937,.F.);
#1003=CARTESIAN_POINT('',(23.247423305,23.2,0.));
#1004=VERTEX_POINT('',#1003);
#1005=CARTESIAN_POINT('',(21.497423305,21.45,2.));
#1006=DIRECTION('',(0.549971941,0.549971941,-0.628539361));
#1007=VECTOR('',#1006,3.181980515);
#1008=LINE('',#1005,#1007);
#1009=EDGE_CURVE('',#923,#1004,#1008,.T.);
#1010=ORIENTED_EDGE('',*,*,#1009,.T.);
#1011=CARTESIAN_POINT('',(0.752576695,23.2,0.));
#1012=VERTEX_POINT('',#1011);
#1013=CARTESIAN_POINT('',(23.247423305,23.2,0.));
#1014=DIRECTION('',(-1.,-0.,0.));
#1015=VECTOR('',#1014,22.494846611);
#1016=LINE('',#1013,#1015);
#1017=EDGE_CURVE('',#1004,#1012,#1016,.T.);
#1018=ORIENTED_EDGE('',*,*,#1017,.T.);
#1019=CARTESIAN_POINT('',(0.752576695,23.2,-0.));
#1020=DIRECTION('',(0.549971941,-0.549971941,0.628539361));
#1021=VECTOR('',#1020,3.181980515);
#1022=LINE('',#1019,#1021);
#1023=EDGE_CURVE('',#1012,#932,#1022,.T.);
#1024=ORIENTED_EDGE('',*,*,#1023,.T.);
#1025=EDGE_LOOP('',(#1002,#1010,#1018,#1024));
#1026=FACE_BOUND('',#1025,.T.);
#1027=ADVANCED_FACE('',(#1026),#1001,.T.);
#1028=CARTESIAN_POINT('',(0.,0.,0.));
#1029=DIRECTION('',(-0.752576695,-0.,0.658504608));
#1030=DIRECTION('',(0.658504608,0.,0.752576695));
#1031=AXIS2_PLACEMENT_3D('',#1028,#1029,#1030);
#1032=PLANE('',#1031);
#1033=CARTESIAN_POINT('',(0.,22.447423305,0.));
#1034=VERTEX_POINT('',#1033);
#1035=CARTESIAN_POINT('',(0.,0.752576695,0.));
#1036=VERTEX_POINT('',#1035);
#1037=CARTESIAN_POINT('',(0.,22.447423305,0.));
#1038=DIRECTION('',(-0.,-1.,-0.));
#1039=VECTOR('',#1038,21.694846611);
#1040=LINE('',#1037,#1039);
#1041=EDGE_CURVE('',#1034,#1036,#1040,.T.);
#1042=ORIENTED_EDGE('',*,*,#1041,.T.);
#1043=CARTESIAN_POINT('',(0.,0.752576695,0.));
#1044=DIRECTION('',(0.549971941,0.549971941,0.628539361));
#1045=VECTOR('',#1044,3.181980515);
#1046=LINE('',#1043,#1045);
#1047=EDGE_CURVE('',#1036,#949,#1046,.T.);
#1048=ORIENTED_EDGE('',*,*,#1047,.T.);
#1049=ORIENTED_EDGE('',*,*,#954,.F.);
#1050=CARTESIAN_POINT('',(1.75,20.697423305,2.));
#1051=DIRECTION('',(-0.549971941,0.549971941,-0.628539361));
#1052=VECTOR('',#1051,3.181980515);
#1053=LINE('',#1050,#1052);
#1054=EDGE_CURVE('',#940,#1034,#1053,.T.);
#1055=ORIENTED_EDGE('',*,*,#1054,.T.);
#1056=EDGE_LOOP('',(#1042,#1048,#1049,#1055));
#1057=FACE_BOUND('',#1056,.T.);
#1058=ADVANCED_FACE('',(#1057),#1032,.T.);
#1059=CARTESIAN_POINT('',(0.,0.,0.));
#1060=DIRECTION('',(0.,0.,1.));
#1061=DIRECTION('',(1.,0.,0.));
#1062=AXIS2_PLACEMENT_3D('',#1059,#1060,#1061);
#1063=PLANE('',#1062);
#1064=CARTESIAN_POINT('',(16.,1.,0.));
#1065=VERTEX_POINT('',#1064);
#1066=CARTESIAN_POINT('',(16.,0.,0.));
#1067=DIRECTION('',(0.,1.,0.));
#1068=VECTOR('',#1067,1.);
#1069=LINE('',#1066,#1068);
#1070=EDGE_CURVE('',#883,#1065,#1069,.T.);
#1071=ORIENTED_EDGE('',*,*,#1070,.T.);
#1072=CARTESIAN_POINT('',(8.,1.,0.));
#1073=VERTEX_POINT('',#1072);
#1074=CARTESIAN_POINT('',(16.,1.,0.));
#1075=DIRECTION('',(-1.,-0.,0.));
#1076=VECTOR('',#1075,8.);
#1077=LINE('',#1074,#1076);
#1078=EDGE_CURVE('',#1065,#1073,#1077,.T.);
#1079=ORIENTED_EDGE('',*,*,#1078,.T.);
#1080=CARTESIAN_POINT('',(8.,1.,0.));
#1081=DIRECTION('',(0.,-1.,0.));
#1082=VECTOR('',#1081,1.);
#1083=LINE('',#1080,#1082);
#1084=EDGE_CURVE('',#1073,#859,#1083,.T.);
#1085=ORIENTED_EDGE('',*,*,#1084,.T.);
#1086=ORIENTED_EDGE('',*,*,#864,.F.);
#1087=CARTESIAN_POINT('',(1.328768227,1.328768227,0.));
#1088=DIRECTION('',(-0.,-0.,-1.));
#1089=DIRECTION('',(-0.707106781,-0.707106781,0.));
#1090=AXIS2_PLACEMENT_3D('',#1087,#1088,#1089);
#1091=ELLIPSE('',#1090,1.590990258,1.);
#1092=EDGE_CURVE('',#851,#1036,#1091,.T.);
#1093=ORIENTED_EDGE('',*,*,#1092,.T.);
#1094=ORIENTED_EDGE('',*,*,#1041,.F.);
#1095=CARTESIAN_POINT('',(1.328768227,21.871231773,0.));
#1096=DIRECTION('',(-0.,-0.,-1.));
#1097=DIRECTION('',(-0.707106781,0.707106781,0.));
#1098=AXIS2_PLACEMENT_3D('',#1095,#1096,#1097);
#1099=ELLIPSE('',#1098,1.590990258,1.);
#1100=EDGE_CURVE('',#1034,#1012,#1099,.T.);
#1101=ORIENTED_EDGE('',*,*,#1100,.T.);
#1102=ORIENTED_EDGE('',*,*,#1017,.F.);
#1103=CARTESIAN_POINT('',(22.671231773,21.871231773,0.));
#1104=DIRECTION('',(-0.,0.,-1.));
#1105=DIRECTION('',(0.707106781,0.707106781,0.));
#1106=AXIS2_PLACEMENT_3D('',#1103,#1104,#1105);
#1107=ELLIPSE('',#1106,1.590990258,1.);
#1108=EDGE_CURVE('',#1004,#981,#1107,.T.);
#1109=ORIENTED_EDGE('',*,*,#1108,.T.);
#1110=ORIENTED_EDGE('',*,*,#986,.F.);
#1111=CARTESIAN_POINT('',(22.671231773,1.328768227,0.));
#1112=DIRECTION('',(-0.,-0.,-1.));
#1113=DIRECTION('',(0.707106781,-0.707106781,0.));
#1114=AXIS2_PLACEMENT_3D('',#1111,#1112,#1113);
#1115=ELLIPSE('',#1114,1.590990258,1.);
#1116=EDGE_CURVE('',#973,#833,#1115,.T.);
#1117=ORIENTED_EDGE('',*,*,#1116,.T.);
#1118=ORIENTED_EDGE('',*,*,#894,.F.);
#1119=EDGE_LOOP('',(#1071,#1079,#1085,#1086,#1093,#1094,#1101,#1102,#1109,#1110,#1117,#1118));
#1120=FACE_BOUND('',#1119,.T.);
#1121=ADVANCED_FACE('',(#1120),#1063,.F.);
#1122=CARTESIAN_POINT('',(7.542229423,15.657770577,7.10109851));
#1123=DIRECTION('',(-0.549971941,0.549971941,-0.628539361));
#1124=DIRECTION('',(-0.752576695,0.,0.658504608));
#1125=AXIS2_PLACEMENT_3D('',#1122,#1123,#1124);
#1126=CYLINDRICAL_SURFACE('',#1125,1.);
#1127=ORIENTED_EDGE('',*,*,#946,.F.);
#1128=ORIENTED_EDGE('',*,*,#1023,.F.);
#1129=ORIENTED_EDGE('',*,*,#1100,.F.);
#1130=ORIENTED_EDGE('',*,*,#1054,.F.);
#1131=EDGE_LOOP('',(#1127,#1128,#1129,#1130));
#1132=FACE_BOUND('',#1131,.T.);
#1133=ADVANCED_FACE('',(#1132),#1126,.T.);
#1134=CARTESIAN_POINT('',(9.500980454,8.700980454,15.051715794));
#1135=DIRECTION('',(0.549971941,0.549971941,-0.628539361));
#1136=DIRECTION('',(-0.,0.752576695,0.658504608));
#1137=AXIS2_PLACEMENT_3D('',#1134,#1135,#1136);
#1138=CYLINDRICAL_SURFACE('',#1137,1.);
#1139=ORIENTED_EDGE('',*,*,#929,.F.);
#1140=ORIENTED_EDGE('',*,*,#992,.F.);
#1141=ORIENTED_EDGE('',*,*,#1108,.F.);
#1142=ORIENTED_EDGE('',*,*,#1009,.F.);
#1143=EDGE_LOOP('',(#1139,#1140,#1141,#1142));
#1144=FACE_BOUND('',#1143,.T.);
#1145=ADVANCED_FACE('',(#1144),#1138,.T.);
#1146=CARTESIAN_POINT('',(0.524945472,0.524945472,-0.918654576));
#1147=DIRECTION('',(-0.549971941,-0.549971941,-0.628539361));
#1148=DIRECTION('',(-0.752576695,-0.,0.658504608));
#1149=AXIS2_PLACEMENT_3D('',#1146,#1147,#1148);
#1150=CYLINDRICAL_SURFACE('',#1149,1.);
#1151=ORIENTED_EDGE('',*,*,#961,.F.);
#1152=ORIENTED_EDGE('',*,*,#1047,.F.);
#1153=ORIENTED_EDGE('',*,*,#1092,.F.);
#1154=ORIENTED_EDGE('',*,*,#856,.F.);
#1155=EDGE_LOOP('',(#1151,#1152,#1153,#1154));
#1156=FACE_BOUND('',#1155,.T.);
#1157=ADVANCED_FACE('',(#1156),#1150,.T.);
#1158=CARTESIAN_POINT('',(16.518264404,7.481735596,7.031962708));
#1159=DIRECTION('',(0.549971941,-0.549971941,-0.628539361));
#1160=DIRECTION('',(-0.752576695,-0.,-0.658504608));
#1161=AXIS2_PLACEMENT_3D('',#1158,#1159,#1160);
#1162=CYLINDRICAL_SURFACE('',#1161,1.);
#1163=ORIENTED_EDGE('',*,*,#1116,.F.);
#1164=ORIENTED_EDGE('',*,*,#978,.F.);
#1165=ORIENTED_EDGE('',*,*,#912,.F.);
#1166=ORIENTED_EDGE('',*,*,#840,.F.);
#1167=EDGE_LOOP('',(#1163,#1164,#1165,#1166));
#1168=FACE_BOUND('',#1167,.T.);
#1169=ADVANCED_FACE('',(#1168),#1162,.T.);
#1170=CARTESIAN_POINT('',(8.,2.,4.9));
#1171=DIRECTION('',(1.,0.,0.));
#1172=DIRECTION('',(0.,0.,-1.));
#1173=AXIS2_PLACEMENT_3D('',#1170,#1171,#1172);
#1174=PLANE('',#1173);
#1175=CARTESIAN_POINT('',(8.,1.,1.142857143));
#1176=DIRECTION('',(0.,0.,-1.));
#1177=VECTOR('',#1176,1.142857143);
#1178=LINE('',#1175,#1177);
#1179=EDGE_CURVE('',#867,#1073,#1178,.T.);
#1180=ORIENTED_EDGE('',*,*,#1179,.F.);
#1181=ORIENTED_EDGE('',*,*,#872,.T.);
#1182=ORIENTED_EDGE('',*,*,#1084,.F.);
#1183=EDGE_LOOP('',(#1180,#1181,#1182));
#1184=FACE_BOUND('',#1183,.T.);
#1185=ADVANCED_FACE('',(#1184),#1174,.T.);
#1186=CARTESIAN_POINT('',(16.,2.,4.9));
#1187=DIRECTION('',(-1.,0.,0.));
#1188=DIRECTION('',(0.,0.,1.));
#1189=AXIS2_PLACEMENT_3D('',#1186,#1187,#1188);
#1190=PLANE('',#1189);
#1191=ORIENTED_EDGE('',*,*,#888,.T.);
#1192=CARTESIAN_POINT('',(16.,1.,1.142857143));
#1193=DIRECTION('',(0.,0.,-1.));
#1194=VECTOR('',#1193,1.142857143);
#1195=LINE('',#1192,#1194);
#1196=EDGE_CURVE('',#875,#1065,#1195,.T.);
#1197=ORIENTED_EDGE('',*,*,#1196,.T.);
#1198=ORIENTED_EDGE('',*,*,#1070,.F.);
#1199=EDGE_LOOP('',(#1191,#1197,#1198));
#1200=FACE_BOUND('',#1199,.T.);
#1201=ADVANCED_FACE('',(#1200),#1190,.T.);
#1202=CARTESIAN_POINT('',(12.,1.,4.9));
#1203=DIRECTION('',(0.,-1.,0.));
#1204=DIRECTION('',(1.,0.,0.));
#1205=AXIS2_PLACEMENT_3D('',#1202,#1203,#1204);
#1206=PLANE('',#1205);
#1207=ORIENTED_EDGE('',*,*,#880,.F.);
#1208=ORIENTED_EDGE('',*,*,#1179,.T.);
#1209=ORIENTED_EDGE('',*,*,#1078,.F.);
#1210=ORIENTED_EDGE('',*,*,#1196,.F.);
#1211=EDGE_LOOP('',(#1207,#1208,#1209,#1210));
#1212=FACE_BOUND('',#1211,.T.);
#1213=ADVANCED_FACE('',(#1212),#1206,.T.);
#1214=CLOSED_SHELL('',(#898,#965,#996,#1027,#1058,#1121,#1133,#1145,#1157,#1169,#1185,#1201,#1213));
#1215=MANIFOLD_SOLID_BREP('Body 01',#1214);
#826=STYLED_ITEM('',(#321),#1215);
#16=SHAPE_REPRESENTATION('root',(#15),#10);
#17=ADVANCED_BREP_SHAPE_REPRESENTATION('root',(#314,#573,#825,#1215),#10);
#1223=SHAPE_REPRESENTATION_RELATIONSHIP('','',#16,#17);
#1224=CARTESIAN_POINT('',(0.,0.,0.));
#1225=DIRECTION('',(0.,0.,1.));
#1226=DIRECTION('',(1.,0.,0.));
#1227=AXIS2_PLACEMENT_3D('',#1224,#1225,#1226);
#1229=MAPPED_ITEM('',#1228,#1227);
#1228=REPRESENTATION_MAP(#1227,#16);
#1230=APPLICATION_CONTEXT('Managed model based 3d engineering');
#1231=APPLICATION_PROTOCOL_DEFINITION('international standard','ap242_managed_model_based_3d_engineering',2014,#1230);
#1232=PRODUCT_CONTEXT('',#1230,'mechanical');
#1233=PRODUCT_DEFINITION_CONTEXT('part definition',#1230,'design');
#24=PRODUCT('root','root','',(#1232));
#1234=PRODUCT_RELATED_PRODUCT_CATEGORY('part','',(#24));
#1235=PRODUCT_DEFINITION_FORMATION_WITH_SPECIFIED_SOURCE('','',#24,.NOT_KNOWN.);
#25=PRODUCT_DEFINITION('design','',#1235,#1233);
#23=PRODUCT_DEFINITION_SHAPE('','',#25);
#1236=SHAPE_DEFINITION_REPRESENTATION(#23,#16);
#11=DRAUGHTING_MODEL('',(#1229),#10);
#1237=DESCRIPTIVE_REPRESENTATION_ITEM('KEY','/Users/hrushka/Library/Containers/com.shapr3d.shapr/Data/tmp/A68D8910-45BB-4485-8FFD-1ED5B96F2370.tmp');
#1238=PROPERTY_DEFINITION('KEY','',#25);
#1239=REPRESENTATION('',(#1237),#10);
#1240=PROPERTY_DEFINITION_REPRESENTATION(#1238,#1239);
#1241=GENERAL_PROPERTY('','KEY','');
#1242=GENERAL_PROPERTY_ASSOCIATION('','',#1241,#1238);
#1=MECHANICAL_DESIGN_GEOMETRIC_PRESENTATION_REPRESENTATION('',(#26,#322,#574,#826),#10);
ENDSEC;
END-ISO-10303-21;
