ISO-10303-21;
HEADER;

/* File generated by Shapr3D Version 26.143.0.11521 */

FILE_DESCRIPTION(('HOOPS Exchange Step'),'2;1');

FILE_NAME('/Users/hrushka/Library/Containers/com.shapr3d.shapr/Data/tmp/export/temp_export',
'2026-09-26T16:53:17-07:00',
('hrushka'),
('Shapr3D Limited'),
'HOOPS Exchange 2026.3',
'Shapr3D',
'Authorized');

FILE_SCHEMA( ('AP242_MANAGED_MODEL_BASED_3D_ENGINEERING_MIM_LF {1 0 10303 442 1 1 4}') );

ENDSEC;

DATA;
#3=(NAMED_UNIT(*)PLANE_ANGLE_UNIT()SI_UNIT($,.RADIAN.));
#4=PLANE_ANGLE_MEASURE_WITH_UNIT(PLANE_ANGLE_MEASURE(0.0174532925),#3);
#5=(CONVERSION_BASED_UNIT('DEGREE',#4)NAMED_UNIT(#6)PLANE_ANGLE_UNIT());
#6=DIMENSIONAL_EXPONENTS(0.,0.,0.,0.,0.,0.,0.);
#7=(NAMED_UNIT(*)SI_UNIT($,.STERADIAN.)SOLID_ANGLE_UNIT());
#8=(LENGTH_UNIT()NAMED_UNIT(*)SI_UNIT(.MILLI.,.METRE.));
#9=UNCERTAINTY_MEASURE_WITH_UNIT(LENGTH_MEASURE(1.000000E-05),#8,'DISTANCE_ACCURACY_VALUE','Maximum Tolerance applied to model');
#10=(GEOMETRIC_REPRESENTATION_CONTEXT(3)GLOBAL_UNCERTAINTY_ASSIGNED_CONTEXT((#9))GLOBAL_UNIT_ASSIGNED_CONTEXT((#8,#5,#7))REPRESENTATION_CONTEXT('','root'));
#12=CARTESIAN_POINT('',(0.,0.,0.));
#13=DIRECTION('',(0.,0.,1.));
#14=DIRECTION('',(1.,0.,0.));
#15=AXIS2_PLACEMENT_3D('TS3D_PRODUCT_CSYS',#12,#13,#14);
#27=CARTESIAN_POINT('',(235.4,0.8,-0.));
#28=DIRECTION('',(0.,0.,1.));
#29=DIRECTION('',(0.,-1.,0.));
#30=AXIS2_PLACEMENT_3D('',#27,#28,#29);
#31=CYLINDRICAL_SURFACE('',#30,0.3);
#32=CARTESIAN_POINT('',(235.1,0.8,13.5));
#33=VERTEX_POINT('',#32);
#34=CARTESIAN_POINT('',(235.4,0.5,13.5));
#35=VERTEX_POINT('',#34);
#36=CARTESIAN_POINT('',(235.4,0.8,13.5));
#37=DIRECTION('',(-0.,0.,1.));
#38=DIRECTION('',(0.,1.,-0.));
#39=AXIS2_PLACEMENT_3D('',#36,#37,#38);
#40=CIRCLE('',#39,0.3);
#41=EDGE_CURVE('',#33,#35,#40,.T.);
#42=ORIENTED_EDGE('',*,*,#41,.F.);
#43=CARTESIAN_POINT('',(235.1,0.8,4.5));
#44=VERTEX_POINT('',#43);
#45=CARTESIAN_POINT('',(235.1,0.8,4.5));
#46=DIRECTION('',(-0.,0.,1.));
#47=VECTOR('',#46,9.);
#48=LINE('',#45,#47);
#49=EDGE_CURVE('',#44,#33,#48,.T.);
#50=ORIENTED_EDGE('',*,*,#49,.F.);
#51=CARTESIAN_POINT('',(235.4,0.5,4.5));
#52=VERTEX_POINT('',#51);
#53=CARTESIAN_POINT('',(235.4,0.8,4.5));
#54=DIRECTION('',(-0.,-0.,-1.));
#55=DIRECTION('',(0.,-1.,0.));
#56=AXIS2_PLACEMENT_3D('',#53,#54,#55);
#57=CIRCLE('',#56,0.3);
#58=EDGE_CURVE('',#52,#44,#57,.T.);
#59=ORIENTED_EDGE('',*,*,#58,.F.);
#60=CARTESIAN_POINT('',(235.4,0.5,13.5));
#61=DIRECTION('',(0.,-0.,-1.));
#62=VECTOR('',#61,9.);
#63=LINE('',#60,#62);
#64=EDGE_CURVE('',#35,#52,#63,.T.);
#65=ORIENTED_EDGE('',*,*,#64,.F.);
#66=EDGE_LOOP('',(#42,#50,#59,#65));
#67=FACE_BOUND('',#66,.T.);
#68=ADVANCED_FACE('',(#67),#31,.T.);
#69=CARTESIAN_POINT('',(78.,0.5,-0.));
#70=DIRECTION('',(0.,-1.,0.));
#71=DIRECTION('',(0.,-0.,-1.));
#72=AXIS2_PLACEMENT_3D('',#69,#70,#71);
#73=PLANE('',#72);
#74=CARTESIAN_POINT('',(235.8,0.5,13.5));
#75=VERTEX_POINT('',#74);
#76=CARTESIAN_POINT('',(235.8,0.5,13.5));
#77=DIRECTION('',(-1.,0.,0.));
#78=VECTOR('',#77,0.4);
#79=LINE('',#76,#78);
#80=EDGE_CURVE('',#75,#35,#79,.T.);
#81=ORIENTED_EDGE('',*,*,#80,.T.);
#82=ORIENTED_EDGE('',*,*,#64,.T.);
#83=CARTESIAN_POINT('',(235.8,0.5,4.5));
#84=VERTEX_POINT('',#83);
#85=CARTESIAN_POINT('',(235.4,0.5,4.5));
#86=DIRECTION('',(1.,0.,-0.));
#87=VECTOR('',#86,0.4);
#88=LINE('',#85,#87);
#89=EDGE_CURVE('',#52,#84,#88,.T.);
#90=ORIENTED_EDGE('',*,*,#89,.T.);
#91=CARTESIAN_POINT('',(235.8,0.5,4.5));
#92=DIRECTION('',(0.,0.,1.));
#93=VECTOR('',#92,9.);
#94=LINE('',#91,#93);
#95=EDGE_CURVE('',#84,#75,#94,.T.);
#96=ORIENTED_EDGE('',*,*,#95,.T.);
#97=EDGE_LOOP('',(#81,#82,#90,#96));
#98=FACE_BOUND('',#97,.T.);
#99=ADVANCED_FACE('',(#98),#73,.T.);
#100=CARTESIAN_POINT('',(235.8,0.8,-0.));
#101=DIRECTION('',(0.,-0.,-1.));
#102=DIRECTION('',(0.,1.,-0.));
#103=AXIS2_PLACEMENT_3D('',#100,#101,#102);
#104=CYLINDRICAL_SURFACE('',#103,0.3);
#105=CARTESIAN_POINT('',(236.1,0.8,4.5));
#106=VERTEX_POINT('',#105);
#107=CARTESIAN_POINT('',(235.8,0.8,4.5));
#108=DIRECTION('',(-0.,-0.,-1.));
#109=DIRECTION('',(0.,-1.,0.));
#110=AXIS2_PLACEMENT_3D('',#107,#108,#109);
#111=CIRCLE('',#110,0.3);
#112=EDGE_CURVE('',#106,#84,#111,.T.);
#113=ORIENTED_EDGE('',*,*,#112,.F.);
#114=CARTESIAN_POINT('',(236.1,0.8,13.5));
#115=VERTEX_POINT('',#114);
#116=CARTESIAN_POINT('',(236.1,0.8,13.5));
#117=DIRECTION('',(-0.,-0.,-1.));
#118=VECTOR('',#117,9.);
#119=LINE('',#116,#118);
#120=EDGE_CURVE('',#115,#106,#119,.T.);
#121=ORIENTED_EDGE('',*,*,#120,.F.);
#122=CARTESIAN_POINT('',(235.8,0.8,13.5));
#123=DIRECTION('',(-0.,0.,1.));
#124=DIRECTION('',(0.,1.,-0.));
#125=AXIS2_PLACEMENT_3D('',#122,#123,#124);
#126=CIRCLE('',#125,0.3);
#127=EDGE_CURVE('',#75,#115,#126,.T.);
#128=ORIENTED_EDGE('',*,*,#127,.F.);
#129=ORIENTED_EDGE('',*,*,#95,.F.);
#130=EDGE_LOOP('',(#113,#121,#128,#129));
#131=FACE_BOUND('',#130,.T.);
#132=ADVANCED_FACE('',(#131),#104,.T.);
#133=CARTESIAN_POINT('',(236.1,0.5,9.));
#134=DIRECTION('',(-1.,0.,0.));
#135=DIRECTION('',(0.,0.,1.));
#136=AXIS2_PLACEMENT_3D('',#133,#134,#135);
#137=PLANE('',#136);
#138=CARTESIAN_POINT('',(236.1,1.7,13.5));
#139=VERTEX_POINT('',#138);
#140=CARTESIAN_POINT('',(236.1,0.8,13.5));
#141=DIRECTION('',(0.,1.,-0.));
#142=VECTOR('',#141,0.9);
#143=LINE('',#140,#142);
#144=EDGE_CURVE('',#115,#139,#143,.T.);
#145=ORIENTED_EDGE('',*,*,#144,.F.);
#146=ORIENTED_EDGE('',*,*,#120,.T.);
#147=CARTESIAN_POINT('',(236.1,1.7,4.5));
#148=VERTEX_POINT('',#147);
#149=CARTESIAN_POINT('',(236.1,0.8,4.5));
#150=DIRECTION('',(0.,1.,-0.));
#151=VECTOR('',#150,0.9);
#152=LINE('',#149,#151);
#153=EDGE_CURVE('',#106,#148,#152,.T.);
#154=ORIENTED_EDGE('',*,*,#153,.T.);
#155=CARTESIAN_POINT('',(236.1,1.7,4.5));
#156=DIRECTION('',(0.,0.,1.));
#157=VECTOR('',#156,9.);
#158=LINE('',#155,#157);
#159=EDGE_CURVE('',#148,#139,#158,.T.);
#160=ORIENTED_EDGE('',*,*,#159,.T.);
#161=EDGE_LOOP('',(#145,#146,#154,#160));
#162=FACE_BOUND('',#161,.T.);
#163=ADVANCED_FACE('',(#162),#137,.F.);
#164=CARTESIAN_POINT('',(236.,0.5,4.5));
#165=DIRECTION('',(0.,0.,1.));
#166=DIRECTION('',(0.,-1.,0.));
#167=AXIS2_PLACEMENT_3D('',#164,#165,#166);
#168=PLANE('',#167);
#169=ORIENTED_EDGE('',*,*,#89,.F.);
#170=ORIENTED_EDGE('',*,*,#58,.T.);
#171=CARTESIAN_POINT('',(235.1,1.7,4.5));
#172=VERTEX_POINT('',#171);
#173=CARTESIAN_POINT('',(235.1,0.8,4.5));
#174=DIRECTION('',(0.,1.,-0.));
#175=VECTOR('',#174,0.9);
#176=LINE('',#173,#175);
#177=EDGE_CURVE('',#44,#172,#176,.T.);
#178=ORIENTED_EDGE('',*,*,#177,.T.);
#179=CARTESIAN_POINT('',(235.1,1.7,4.5));
#180=DIRECTION('',(1.,0.,-0.));
#181=VECTOR('',#180,1.);
#182=LINE('',#179,#181);
#183=EDGE_CURVE('',#172,#148,#182,.T.);
#184=ORIENTED_EDGE('',*,*,#183,.T.);
#185=ORIENTED_EDGE('',*,*,#153,.F.);
#186=ORIENTED_EDGE('',*,*,#112,.T.);
#187=EDGE_LOOP('',(#169,#170,#178,#184,#185,#186));
#188=FACE_BOUND('',#187,.T.);
#189=ADVANCED_FACE('',(#188),#168,.F.);
#190=CARTESIAN_POINT('',(235.1,0.5,9.));
#191=DIRECTION('',(1.,0.,0.));
#192=DIRECTION('',(0.,0.,-1.));
#193=AXIS2_PLACEMENT_3D('',#190,#191,#192);
#194=PLANE('',#193);
#195=ORIENTED_EDGE('',*,*,#177,.F.);
#196=ORIENTED_EDGE('',*,*,#49,.T.);
#197=CARTESIAN_POINT('',(235.1,1.7,13.5));
#198=VERTEX_POINT('',#197);
#199=CARTESIAN_POINT('',(235.1,0.8,13.5));
#200=DIRECTION('',(0.,1.,-0.));
#201=VECTOR('',#200,0.9);
#202=LINE('',#199,#201);
#203=EDGE_CURVE('',#33,#198,#202,.T.);
#204=ORIENTED_EDGE('',*,*,#203,.T.);
#205=CARTESIAN_POINT('',(235.1,1.7,13.5));
#206=DIRECTION('',(0.,-0.,-1.));
#207=VECTOR('',#206,9.);
#208=LINE('',#205,#207);
#209=EDGE_CURVE('',#198,#172,#208,.T.);
#210=ORIENTED_EDGE('',*,*,#209,.T.);
#211=EDGE_LOOP('',(#195,#196,#204,#210));
#212=FACE_BOUND('',#211,.T.);
#213=ADVANCED_FACE('',(#212),#194,.F.);
#214=CARTESIAN_POINT('',(236.,0.5,13.5));
#215=DIRECTION('',(0.,-0.,-1.));
#216=DIRECTION('',(0.,1.,-0.));
#217=AXIS2_PLACEMENT_3D('',#214,#215,#216);
#218=PLANE('',#217);
#219=ORIENTED_EDGE('',*,*,#203,.F.);
#220=ORIENTED_EDGE('',*,*,#41,.T.);
#221=ORIENTED_EDGE('',*,*,#80,.F.);
#222=ORIENTED_EDGE('',*,*,#127,.T.);
#223=ORIENTED_EDGE('',*,*,#144,.T.);
#224=CARTESIAN_POINT('',(236.1,1.7,13.5));
#225=DIRECTION('',(-1.,0.,0.));
#226=VECTOR('',#225,1.);
#227=LINE('',#224,#226);
#228=EDGE_CURVE('',#139,#198,#227,.T.);
#229=ORIENTED_EDGE('',*,*,#228,.T.);
#230=EDGE_LOOP('',(#219,#220,#221,#222,#223,#229));
#231=FACE_BOUND('',#230,.T.);
#232=ADVANCED_FACE('',(#231),#218,.F.);
#233=CARTESIAN_POINT('',(3.9,1.7,22.7));
#234=DIRECTION('',(0.,-1.,0.));
#235=DIRECTION('',(1.,0.,0.));
#236=AXIS2_PLACEMENT_3D('',#233,#234,#235);
#237=PLANE('',#236);
#238=ORIENTED_EDGE('',*,*,#209,.F.);
#239=ORIENTED_EDGE('',*,*,#228,.F.);
#240=ORIENTED_EDGE('',*,*,#159,.F.);
#241=ORIENTED_EDGE('',*,*,#183,.F.);
#242=EDGE_LOOP('',(#238,#239,#240,#241));
#243=FACE_BOUND('',#242,.T.);
#244=CARTESIAN_POINT('',(152.3,1.7,2.3));
#245=VERTEX_POINT('',#244);
#246=CARTESIAN_POINT('',(152.3,1.7,16.6));
#247=VERTEX_POINT('',#246);
#248=CARTESIAN_POINT('',(152.3,1.7,2.3));
#249=DIRECTION('',(0.,0.,1.));
#250=VECTOR('',#249,14.3);
#251=LINE('',#248,#250);
#252=EDGE_CURVE('',#245,#247,#251,.T.);
#253=ORIENTED_EDGE('',*,*,#252,.F.);
#254=CARTESIAN_POINT('',(237.3,1.7,2.3));
#255=VERTEX_POINT('',#254);
#256=CARTESIAN_POINT('',(152.3,1.7,2.3));
#257=DIRECTION('',(1.,0.,0.));
#258=VECTOR('',#257,85.);
#259=LINE('',#256,#258);
#260=EDGE_CURVE('',#245,#255,#259,.T.);
#261=ORIENTED_EDGE('',*,*,#260,.T.);
#262=CARTESIAN_POINT('',(237.3,1.7,16.6));
#263=VERTEX_POINT('',#262);
#264=CARTESIAN_POINT('',(237.3,1.7,16.6));
#265=DIRECTION('',(0.,-0.,-1.));
#266=VECTOR('',#265,14.3);
#267=LINE('',#264,#266);
#268=EDGE_CURVE('',#263,#255,#267,.T.);
#269=ORIENTED_EDGE('',*,*,#268,.F.);
#270=CARTESIAN_POINT('',(152.3,1.7,16.6));
#271=DIRECTION('',(1.,0.,0.));
#272=VECTOR('',#271,85.);
#273=LINE('',#270,#272);
#274=EDGE_CURVE('',#247,#263,#273,.T.);
#275=ORIENTED_EDGE('',*,*,#274,.F.);
#276=EDGE_LOOP('',(#253,#261,#269,#275));
#277=FACE_BOUND('',#276,.T.);
#278=ADVANCED_FACE('',(#243,#277),#237,.T.);
#279=CARTESIAN_POINT('',(152.3,1.5,8.7));
#280=DIRECTION('',(-1.,0.,0.));
#281=DIRECTION('',(0.,-1.,0.));
#282=AXIS2_PLACEMENT_3D('',#279,#280,#281);
#283=PLANE('',#282);
#284=CARTESIAN_POINT('',(152.3,2.3,1.7));
#285=VERTEX_POINT('',#284);
#286=CARTESIAN_POINT('',(152.3,6.3,1.7));
#287=VERTEX_POINT('',#286);
#288=CARTESIAN_POINT('',(152.3,2.3,1.7));
#289=DIRECTION('',(0.,1.,-0.));
#290=VECTOR('',#289,4.);
#291=LINE('',#288,#290);
#292=EDGE_CURVE('',#285,#287,#291,.T.);
#293=ORIENTED_EDGE('',*,*,#292,.F.);
#294=CARTESIAN_POINT('',(152.3,2.3,2.3));
#295=DIRECTION('',(-1.,0.,0.));
#296=DIRECTION('',(0.,0.,1.));
#297=AXIS2_PLACEMENT_3D('',#294,#295,#296);
#298=CIRCLE('',#297,0.6);
#299=EDGE_CURVE('',#285,#245,#298,.T.);
#300=ORIENTED_EDGE('',*,*,#299,.T.);
#301=ORIENTED_EDGE('',*,*,#252,.T.);
#302=CARTESIAN_POINT('',(152.3,2.7,16.6));
#303=VERTEX_POINT('',#302);
#304=CARTESIAN_POINT('',(152.3,1.7,16.6));
#305=DIRECTION('',(0.,1.,-0.));
#306=VECTOR('',#305,1.);
#307=LINE('',#304,#306);
#308=EDGE_CURVE('',#247,#303,#307,.T.);
#309=ORIENTED_EDGE('',*,*,#308,.T.);
#310=CARTESIAN_POINT('',(152.3,2.7,2.7));
#311=VERTEX_POINT('',#310);
#312=CARTESIAN_POINT('',(152.3,2.7,2.7));
#313=DIRECTION('',(0.,0.,1.));
#314=VECTOR('',#313,13.9);
#315=LINE('',#312,#314);
#316=EDGE_CURVE('',#311,#303,#315,.T.);
#317=ORIENTED_EDGE('',*,*,#316,.F.);
#318=CARTESIAN_POINT('',(152.3,6.3,2.7));
#319=VERTEX_POINT('',#318);
#320=CARTESIAN_POINT('',(152.3,6.3,2.7));
#321=DIRECTION('',(0.,-1.,0.));
#322=VECTOR('',#321,3.6);
#323=LINE('',#320,#322);
#324=EDGE_CURVE('',#319,#311,#323,.T.);
#325=ORIENTED_EDGE('',*,*,#324,.F.);
#326=CARTESIAN_POINT('',(152.3,6.3,1.7));
#327=DIRECTION('',(0.,0.,1.));
#328=VECTOR('',#327,1.);
#329=LINE('',#326,#328);
#330=EDGE_CURVE('',#287,#319,#329,.T.);
#331=ORIENTED_EDGE('',*,*,#330,.F.);
#332=EDGE_LOOP('',(#293,#300,#301,#309,#317,#325,#331));
#333=FACE_BOUND('',#332,.T.);
#334=ADVANCED_FACE('',(#333),#283,.T.);
#335=CARTESIAN_POINT('',(237.3,1.5,8.7));
#336=DIRECTION('',(1.,0.,0.));
#337=DIRECTION('',(0.,1.,-0.));
#338=AXIS2_PLACEMENT_3D('',#335,#336,#337);
#339=PLANE('',#338);
#340=ORIENTED_EDGE('',*,*,#268,.T.);
#341=CARTESIAN_POINT('',(237.3,2.3,1.7));
#342=VERTEX_POINT('',#341);
#343=CARTESIAN_POINT('',(237.3,2.3,2.3));
#344=DIRECTION('',(1.,0.,0.));
#345=DIRECTION('',(0.,0.,-1.));
#346=AXIS2_PLACEMENT_3D('',#343,#344,#345);
#347=CIRCLE('',#346,0.6);
#348=EDGE_CURVE('',#255,#342,#347,.T.);
#349=ORIENTED_EDGE('',*,*,#348,.T.);
#350=CARTESIAN_POINT('',(237.3,6.3,1.7));
#351=VERTEX_POINT('',#350);
#352=CARTESIAN_POINT('',(237.3,2.3,1.7));
#353=DIRECTION('',(0.,1.,-0.));
#354=VECTOR('',#353,4.);
#355=LINE('',#352,#354);
#356=EDGE_CURVE('',#342,#351,#355,.T.);
#357=ORIENTED_EDGE('',*,*,#356,.T.);
#358=CARTESIAN_POINT('',(237.3,6.3,2.7));
#359=VERTEX_POINT('',#358);
#360=CARTESIAN_POINT('',(237.3,6.3,2.7));
#361=DIRECTION('',(0.,-0.,-1.));
#362=VECTOR('',#361,1.);
#363=LINE('',#360,#362);
#364=EDGE_CURVE('',#359,#351,#363,.T.);
#365=ORIENTED_EDGE('',*,*,#364,.F.);
#366=CARTESIAN_POINT('',(237.3,2.7,2.7));
#367=VERTEX_POINT('',#366);
#368=CARTESIAN_POINT('',(237.3,2.7,2.7));
#369=DIRECTION('',(0.,1.,-0.));
#370=VECTOR('',#369,3.6);
#371=LINE('',#368,#370);
#372=EDGE_CURVE('',#367,#359,#371,.T.);
#373=ORIENTED_EDGE('',*,*,#372,.F.);
#374=CARTESIAN_POINT('',(237.3,2.7,16.6));
#375=VERTEX_POINT('',#374);
#376=CARTESIAN_POINT('',(237.3,2.7,16.6));
#377=DIRECTION('',(0.,-0.,-1.));
#378=VECTOR('',#377,13.9);
#379=LINE('',#376,#378);
#380=EDGE_CURVE('',#375,#367,#379,.T.);
#381=ORIENTED_EDGE('',*,*,#380,.F.);
#382=CARTESIAN_POINT('',(237.3,1.7,16.6));
#383=DIRECTION('',(0.,1.,-0.));
#384=VECTOR('',#383,1.);
#385=LINE('',#382,#384);
#386=EDGE_CURVE('',#263,#375,#385,.T.);
#387=ORIENTED_EDGE('',*,*,#386,.F.);
#388=EDGE_LOOP('',(#340,#349,#357,#365,#373,#381,#387));
#389=FACE_BOUND('',#388,.T.);
#390=ADVANCED_FACE('',(#389),#339,.T.);
#391=CARTESIAN_POINT('',(3.9,2.7,22.7));
#392=DIRECTION('',(0.,-1.,0.));
#393=DIRECTION('',(1.,0.,0.));
#394=AXIS2_PLACEMENT_3D('',#391,#392,#393);
#395=PLANE('',#394);
#396=CARTESIAN_POINT('',(152.3,2.7,2.7));
#397=DIRECTION('',(1.,0.,0.));
#398=VECTOR('',#397,85.);
#399=LINE('',#396,#398);
#400=EDGE_CURVE('',#311,#367,#399,.T.);
#401=ORIENTED_EDGE('',*,*,#400,.F.);
#402=ORIENTED_EDGE('',*,*,#316,.T.);
#403=CARTESIAN_POINT('',(152.3,2.7,16.6));
#404=DIRECTION('',(1.,0.,0.));
#405=VECTOR('',#404,85.);
#406=LINE('',#403,#405);
#407=EDGE_CURVE('',#303,#375,#406,.T.);
#408=ORIENTED_EDGE('',*,*,#407,.T.);
#409=ORIENTED_EDGE('',*,*,#380,.T.);
#410=EDGE_LOOP('',(#401,#402,#408,#409));
#411=FACE_BOUND('',#410,.T.);
#412=ADVANCED_FACE('',(#411),#395,.F.);
#413=CARTESIAN_POINT('',(196.9,1.5,16.6));
#414=DIRECTION('',(-0.,0.,1.));
#415=DIRECTION('',(-1.,-0.,-0.));
#416=AXIS2_PLACEMENT_3D('',#413,#414,#415);
#417=PLANE('',#416);
#418=ORIENTED_EDGE('',*,*,#407,.F.);
#419=ORIENTED_EDGE('',*,*,#308,.F.);
#420=ORIENTED_EDGE('',*,*,#274,.T.);
#421=ORIENTED_EDGE('',*,*,#386,.T.);
#422=EDGE_LOOP('',(#418,#419,#420,#421));
#423=FACE_BOUND('',#422,.T.);
#424=ADVANCED_FACE('',(#423),#417,.T.);
#425=CARTESIAN_POINT('',(196.9,2.2,2.7));
#426=DIRECTION('',(0.,-0.,-1.));
#427=DIRECTION('',(-1.,0.,-0.));
#428=AXIS2_PLACEMENT_3D('',#425,#426,#427);
#429=PLANE('',#428);
#430=ORIENTED_EDGE('',*,*,#324,.T.);
#431=ORIENTED_EDGE('',*,*,#400,.T.);
#432=ORIENTED_EDGE('',*,*,#372,.T.);
#433=CARTESIAN_POINT('',(152.3,6.3,2.7));
#434=DIRECTION('',(1.,0.,0.));
#435=VECTOR('',#434,85.);
#436=LINE('',#433,#435);
#437=EDGE_CURVE('',#319,#359,#436,.T.);
#438=ORIENTED_EDGE('',*,*,#437,.F.);
#439=EDGE_LOOP('',(#430,#431,#432,#438));
#440=FACE_BOUND('',#439,.T.);
#441=ADVANCED_FACE('',(#440),#429,.F.);
#442=CARTESIAN_POINT('',(196.9,1.5,1.7));
#443=DIRECTION('',(0.,-0.,-1.));
#444=DIRECTION('',(1.,0.,0.));
#445=AXIS2_PLACEMENT_3D('',#442,#443,#444);
#446=PLANE('',#445);
#447=ORIENTED_EDGE('',*,*,#356,.F.);
#448=CARTESIAN_POINT('',(237.3,2.3,1.7));
#449=DIRECTION('',(-1.,-0.,-0.));
#450=VECTOR('',#449,85.);
#451=LINE('',#448,#450);
#452=EDGE_CURVE('',#342,#285,#451,.T.);
#453=ORIENTED_EDGE('',*,*,#452,.T.);
#454=ORIENTED_EDGE('',*,*,#292,.T.);
#455=CARTESIAN_POINT('',(237.3,6.3,1.7));
#456=DIRECTION('',(-1.,-0.,-0.));
#457=VECTOR('',#456,85.);
#458=LINE('',#455,#457);
#459=EDGE_CURVE('',#351,#287,#458,.T.);
#460=ORIENTED_EDGE('',*,*,#459,.F.);
#461=EDGE_LOOP('',(#447,#453,#454,#460));
#462=FACE_BOUND('',#461,.T.);
#463=ADVANCED_FACE('',(#462),#446,.T.);
#464=CARTESIAN_POINT('',(3.9,6.3,22.7));
#465=DIRECTION('',(0.,-1.,0.));
#466=DIRECTION('',(1.,0.,0.));
#467=AXIS2_PLACEMENT_3D('',#464,#465,#466);
#468=PLANE('',#467);
#469=ORIENTED_EDGE('',*,*,#330,.T.);
#470=ORIENTED_EDGE('',*,*,#437,.T.);
#471=ORIENTED_EDGE('',*,*,#364,.T.);
#472=ORIENTED_EDGE('',*,*,#459,.T.);
#473=EDGE_LOOP('',(#469,#470,#471,#472));
#474=FACE_BOUND('',#473,.T.);
#475=ADVANCED_FACE('',(#474),#468,.F.);
#476=CARTESIAN_POINT('',(196.9,2.3,2.3));
#477=DIRECTION('',(-1.,-0.,-0.));
#478=DIRECTION('',(-0.,0.,1.));
#479=AXIS2_PLACEMENT_3D('',#476,#477,#478);
#480=CYLINDRICAL_SURFACE('',#479,0.6);
#481=ORIENTED_EDGE('',*,*,#348,.F.);
#482=ORIENTED_EDGE('',*,*,#260,.F.);
#483=ORIENTED_EDGE('',*,*,#299,.F.);
#484=ORIENTED_EDGE('',*,*,#452,.F.);
#485=EDGE_LOOP('',(#481,#482,#483,#484));
#486=FACE_BOUND('',#485,.T.);
#487=ADVANCED_FACE('',(#486),#480,.T.);
#488=CLOSED_SHELL('',(#68,#99,#132,#163,#189,#213,#232,#278,#334,#390,#412,#424,#441,#463,#475,#487));
#489=MANIFOLD_SOLID_BREP('door_dock_shield',#488);
#490=COLOUR_RGB('',0.494117647,0.494117647,0.525490224);
#491=FILL_AREA_STYLE_COLOUR('',#490);
#492=FILL_AREA_STYLE('',(#491));
#493=SURFACE_STYLE_FILL_AREA(#492);
#494=SURFACE_SIDE_STYLE('',(#493));
#495=SURFACE_STYLE_USAGE(.BOTH.,#494);
#496=PRESENTATION_STYLE_ASSIGNMENT((#495));
#26=STYLED_ITEM('',(#496),#489);
#16=SHAPE_REPRESENTATION('root',(#15),#10);
#17=ADVANCED_BREP_SHAPE_REPRESENTATION('root',(#489),#10);
#504=SHAPE_REPRESENTATION_RELATIONSHIP('','',#16,#17);
#505=CARTESIAN_POINT('',(0.,0.,0.));
#506=DIRECTION('',(0.,0.,1.));
#507=DIRECTION('',(1.,0.,0.));
#508=AXIS2_PLACEMENT_3D('',#505,#506,#507);
#510=MAPPED_ITEM('',#509,#508);
#509=REPRESENTATION_MAP(#508,#16);
#511=APPLICATION_CONTEXT('Managed model based 3d engineering');
#512=APPLICATION_PROTOCOL_DEFINITION('international standard','ap242_managed_model_based_3d_engineering',2014,#511);
#513=PRODUCT_CONTEXT('',#511,'mechanical');
#514=PRODUCT_DEFINITION_CONTEXT('part definition',#511,'design');
#24=PRODUCT('root','root','',(#513));
#515=PRODUCT_RELATED_PRODUCT_CATEGORY('part','',(#24));
#516=PRODUCT_DEFINITION_FORMATION_WITH_SPECIFIED_SOURCE('','',#24,.NOT_KNOWN.);
#25=PRODUCT_DEFINITION('design','',#516,#514);
#23=PRODUCT_DEFINITION_SHAPE('','',#25);
#517=SHAPE_DEFINITION_REPRESENTATION(#23,#16);
#11=DRAUGHTING_MODEL('',(#510),#10);
#518=DESCRIPTIVE_REPRESENTATION_ITEM('KEY','/Users/hrushka/Library/Containers/com.shapr3d.shapr/Data/tmp/B8F5FC78-8A5F-4BB8-A278-5DE4016FC037.tmp');
#519=PROPERTY_DEFINITION('KEY','',#25);
#520=REPRESENTATION('',(#518),#10);
#521=PROPERTY_DEFINITION_REPRESENTATION(#519,#520);
#522=GENERAL_PROPERTY('','KEY','');
#523=GENERAL_PROPERTY_ASSOCIATION('','',#522,#519);
#1=MECHANICAL_DESIGN_GEOMETRIC_PRESENTATION_REPRESENTATION('',(#26),#10);
ENDSEC;
END-ISO-10303-21;
