ISO-10303-21;
HEADER;

/* File generated by Shapr3D Version 26.143.0.11521 */

FILE_DESCRIPTION(('HOOPS Exchange Step'),'2;1');

FILE_NAME('/Users/hrushka/Library/Containers/com.shapr3d.shapr/Data/tmp/export/temp_export',
'2026-09-26T16:53:04-07:00',
('hrushka'),
('Shapr3D Limited'),
'HOOPS Exchange 2026.3',
'Shapr3D',
'Authorized');

FILE_SCHEMA( ('AP242_MANAGED_MODEL_BASED_3D_ENGINEERING_MIM_LF {1 0 10303 442 1 1 4}') );

ENDSEC;

DATA;
#3=(NAMED_UNIT(*)PLANE_ANGLE_UNIT()SI_UNIT($,.RADIAN.));
#4=PLANE_ANGLE_MEASURE_WITH_UNIT(PLANE_ANGLE_MEASURE(0.0174532925),#3);
#5=(CONVERSION_BASED_UNIT('DEGREE',#4)NAMED_UNIT(#6)PLANE_ANGLE_UNIT());
#6=DIMENSIONAL_EXPONENTS(0.,0.,0.,0.,0.,0.,0.);
#7=(NAMED_UNIT(*)SI_UNIT($,.STERADIAN.)SOLID_ANGLE_UNIT());
#8=(LENGTH_UNIT()NAMED_UNIT(*)SI_UNIT(.MILLI.,.METRE.));
#9=UNCERTAINTY_MEASURE_WITH_UNIT(LENGTH_MEASURE(1.000000E-05),#8,'DISTANCE_ACCURACY_VALUE','Maximum Tolerance applied to model');
#10=(GEOMETRIC_REPRESENTATION_CONTEXT(3)GLOBAL_UNCERTAINTY_ASSIGNED_CONTEXT((#9))GLOBAL_UNIT_ASSIGNED_CONTEXT((#8,#5,#7))REPRESENTATION_CONTEXT('','root'));
#12=CARTESIAN_POINT('',(0.,0.,0.));
#13=DIRECTION('',(0.,0.,1.));
#14=DIRECTION('',(1.,0.,0.));
#15=AXIS2_PLACEMENT_3D('TS3D_PRODUCT_CSYS',#12,#13,#14);
#27=CARTESIAN_POINT('',(0.,0.,0.));
#28=DIRECTION('',(0.,0.,-1.));
#29=DIRECTION('',(-1.,0.,0.));
#30=AXIS2_PLACEMENT_3D('',#27,#28,#29);
#31=PLANE('',#30);
#32=CARTESIAN_POINT('',(153.,61.65,-0.));
#33=VERTEX_POINT('',#32);
#34=CARTESIAN_POINT('',(168.848699944,61.65,0.));
#35=VERTEX_POINT('',#34);
#36=CARTESIAN_POINT('',(153.,61.65,0.));
#37=DIRECTION('',(1.,0.,0.));
#38=VECTOR('',#37,15.848699944);
#39=LINE('',#36,#38);
#40=EDGE_CURVE('',#33,#35,#39,.T.);
#41=ORIENTED_EDGE('',*,*,#40,.F.);
#42=CARTESIAN_POINT('',(153.,63.,0.));
#43=VERTEX_POINT('',#42);
#44=CARTESIAN_POINT('',(153.,63.,0.));
#45=DIRECTION('',(0.,-1.,0.));
#46=VECTOR('',#45,1.35);
#47=LINE('',#44,#46);
#48=EDGE_CURVE('',#43,#33,#47,.T.);
#49=ORIENTED_EDGE('',*,*,#48,.F.);
#50=CARTESIAN_POINT('',(129.9419,63.,0.));
#51=VERTEX_POINT('',#50);
#52=CARTESIAN_POINT('',(129.9419,63.,0.));
#53=DIRECTION('',(1.,0.,-0.));
#54=VECTOR('',#53,23.0581);
#55=LINE('',#52,#54);
#56=EDGE_CURVE('',#51,#43,#55,.T.);
#57=ORIENTED_EDGE('',*,*,#56,.F.);
#58=CARTESIAN_POINT('',(129.9419,61.65,0.));
#59=VERTEX_POINT('',#58);
#60=CARTESIAN_POINT('',(129.9419,61.65,0.));
#61=DIRECTION('',(0.,1.,0.));
#62=VECTOR('',#61,1.35);
#63=LINE('',#60,#62);
#64=EDGE_CURVE('',#59,#51,#63,.T.);
#65=ORIENTED_EDGE('',*,*,#64,.F.);
#66=CARTESIAN_POINT('',(114.591897035,61.65,0.));
#67=VERTEX_POINT('',#66);
#68=CARTESIAN_POINT('',(114.591897035,61.65,0.));
#69=DIRECTION('',(1.,0.,0.));
#70=VECTOR('',#69,15.350002965);
#71=LINE('',#68,#70);
#72=EDGE_CURVE('',#67,#59,#71,.T.);
#73=ORIENTED_EDGE('',*,*,#72,.F.);
#74=CARTESIAN_POINT('',(114.591897035,83.55,0.));
#75=VERTEX_POINT('',#74);
#76=CARTESIAN_POINT('',(114.591897035,83.55,0.));
#77=DIRECTION('',(0.,-1.,0.));
#78=VECTOR('',#77,21.9);
#79=LINE('',#76,#78);
#80=EDGE_CURVE('',#75,#67,#79,.T.);
#81=ORIENTED_EDGE('',*,*,#80,.F.);
#82=CARTESIAN_POINT('',(134.65,83.55,0.));
#83=VERTEX_POINT('',#82);
#84=CARTESIAN_POINT('',(134.65,83.55,0.));
#85=DIRECTION('',(-1.,-0.,0.));
#86=VECTOR('',#85,20.058102965);
#87=LINE('',#84,#86);
#88=EDGE_CURVE('',#83,#75,#87,.T.);
#89=ORIENTED_EDGE('',*,*,#88,.F.);
#90=CARTESIAN_POINT('',(134.65,144.35,0.));
#91=VERTEX_POINT('',#90);
#92=CARTESIAN_POINT('',(134.65,144.35,0.));
#93=DIRECTION('',(0.,-1.,0.));
#94=VECTOR('',#93,60.8);
#95=LINE('',#92,#94);
#96=EDGE_CURVE('',#91,#83,#95,.T.);
#97=ORIENTED_EDGE('',*,*,#96,.F.);
#98=CARTESIAN_POINT('',(168.848699944,144.35,0.));
#99=VERTEX_POINT('',#98);
#100=CARTESIAN_POINT('',(168.848699944,144.35,0.));
#101=DIRECTION('',(-1.,0.,0.));
#102=VECTOR('',#101,34.198699944);
#103=LINE('',#100,#102);
#104=EDGE_CURVE('',#99,#91,#103,.T.);
#105=ORIENTED_EDGE('',*,*,#104,.F.);
#106=CARTESIAN_POINT('',(168.848699944,61.65,0.));
#107=DIRECTION('',(-0.,1.,0.));
#108=VECTOR('',#107,82.7);
#109=LINE('',#106,#108);
#110=EDGE_CURVE('',#35,#99,#109,.T.);
#111=ORIENTED_EDGE('',*,*,#110,.F.);
#112=EDGE_LOOP('',(#41,#49,#57,#65,#73,#81,#89,#97,#105,#111));
#113=FACE_BOUND('',#112,.T.);
#114=ADVANCED_FACE('',(#113),#31,.T.);
#115=CARTESIAN_POINT('',(0.,0.,1.4));
#116=DIRECTION('',(0.,0.,-1.));
#117=DIRECTION('',(-1.,0.,0.));
#118=AXIS2_PLACEMENT_3D('',#115,#116,#117);
#119=PLANE('',#118);
#120=CARTESIAN_POINT('',(168.849913277,142.95,1.4));
#121=VERTEX_POINT('',#120);
#122=CARTESIAN_POINT('',(168.849913277,63.05,1.4));
#123=VERTEX_POINT('',#122);
#124=CARTESIAN_POINT('',(168.849913277,142.95,1.4));
#125=DIRECTION('',(0.,-1.,0.));
#126=VECTOR('',#125,79.9);
#127=LINE('',#124,#126);
#128=EDGE_CURVE('',#121,#123,#127,.T.);
#129=ORIENTED_EDGE('',*,*,#128,.F.);
#130=CARTESIAN_POINT('',(160.85,142.95,1.4));
#131=VERTEX_POINT('',#130);
#132=CARTESIAN_POINT('',(160.85,142.95,1.4));
#133=DIRECTION('',(1.,0.,-0.));
#134=VECTOR('',#133,7.999913277);
#135=LINE('',#132,#134);
#136=EDGE_CURVE('',#131,#121,#135,.T.);
#137=ORIENTED_EDGE('',*,*,#136,.F.);
#138=CARTESIAN_POINT('',(160.85,141.5,1.4));
#139=VERTEX_POINT('',#138);
#140=CARTESIAN_POINT('',(160.85,142.95,1.4));
#141=DIRECTION('',(0.,-1.,0.));
#142=VECTOR('',#141,1.45);
#143=LINE('',#140,#142);
#144=EDGE_CURVE('',#131,#139,#143,.T.);
#145=ORIENTED_EDGE('',*,*,#144,.T.);
#146=CARTESIAN_POINT('',(144.15,141.5,1.4));
#147=VERTEX_POINT('',#146);
#148=CARTESIAN_POINT('',(160.85,141.5,1.4));
#149=DIRECTION('',(-1.,0.,0.));
#150=VECTOR('',#149,16.7);
#151=LINE('',#148,#150);
#152=EDGE_CURVE('',#139,#147,#151,.T.);
#153=ORIENTED_EDGE('',*,*,#152,.T.);
#154=CARTESIAN_POINT('',(144.15,142.95,1.4));
#155=VERTEX_POINT('',#154);
#156=CARTESIAN_POINT('',(144.15,141.5,1.4));
#157=DIRECTION('',(0.,1.,0.));
#158=VECTOR('',#157,1.45);
#159=LINE('',#156,#158);
#160=EDGE_CURVE('',#147,#155,#159,.T.);
#161=ORIENTED_EDGE('',*,*,#160,.T.);
#162=CARTESIAN_POINT('',(136.05,142.95,1.4));
#163=VERTEX_POINT('',#162);
#164=CARTESIAN_POINT('',(136.05,142.95,1.4));
#165=DIRECTION('',(1.,0.,-0.));
#166=VECTOR('',#165,8.1);
#167=LINE('',#164,#166);
#168=EDGE_CURVE('',#163,#155,#167,.T.);
#169=ORIENTED_EDGE('',*,*,#168,.F.);
#170=CARTESIAN_POINT('',(136.05,82.15,1.4));
#171=VERTEX_POINT('',#170);
#172=CARTESIAN_POINT('',(136.05,142.95,1.4));
#173=DIRECTION('',(0.,-1.,0.));
#174=VECTOR('',#173,60.8);
#175=LINE('',#172,#174);
#176=EDGE_CURVE('',#163,#171,#175,.T.);
#177=ORIENTED_EDGE('',*,*,#176,.T.);
#178=CARTESIAN_POINT('',(115.991897035,82.15,1.4));
#179=VERTEX_POINT('',#178);
#180=CARTESIAN_POINT('',(115.991897035,82.15,1.4));
#181=DIRECTION('',(1.,0.,0.));
#182=VECTOR('',#181,20.058102965);
#183=LINE('',#180,#182);
#184=EDGE_CURVE('',#179,#171,#183,.T.);
#185=ORIENTED_EDGE('',*,*,#184,.F.);
#186=CARTESIAN_POINT('',(115.991897035,63.05,1.4));
#187=VERTEX_POINT('',#186);
#188=CARTESIAN_POINT('',(115.991897035,63.05,1.4));
#189=DIRECTION('',(0.,1.,0.));
#190=VECTOR('',#189,19.1);
#191=LINE('',#188,#190);
#192=EDGE_CURVE('',#187,#179,#191,.T.);
#193=ORIENTED_EDGE('',*,*,#192,.F.);
#194=CARTESIAN_POINT('',(122.0919,63.05,1.4));
#195=VERTEX_POINT('',#194);
#196=CARTESIAN_POINT('',(122.0919,63.05,1.4));
#197=DIRECTION('',(-1.,-0.,0.));
#198=VECTOR('',#197,6.100002965);
#199=LINE('',#196,#198);
#200=EDGE_CURVE('',#195,#187,#199,.T.);
#201=ORIENTED_EDGE('',*,*,#200,.F.);
#202=CARTESIAN_POINT('',(122.0919,64.2,1.4));
#203=VERTEX_POINT('',#202);
#204=CARTESIAN_POINT('',(122.0919,63.05,1.4));
#205=DIRECTION('',(0.,1.,0.));
#206=VECTOR('',#205,1.15);
#207=LINE('',#204,#206);
#208=EDGE_CURVE('',#195,#203,#207,.T.);
#209=ORIENTED_EDGE('',*,*,#208,.T.);
#210=CARTESIAN_POINT('',(129.7919,64.2,1.4));
#211=VERTEX_POINT('',#210);
#212=CARTESIAN_POINT('',(122.0919,64.2,1.4));
#213=DIRECTION('',(1.,0.,-0.));
#214=VECTOR('',#213,7.7);
#215=LINE('',#212,#214);
#216=EDGE_CURVE('',#203,#211,#215,.T.);
#217=ORIENTED_EDGE('',*,*,#216,.T.);
#218=CARTESIAN_POINT('',(129.7919,63.05,1.4));
#219=VERTEX_POINT('',#218);
#220=CARTESIAN_POINT('',(129.7919,64.2,1.4));
#221=DIRECTION('',(0.,-1.,0.));
#222=VECTOR('',#221,1.15);
#223=LINE('',#220,#222);
#224=EDGE_CURVE('',#211,#219,#223,.T.);
#225=ORIENTED_EDGE('',*,*,#224,.T.);
#226=CARTESIAN_POINT('',(153.15,63.05,1.4));
#227=VERTEX_POINT('',#226);
#228=CARTESIAN_POINT('',(153.15,63.05,1.4));
#229=DIRECTION('',(-1.,-0.,0.));
#230=VECTOR('',#229,23.3581);
#231=LINE('',#228,#230);
#232=EDGE_CURVE('',#227,#219,#231,.T.);
#233=ORIENTED_EDGE('',*,*,#232,.F.);
#234=CARTESIAN_POINT('',(153.15,64.2,1.4));
#235=VERTEX_POINT('',#234);
#236=CARTESIAN_POINT('',(153.15,64.2,1.4));
#237=DIRECTION('',(0.,-1.,0.));
#238=VECTOR('',#237,1.15);
#239=LINE('',#236,#238);
#240=EDGE_CURVE('',#235,#227,#239,.T.);
#241=ORIENTED_EDGE('',*,*,#240,.F.);
#242=CARTESIAN_POINT('',(160.85,64.2,1.4));
#243=VERTEX_POINT('',#242);
#244=CARTESIAN_POINT('',(153.15,64.2,1.4));
#245=DIRECTION('',(1.,0.,-0.));
#246=VECTOR('',#245,7.7);
#247=LINE('',#244,#246);
#248=EDGE_CURVE('',#235,#243,#247,.T.);
#249=ORIENTED_EDGE('',*,*,#248,.T.);
#250=CARTESIAN_POINT('',(160.85,63.05,1.4));
#251=VERTEX_POINT('',#250);
#252=CARTESIAN_POINT('',(160.85,63.05,1.4));
#253=DIRECTION('',(0.,1.,0.));
#254=VECTOR('',#253,1.15);
#255=LINE('',#252,#254);
#256=EDGE_CURVE('',#251,#243,#255,.T.);
#257=ORIENTED_EDGE('',*,*,#256,.F.);
#258=CARTESIAN_POINT('',(168.849913277,63.05,1.4));
#259=DIRECTION('',(-1.,-0.,0.));
#260=VECTOR('',#259,7.999913277);
#261=LINE('',#258,#260);
#262=EDGE_CURVE('',#123,#251,#261,.T.);
#263=ORIENTED_EDGE('',*,*,#262,.F.);
#264=EDGE_LOOP('',(#129,#137,#145,#153,#161,#169,#177,#185,#193,#201,#209,#217,#225,#233,#241,#249,#257,#263));
#265=FACE_BOUND('',#264,.T.);
#266=ADVANCED_FACE('',(#265),#119,.F.);
#267=CARTESIAN_POINT('',(130.941897035,63.15,1.5));
#268=DIRECTION('',(-0.,0.707106781,-0.707106781));
#269=DIRECTION('',(1.,0.,0.));
#270=AXIS2_PLACEMENT_3D('',#267,#268,#269);
#271=PLANE('',#270);
#272=ORIENTED_EDGE('',*,*,#72,.T.);
#273=CARTESIAN_POINT('',(129.9419,63.,1.35));
#274=VERTEX_POINT('',#273);
#275=CARTESIAN_POINT('',(129.9419,61.65,0.));
#276=DIRECTION('',(0.,0.707106781,0.707106781));
#277=VECTOR('',#276,1.909188309);
#278=LINE('',#275,#277);
#279=EDGE_CURVE('',#59,#274,#278,.T.);
#280=ORIENTED_EDGE('',*,*,#279,.T.);
#281=CARTESIAN_POINT('',(153.,63.,1.35));
#282=VERTEX_POINT('',#281);
#283=CARTESIAN_POINT('',(129.9419,63.,1.35));
#284=DIRECTION('',(1.,0.,-0.));
#285=VECTOR('',#284,23.0581);
#286=LINE('',#283,#285);
#287=EDGE_CURVE('',#274,#282,#286,.T.);
#288=ORIENTED_EDGE('',*,*,#287,.T.);
#289=CARTESIAN_POINT('',(153.,63.,1.35));
#290=DIRECTION('',(0.,-0.707106781,-0.707106781));
#291=VECTOR('',#290,1.909188309);
#292=LINE('',#289,#291);
#293=EDGE_CURVE('',#282,#33,#292,.T.);
#294=ORIENTED_EDGE('',*,*,#293,.T.);
#295=ORIENTED_EDGE('',*,*,#40,.T.);
#296=CARTESIAN_POINT('',(168.848699944,61.65,-0.));
#297=DIRECTION('',(0.000612826,0.707106648,0.707106648));
#298=VECTOR('',#297,1.979899359);
#299=LINE('',#296,#298);
#300=EDGE_CURVE('',#35,#123,#299,.T.);
#301=ORIENTED_EDGE('',*,*,#300,.T.);
#302=ORIENTED_EDGE('',*,*,#262,.T.);
#303=CARTESIAN_POINT('',(160.85,63.15,1.5));
#304=VERTEX_POINT('',#303);
#305=CARTESIAN_POINT('',(160.85,63.15,1.5));
#306=DIRECTION('',(0.,-0.707106781,-0.707106781));
#307=VECTOR('',#306,0.141421356);
#308=LINE('',#305,#307);
#309=EDGE_CURVE('',#304,#251,#308,.T.);
#310=ORIENTED_EDGE('',*,*,#309,.F.);
#311=CARTESIAN_POINT('',(153.15,63.15,1.5));
#312=VERTEX_POINT('',#311);
#313=CARTESIAN_POINT('',(160.85,63.15,1.5));
#314=DIRECTION('',(-1.,-0.,0.));
#315=VECTOR('',#314,7.7);
#316=LINE('',#313,#315);
#317=EDGE_CURVE('',#304,#312,#316,.T.);
#318=ORIENTED_EDGE('',*,*,#317,.T.);
#319=CARTESIAN_POINT('',(153.15,63.15,1.5));
#320=DIRECTION('',(0.,-0.707106781,-0.707106781));
#321=VECTOR('',#320,0.141421356);
#322=LINE('',#319,#321);
#323=EDGE_CURVE('',#312,#227,#322,.T.);
#324=ORIENTED_EDGE('',*,*,#323,.T.);
#325=ORIENTED_EDGE('',*,*,#232,.T.);
#326=CARTESIAN_POINT('',(129.7919,63.15,1.5));
#327=VERTEX_POINT('',#326);
#328=CARTESIAN_POINT('',(129.7919,63.15,1.5));
#329=DIRECTION('',(0.,-0.707106781,-0.707106781));
#330=VECTOR('',#329,0.141421356);
#331=LINE('',#328,#330);
#332=EDGE_CURVE('',#327,#219,#331,.T.);
#333=ORIENTED_EDGE('',*,*,#332,.F.);
#334=CARTESIAN_POINT('',(122.0919,63.15,1.5));
#335=VERTEX_POINT('',#334);
#336=CARTESIAN_POINT('',(129.7919,63.15,1.5));
#337=DIRECTION('',(-1.,-0.,0.));
#338=VECTOR('',#337,7.7);
#339=LINE('',#336,#338);
#340=EDGE_CURVE('',#327,#335,#339,.T.);
#341=ORIENTED_EDGE('',*,*,#340,.T.);
#342=CARTESIAN_POINT('',(122.0919,63.15,1.5));
#343=DIRECTION('',(0.,-0.707106781,-0.707106781));
#344=VECTOR('',#343,0.141421356);
#345=LINE('',#342,#344);
#346=EDGE_CURVE('',#335,#195,#345,.T.);
#347=ORIENTED_EDGE('',*,*,#346,.T.);
#348=ORIENTED_EDGE('',*,*,#200,.T.);
#349=CARTESIAN_POINT('',(114.591897035,61.65,0.));
#350=DIRECTION('',(0.577350269,0.577350269,0.577350269));
#351=VECTOR('',#350,2.424871131);
#352=LINE('',#349,#351);
#353=EDGE_CURVE('',#67,#187,#352,.T.);
#354=ORIENTED_EDGE('',*,*,#353,.F.);
#355=EDGE_LOOP('',(#272,#280,#288,#294,#295,#301,#302,#310,#318,#324,#325,#333,#341,#347,#348,#354));
#356=FACE_BOUND('',#355,.T.);
#357=ADVANCED_FACE('',(#356),#271,.F.);
#358=CARTESIAN_POINT('',(116.091897035,72.6,1.5));
#359=DIRECTION('',(0.707106781,0.,-0.707106781));
#360=DIRECTION('',(0.,-1.,0.));
#361=AXIS2_PLACEMENT_3D('',#358,#359,#360);
#362=PLANE('',#361);
#363=CARTESIAN_POINT('',(115.991897035,82.15,1.4));
#364=DIRECTION('',(-0.577350269,0.577350269,-0.577350269));
#365=VECTOR('',#364,2.424871131);
#366=LINE('',#363,#365);
#367=EDGE_CURVE('',#179,#75,#366,.T.);
#368=ORIENTED_EDGE('',*,*,#367,.T.);
#369=ORIENTED_EDGE('',*,*,#80,.T.);
#370=ORIENTED_EDGE('',*,*,#353,.T.);
#371=ORIENTED_EDGE('',*,*,#192,.T.);
#372=EDGE_LOOP('',(#368,#369,#370,#371));
#373=FACE_BOUND('',#372,.T.);
#374=ADVANCED_FACE('',(#373),#362,.F.);
#375=CARTESIAN_POINT('',(130.941897035,82.05,1.5));
#376=DIRECTION('',(0.,-0.707106781,-0.707106781));
#377=DIRECTION('',(-1.,-0.,0.));
#378=AXIS2_PLACEMENT_3D('',#375,#376,#377);
#379=PLANE('',#378);
#380=ORIENTED_EDGE('',*,*,#184,.T.);
#381=CARTESIAN_POINT('',(136.05,82.15,1.4));
#382=DIRECTION('',(-0.577350269,0.577350269,-0.577350269));
#383=VECTOR('',#382,2.424871131);
#384=LINE('',#381,#383);
#385=EDGE_CURVE('',#171,#83,#384,.T.);
#386=ORIENTED_EDGE('',*,*,#385,.T.);
#387=ORIENTED_EDGE('',*,*,#88,.T.);
#388=ORIENTED_EDGE('',*,*,#367,.F.);
#389=EDGE_LOOP('',(#380,#386,#387,#388));
#390=FACE_BOUND('',#389,.T.);
#391=ADVANCED_FACE('',(#390),#379,.F.);
#392=CARTESIAN_POINT('',(-1.,144.35,0.));
#393=DIRECTION('',(0.,-0.707106781,-0.707106781));
#394=DIRECTION('',(1.,0.,0.));
#395=AXIS2_PLACEMENT_3D('',#392,#393,#394);
#396=PLANE('',#395);
#397=ORIENTED_EDGE('',*,*,#136,.T.);
#398=CARTESIAN_POINT('',(168.849913277,142.95,1.4));
#399=DIRECTION('',(-0.000612826,0.707106648,-0.707106648));
#400=VECTOR('',#399,1.979899359);
#401=LINE('',#398,#400);
#402=EDGE_CURVE('',#121,#99,#401,.T.);
#403=ORIENTED_EDGE('',*,*,#402,.T.);
#404=ORIENTED_EDGE('',*,*,#104,.T.);
#405=CARTESIAN_POINT('',(134.65,144.35,0.));
#406=DIRECTION('',(0.577350269,-0.577350269,0.577350269));
#407=VECTOR('',#406,2.424871131);
#408=LINE('',#405,#407);
#409=EDGE_CURVE('',#91,#163,#408,.T.);
#410=ORIENTED_EDGE('',*,*,#409,.T.);
#411=ORIENTED_EDGE('',*,*,#168,.T.);
#412=CARTESIAN_POINT('',(144.15,142.85,1.5));
#413=VERTEX_POINT('',#412);
#414=CARTESIAN_POINT('',(144.15,142.85,1.5));
#415=DIRECTION('',(0.,0.707106781,-0.707106781));
#416=VECTOR('',#415,0.141421356);
#417=LINE('',#414,#416);
#418=EDGE_CURVE('',#413,#155,#417,.T.);
#419=ORIENTED_EDGE('',*,*,#418,.F.);
#420=CARTESIAN_POINT('',(160.85,142.85,1.5));
#421=VERTEX_POINT('',#420);
#422=CARTESIAN_POINT('',(144.15,142.85,1.5));
#423=DIRECTION('',(1.,0.,-0.));
#424=VECTOR('',#423,16.7);
#425=LINE('',#422,#424);
#426=EDGE_CURVE('',#413,#421,#425,.T.);
#427=ORIENTED_EDGE('',*,*,#426,.T.);
#428=CARTESIAN_POINT('',(160.85,142.85,1.5));
#429=DIRECTION('',(0.,0.707106781,-0.707106781));
#430=VECTOR('',#429,0.141421356);
#431=LINE('',#428,#430);
#432=EDGE_CURVE('',#421,#131,#431,.T.);
#433=ORIENTED_EDGE('',*,*,#432,.T.);
#434=EDGE_LOOP('',(#397,#403,#404,#410,#411,#419,#427,#433));
#435=FACE_BOUND('',#434,.T.);
#436=ADVANCED_FACE('',(#435),#396,.F.);
#437=CARTESIAN_POINT('',(134.65,0.,0.));
#438=DIRECTION('',(0.707106781,0.,-0.707106781));
#439=DIRECTION('',(0.,1.,0.));
#440=AXIS2_PLACEMENT_3D('',#437,#438,#439);
#441=PLANE('',#440);
#442=ORIENTED_EDGE('',*,*,#409,.F.);
#443=ORIENTED_EDGE('',*,*,#96,.T.);
#444=ORIENTED_EDGE('',*,*,#385,.F.);
#445=ORIENTED_EDGE('',*,*,#176,.F.);
#446=EDGE_LOOP('',(#442,#443,#444,#445));
#447=FACE_BOUND('',#446,.T.);
#448=ADVANCED_FACE('',(#447),#441,.F.);
#449=CARTESIAN_POINT('',(144.15,144.,3.25));
#450=DIRECTION('',(-1.,0.,0.));
#451=DIRECTION('',(0.,0.,1.));
#452=AXIS2_PLACEMENT_3D('',#449,#450,#451);
#453=PLANE('',#452);
#454=ORIENTED_EDGE('',*,*,#160,.F.);
#455=CARTESIAN_POINT('',(144.15,141.5,2.8));
#456=VERTEX_POINT('',#455);
#457=CARTESIAN_POINT('',(144.15,141.5,2.8));
#458=DIRECTION('',(0.,0.,-1.));
#459=VECTOR('',#458,1.4);
#460=LINE('',#457,#459);
#461=EDGE_CURVE('',#456,#147,#460,.T.);
#462=ORIENTED_EDGE('',*,*,#461,.F.);
#463=CARTESIAN_POINT('',(144.15,145.,2.8));
#464=VERTEX_POINT('',#463);
#465=CARTESIAN_POINT('',(144.15,141.5,2.8));
#466=DIRECTION('',(0.,1.,0.));
#467=VECTOR('',#466,3.5);
#468=LINE('',#465,#467);
#469=EDGE_CURVE('',#456,#464,#468,.T.);
#470=ORIENTED_EDGE('',*,*,#469,.T.);
#471=CARTESIAN_POINT('',(144.15,145.,2.25));
#472=VERTEX_POINT('',#471);
#473=CARTESIAN_POINT('',(144.15,145.,2.8));
#474=DIRECTION('',(0.,0.,-1.));
#475=VECTOR('',#474,0.55);
#476=LINE('',#473,#475);
#477=EDGE_CURVE('',#464,#472,#476,.T.);
#478=ORIENTED_EDGE('',*,*,#477,.T.);
#479=CARTESIAN_POINT('',(144.15,142.85,1.5));
#480=DIRECTION('',(0.,0.944200181,0.329372156));
#481=VECTOR('',#480,2.277059507);
#482=LINE('',#479,#481);
#483=EDGE_CURVE('',#413,#472,#482,.T.);
#484=ORIENTED_EDGE('',*,*,#483,.F.);
#485=ORIENTED_EDGE('',*,*,#418,.T.);
#486=EDGE_LOOP('',(#454,#462,#470,#478,#484,#485));
#487=FACE_BOUND('',#486,.T.);
#488=ADVANCED_FACE('',(#487),#453,.T.);
#489=CARTESIAN_POINT('',(152.5,141.5,2.5));
#490=DIRECTION('',(0.,-1.,0.));
#491=DIRECTION('',(0.,0.,-1.));
#492=AXIS2_PLACEMENT_3D('',#489,#490,#491);
#493=PLANE('',#492);
#494=ORIENTED_EDGE('',*,*,#152,.F.);
#495=CARTESIAN_POINT('',(160.85,141.5,2.8));
#496=VERTEX_POINT('',#495);
#497=CARTESIAN_POINT('',(160.85,141.5,2.8));
#498=DIRECTION('',(0.,0.,-1.));
#499=VECTOR('',#498,1.4);
#500=LINE('',#497,#499);
#501=EDGE_CURVE('',#496,#139,#500,.T.);
#502=ORIENTED_EDGE('',*,*,#501,.F.);
#503=CARTESIAN_POINT('',(160.85,141.5,2.8));
#504=DIRECTION('',(-1.,0.,0.));
#505=VECTOR('',#504,16.7);
#506=LINE('',#503,#505);
#507=EDGE_CURVE('',#496,#456,#506,.T.);
#508=ORIENTED_EDGE('',*,*,#507,.T.);
#509=ORIENTED_EDGE('',*,*,#461,.T.);
#510=EDGE_LOOP('',(#494,#502,#508,#509));
#511=FACE_BOUND('',#510,.T.);
#512=ADVANCED_FACE('',(#511),#493,.T.);
#513=CARTESIAN_POINT('',(160.85,144.,3.25));
#514=DIRECTION('',(1.,0.,0.));
#515=DIRECTION('',(0.,0.,-1.));
#516=AXIS2_PLACEMENT_3D('',#513,#514,#515);
#517=PLANE('',#516);
#518=CARTESIAN_POINT('',(160.85,145.,2.25));
#519=VERTEX_POINT('',#518);
#520=CARTESIAN_POINT('',(160.85,145.,2.25));
#521=DIRECTION('',(0.,-0.944200181,-0.329372156));
#522=VECTOR('',#521,2.277059507);
#523=LINE('',#520,#522);
#524=EDGE_CURVE('',#519,#421,#523,.T.);
#525=ORIENTED_EDGE('',*,*,#524,.F.);
#526=CARTESIAN_POINT('',(160.85,145.,2.8));
#527=VERTEX_POINT('',#526);
#528=CARTESIAN_POINT('',(160.85,145.,2.8));
#529=DIRECTION('',(0.,0.,-1.));
#530=VECTOR('',#529,0.55);
#531=LINE('',#528,#530);
#532=EDGE_CURVE('',#527,#519,#531,.T.);
#533=ORIENTED_EDGE('',*,*,#532,.F.);
#534=CARTESIAN_POINT('',(160.85,145.,2.8));
#535=DIRECTION('',(0.,-1.,0.));
#536=VECTOR('',#535,3.5);
#537=LINE('',#534,#536);
#538=EDGE_CURVE('',#527,#496,#537,.T.);
#539=ORIENTED_EDGE('',*,*,#538,.T.);
#540=ORIENTED_EDGE('',*,*,#501,.T.);
#541=ORIENTED_EDGE('',*,*,#144,.F.);
#542=ORIENTED_EDGE('',*,*,#432,.F.);
#543=EDGE_LOOP('',(#525,#533,#539,#540,#541,#542));
#544=FACE_BOUND('',#543,.T.);
#545=ADVANCED_FACE('',(#544),#517,.T.);
#546=CARTESIAN_POINT('',(152.5,145.,3.25));
#547=DIRECTION('',(0.,1.,0.));
#548=DIRECTION('',(0.,0.,1.));
#549=AXIS2_PLACEMENT_3D('',#546,#547,#548);
#550=PLANE('',#549);
#551=CARTESIAN_POINT('',(144.15,145.,2.25));
#552=DIRECTION('',(1.,0.,-0.));
#553=VECTOR('',#552,16.7);
#554=LINE('',#551,#553);
#555=EDGE_CURVE('',#472,#519,#554,.T.);
#556=ORIENTED_EDGE('',*,*,#555,.F.);
#557=ORIENTED_EDGE('',*,*,#477,.F.);
#558=CARTESIAN_POINT('',(144.15,145.,2.8));
#559=DIRECTION('',(1.,0.,-0.));
#560=VECTOR('',#559,16.7);
#561=LINE('',#558,#560);
#562=EDGE_CURVE('',#464,#527,#561,.T.);
#563=ORIENTED_EDGE('',*,*,#562,.T.);
#564=ORIENTED_EDGE('',*,*,#532,.T.);
#565=EDGE_LOOP('',(#556,#557,#563,#564));
#566=FACE_BOUND('',#565,.T.);
#567=ADVANCED_FACE('',(#566),#550,.T.);
#568=CARTESIAN_POINT('',(0.,0.,2.8));
#569=DIRECTION('',(0.,0.,1.));
#570=DIRECTION('',(1.,0.,0.));
#571=AXIS2_PLACEMENT_3D('',#568,#569,#570);
#572=PLANE('',#571);
#573=ORIENTED_EDGE('',*,*,#469,.F.);
#574=ORIENTED_EDGE('',*,*,#507,.F.);
#575=ORIENTED_EDGE('',*,*,#538,.F.);
#576=ORIENTED_EDGE('',*,*,#562,.F.);
#577=EDGE_LOOP('',(#573,#574,#575,#576));
#578=FACE_BOUND('',#577,.T.);
#579=ADVANCED_FACE('',(#578),#572,.T.);
#580=CARTESIAN_POINT('',(0.,15.030737705,-43.088114754));
#581=DIRECTION('',(0.,0.329372156,-0.944200181));
#582=DIRECTION('',(0.,0.944200181,0.329372156));
#583=AXIS2_PLACEMENT_3D('',#580,#581,#582);
#584=PLANE('',#583);
#585=ORIENTED_EDGE('',*,*,#426,.F.);
#586=ORIENTED_EDGE('',*,*,#483,.T.);
#587=ORIENTED_EDGE('',*,*,#555,.T.);
#588=ORIENTED_EDGE('',*,*,#524,.T.);
#589=EDGE_LOOP('',(#585,#586,#587,#588));
#590=FACE_BOUND('',#589,.T.);
#591=ADVANCED_FACE('',(#590),#584,.T.);
#592=CARTESIAN_POINT('',(129.7919,62.6,3.55));
#593=DIRECTION('',(1.,0.,0.));
#594=DIRECTION('',(0.,0.,-1.));
#595=AXIS2_PLACEMENT_3D('',#592,#593,#594);
#596=PLANE('',#595);
#597=ORIENTED_EDGE('',*,*,#224,.F.);
#598=CARTESIAN_POINT('',(129.7919,64.2,2.8));
#599=VERTEX_POINT('',#598);
#600=CARTESIAN_POINT('',(129.7919,64.2,2.8));
#601=DIRECTION('',(0.,0.,-1.));
#602=VECTOR('',#601,1.4);
#603=LINE('',#600,#602);
#604=EDGE_CURVE('',#599,#211,#603,.T.);
#605=ORIENTED_EDGE('',*,*,#604,.F.);
#606=CARTESIAN_POINT('',(129.7919,61.,2.8));
#607=VERTEX_POINT('',#606);
#608=CARTESIAN_POINT('',(129.7919,64.2,2.8));
#609=DIRECTION('',(0.,-1.,0.));
#610=VECTOR('',#609,3.2);
#611=LINE('',#608,#610);
#612=EDGE_CURVE('',#599,#607,#611,.T.);
#613=ORIENTED_EDGE('',*,*,#612,.T.);
#614=CARTESIAN_POINT('',(129.7919,61.,2.25));
#615=VERTEX_POINT('',#614);
#616=CARTESIAN_POINT('',(129.7919,61.,2.8));
#617=DIRECTION('',(0.,0.,-1.));
#618=VECTOR('',#617,0.55);
#619=LINE('',#616,#618);
#620=EDGE_CURVE('',#607,#615,#619,.T.);
#621=ORIENTED_EDGE('',*,*,#620,.T.);
#622=CARTESIAN_POINT('',(129.7919,63.15,1.5));
#623=DIRECTION('',(0.,-0.944200181,0.329372156));
#624=VECTOR('',#623,2.277059507);
#625=LINE('',#622,#624);
#626=EDGE_CURVE('',#327,#615,#625,.T.);
#627=ORIENTED_EDGE('',*,*,#626,.F.);
#628=ORIENTED_EDGE('',*,*,#332,.T.);
#629=EDGE_LOOP('',(#597,#605,#613,#621,#627,#628));
#630=FACE_BOUND('',#629,.T.);
#631=ADVANCED_FACE('',(#630),#596,.T.);
#632=CARTESIAN_POINT('',(125.9419,64.2,2.8));
#633=DIRECTION('',(0.,1.,0.));
#634=DIRECTION('',(0.,0.,1.));
#635=AXIS2_PLACEMENT_3D('',#632,#633,#634);
#636=PLANE('',#635);
#637=ORIENTED_EDGE('',*,*,#216,.F.);
#638=CARTESIAN_POINT('',(122.0919,64.2,2.8));
#639=VERTEX_POINT('',#638);
#640=CARTESIAN_POINT('',(122.0919,64.2,2.8));
#641=DIRECTION('',(0.,0.,-1.));
#642=VECTOR('',#641,1.4);
#643=LINE('',#640,#642);
#644=EDGE_CURVE('',#639,#203,#643,.T.);
#645=ORIENTED_EDGE('',*,*,#644,.F.);
#646=CARTESIAN_POINT('',(122.0919,64.2,2.8));
#647=DIRECTION('',(1.,0.,-0.));
#648=VECTOR('',#647,7.7);
#649=LINE('',#646,#648);
#650=EDGE_CURVE('',#639,#599,#649,.T.);
#651=ORIENTED_EDGE('',*,*,#650,.T.);
#652=ORIENTED_EDGE('',*,*,#604,.T.);
#653=EDGE_LOOP('',(#637,#645,#651,#652));
#654=FACE_BOUND('',#653,.T.);
#655=ADVANCED_FACE('',(#654),#636,.T.);
#656=CARTESIAN_POINT('',(122.0919,62.6,3.55));
#657=DIRECTION('',(-1.,0.,0.));
#658=DIRECTION('',(0.,0.,1.));
#659=AXIS2_PLACEMENT_3D('',#656,#657,#658);
#660=PLANE('',#659);
#661=CARTESIAN_POINT('',(122.0919,61.,2.25));
#662=VERTEX_POINT('',#661);
#663=CARTESIAN_POINT('',(122.0919,61.,2.25));
#664=DIRECTION('',(0.,0.944200181,-0.329372156));
#665=VECTOR('',#664,2.277059507);
#666=LINE('',#663,#665);
#667=EDGE_CURVE('',#662,#335,#666,.T.);
#668=ORIENTED_EDGE('',*,*,#667,.F.);
#669=CARTESIAN_POINT('',(122.0919,61.,2.8));
#670=VERTEX_POINT('',#669);
#671=CARTESIAN_POINT('',(122.0919,61.,2.8));
#672=DIRECTION('',(0.,0.,-1.));
#673=VECTOR('',#672,0.55);
#674=LINE('',#671,#673);
#675=EDGE_CURVE('',#670,#662,#674,.T.);
#676=ORIENTED_EDGE('',*,*,#675,.F.);
#677=CARTESIAN_POINT('',(122.0919,61.,2.8));
#678=DIRECTION('',(0.,1.,0.));
#679=VECTOR('',#678,3.2);
#680=LINE('',#677,#679);
#681=EDGE_CURVE('',#670,#639,#680,.T.);
#682=ORIENTED_EDGE('',*,*,#681,.T.);
#683=ORIENTED_EDGE('',*,*,#644,.T.);
#684=ORIENTED_EDGE('',*,*,#208,.F.);
#685=ORIENTED_EDGE('',*,*,#346,.F.);
#686=EDGE_LOOP('',(#668,#676,#682,#683,#684,#685));
#687=FACE_BOUND('',#686,.T.);
#688=ADVANCED_FACE('',(#687),#660,.T.);
#689=CARTESIAN_POINT('',(125.9419,61.,3.55));
#690=DIRECTION('',(0.,-1.,0.));
#691=DIRECTION('',(0.,0.,-1.));
#692=AXIS2_PLACEMENT_3D('',#689,#690,#691);
#693=PLANE('',#692);
#694=CARTESIAN_POINT('',(129.7919,61.,2.25));
#695=DIRECTION('',(-1.,0.,0.));
#696=VECTOR('',#695,7.7);
#697=LINE('',#694,#696);
#698=EDGE_CURVE('',#615,#662,#697,.T.);
#699=ORIENTED_EDGE('',*,*,#698,.F.);
#700=ORIENTED_EDGE('',*,*,#620,.F.);
#701=CARTESIAN_POINT('',(129.7919,61.,2.8));
#702=DIRECTION('',(-1.,0.,0.));
#703=VECTOR('',#702,7.7);
#704=LINE('',#701,#703);
#705=EDGE_CURVE('',#607,#670,#704,.T.);
#706=ORIENTED_EDGE('',*,*,#705,.T.);
#707=ORIENTED_EDGE('',*,*,#675,.T.);
#708=EDGE_LOOP('',(#699,#700,#706,#707));
#709=FACE_BOUND('',#708,.T.);
#710=ADVANCED_FACE('',(#709),#693,.T.);
#711=CARTESIAN_POINT('',(0.,0.,2.8));
#712=DIRECTION('',(0.,0.,1.));
#713=DIRECTION('',(1.,0.,0.));
#714=AXIS2_PLACEMENT_3D('',#711,#712,#713);
#715=PLANE('',#714);
#716=ORIENTED_EDGE('',*,*,#612,.F.);
#717=ORIENTED_EDGE('',*,*,#650,.F.);
#718=ORIENTED_EDGE('',*,*,#681,.F.);
#719=ORIENTED_EDGE('',*,*,#705,.F.);
#720=EDGE_LOOP('',(#716,#717,#718,#719));
#721=FACE_BOUND('',#720,.T.);
#722=ADVANCED_FACE('',(#721),#715,.T.);
#723=CARTESIAN_POINT('',(-0.,7.317381871,20.976494696));
#724=DIRECTION('',(0.,-0.329372156,-0.944200181));
#725=DIRECTION('',(0.,0.944200181,-0.329372156));
#726=AXIS2_PLACEMENT_3D('',#723,#724,#725);
#727=PLANE('',#726);
#728=ORIENTED_EDGE('',*,*,#340,.F.);
#729=ORIENTED_EDGE('',*,*,#626,.T.);
#730=ORIENTED_EDGE('',*,*,#698,.T.);
#731=ORIENTED_EDGE('',*,*,#667,.T.);
#732=EDGE_LOOP('',(#728,#729,#730,#731));
#733=FACE_BOUND('',#732,.T.);
#734=ADVANCED_FACE('',(#733),#727,.T.);
#735=CARTESIAN_POINT('',(153.15,62.6,3.55));
#736=DIRECTION('',(1.,0.,0.));
#737=DIRECTION('',(0.,0.,-1.));
#738=AXIS2_PLACEMENT_3D('',#735,#736,#737);
#739=PLANE('',#738);
#740=ORIENTED_EDGE('',*,*,#240,.T.);
#741=ORIENTED_EDGE('',*,*,#323,.F.);
#742=CARTESIAN_POINT('',(153.15,61.,2.25));
#743=VERTEX_POINT('',#742);
#744=CARTESIAN_POINT('',(153.15,63.15,1.5));
#745=DIRECTION('',(0.,-0.944200181,0.329372156));
#746=VECTOR('',#745,2.277059507);
#747=LINE('',#744,#746);
#748=EDGE_CURVE('',#312,#743,#747,.T.);
#749=ORIENTED_EDGE('',*,*,#748,.T.);
#750=CARTESIAN_POINT('',(153.15,61.,2.8));
#751=VERTEX_POINT('',#750);
#752=CARTESIAN_POINT('',(153.15,61.,2.8));
#753=DIRECTION('',(0.,0.,-1.));
#754=VECTOR('',#753,0.55);
#755=LINE('',#752,#754);
#756=EDGE_CURVE('',#751,#743,#755,.T.);
#757=ORIENTED_EDGE('',*,*,#756,.F.);
#758=CARTESIAN_POINT('',(153.15,64.2,2.8));
#759=VERTEX_POINT('',#758);
#760=CARTESIAN_POINT('',(153.15,64.2,2.8));
#761=DIRECTION('',(0.,-1.,0.));
#762=VECTOR('',#761,3.2);
#763=LINE('',#760,#762);
#764=EDGE_CURVE('',#759,#751,#763,.T.);
#765=ORIENTED_EDGE('',*,*,#764,.F.);
#766=CARTESIAN_POINT('',(153.15,64.2,2.8));
#767=DIRECTION('',(0.,0.,-1.));
#768=VECTOR('',#767,1.4);
#769=LINE('',#766,#768);
#770=EDGE_CURVE('',#759,#235,#769,.T.);
#771=ORIENTED_EDGE('',*,*,#770,.T.);
#772=EDGE_LOOP('',(#740,#741,#749,#757,#765,#771));
#773=FACE_BOUND('',#772,.T.);
#774=ADVANCED_FACE('',(#773),#739,.F.);
#775=CARTESIAN_POINT('',(157.,61.,3.55));
#776=DIRECTION('',(0.,-1.,0.));
#777=DIRECTION('',(0.,0.,-1.));
#778=AXIS2_PLACEMENT_3D('',#775,#776,#777);
#779=PLANE('',#778);
#780=CARTESIAN_POINT('',(160.85,61.,2.25));
#781=VERTEX_POINT('',#780);
#782=CARTESIAN_POINT('',(160.85,61.,2.25));
#783=DIRECTION('',(-1.,0.,0.));
#784=VECTOR('',#783,7.7);
#785=LINE('',#782,#784);
#786=EDGE_CURVE('',#781,#743,#785,.T.);
#787=ORIENTED_EDGE('',*,*,#786,.F.);
#788=CARTESIAN_POINT('',(160.85,61.,2.8));
#789=VERTEX_POINT('',#788);
#790=CARTESIAN_POINT('',(160.85,61.,2.8));
#791=DIRECTION('',(0.,0.,-1.));
#792=VECTOR('',#791,0.55);
#793=LINE('',#790,#792);
#794=EDGE_CURVE('',#789,#781,#793,.T.);
#795=ORIENTED_EDGE('',*,*,#794,.F.);
#796=CARTESIAN_POINT('',(160.85,61.,2.8));
#797=DIRECTION('',(-1.,0.,0.));
#798=VECTOR('',#797,7.7);
#799=LINE('',#796,#798);
#800=EDGE_CURVE('',#789,#751,#799,.T.);
#801=ORIENTED_EDGE('',*,*,#800,.T.);
#802=ORIENTED_EDGE('',*,*,#756,.T.);
#803=EDGE_LOOP('',(#787,#795,#801,#802));
#804=FACE_BOUND('',#803,.T.);
#805=ADVANCED_FACE('',(#804),#779,.T.);
#806=CARTESIAN_POINT('',(160.85,62.6,3.55));
#807=DIRECTION('',(-1.,0.,0.));
#808=DIRECTION('',(0.,0.,1.));
#809=AXIS2_PLACEMENT_3D('',#806,#807,#808);
#810=PLANE('',#809);
#811=CARTESIAN_POINT('',(160.85,61.,2.25));
#812=DIRECTION('',(0.,0.944200181,-0.329372156));
#813=VECTOR('',#812,2.277059507);
#814=LINE('',#811,#813);
#815=EDGE_CURVE('',#781,#304,#814,.T.);
#816=ORIENTED_EDGE('',*,*,#815,.T.);
#817=ORIENTED_EDGE('',*,*,#309,.T.);
#818=ORIENTED_EDGE('',*,*,#256,.T.);
#819=CARTESIAN_POINT('',(160.85,64.2,2.8));
#820=VERTEX_POINT('',#819);
#821=CARTESIAN_POINT('',(160.85,64.2,2.8));
#822=DIRECTION('',(0.,0.,-1.));
#823=VECTOR('',#822,1.4);
#824=LINE('',#821,#823);
#825=EDGE_CURVE('',#820,#243,#824,.T.);
#826=ORIENTED_EDGE('',*,*,#825,.F.);
#827=CARTESIAN_POINT('',(160.85,61.,2.8));
#828=DIRECTION('',(0.,1.,0.));
#829=VECTOR('',#828,3.2);
#830=LINE('',#827,#829);
#831=EDGE_CURVE('',#789,#820,#830,.T.);
#832=ORIENTED_EDGE('',*,*,#831,.F.);
#833=ORIENTED_EDGE('',*,*,#794,.T.);
#834=EDGE_LOOP('',(#816,#817,#818,#826,#832,#833));
#835=FACE_BOUND('',#834,.T.);
#836=ADVANCED_FACE('',(#835),#810,.F.);
#837=CARTESIAN_POINT('',(157.,64.2,2.8));
#838=DIRECTION('',(0.,1.,0.));
#839=DIRECTION('',(0.,0.,1.));
#840=AXIS2_PLACEMENT_3D('',#837,#838,#839);
#841=PLANE('',#840);
#842=ORIENTED_EDGE('',*,*,#248,.F.);
#843=ORIENTED_EDGE('',*,*,#770,.F.);
#844=CARTESIAN_POINT('',(153.15,64.2,2.8));
#845=DIRECTION('',(1.,0.,-0.));
#846=VECTOR('',#845,7.7);
#847=LINE('',#844,#846);
#848=EDGE_CURVE('',#759,#820,#847,.T.);
#849=ORIENTED_EDGE('',*,*,#848,.T.);
#850=ORIENTED_EDGE('',*,*,#825,.T.);
#851=EDGE_LOOP('',(#842,#843,#849,#850));
#852=FACE_BOUND('',#851,.T.);
#853=ADVANCED_FACE('',(#852),#841,.T.);
#854=CARTESIAN_POINT('',(0.,0.,2.8));
#855=DIRECTION('',(0.,0.,1.));
#856=DIRECTION('',(1.,0.,0.));
#857=AXIS2_PLACEMENT_3D('',#854,#855,#856);
#858=PLANE('',#857);
#859=ORIENTED_EDGE('',*,*,#764,.T.);
#860=ORIENTED_EDGE('',*,*,#800,.F.);
#861=ORIENTED_EDGE('',*,*,#831,.T.);
#862=ORIENTED_EDGE('',*,*,#848,.F.);
#863=EDGE_LOOP('',(#859,#860,#861,#862));
#864=FACE_BOUND('',#863,.T.);
#865=ADVANCED_FACE('',(#864),#858,.T.);
#866=CARTESIAN_POINT('',(0.,7.317381871,20.976494696));
#867=DIRECTION('',(0.,-0.329372156,-0.944200181));
#868=DIRECTION('',(0.,0.944200181,-0.329372156));
#869=AXIS2_PLACEMENT_3D('',#866,#867,#868);
#870=PLANE('',#869);
#871=ORIENTED_EDGE('',*,*,#317,.F.);
#872=ORIENTED_EDGE('',*,*,#815,.F.);
#873=ORIENTED_EDGE('',*,*,#786,.T.);
#874=ORIENTED_EDGE('',*,*,#748,.F.);
#875=EDGE_LOOP('',(#871,#872,#873,#874));
#876=FACE_BOUND('',#875,.T.);
#877=ADVANCED_FACE('',(#876),#870,.T.);
#878=CARTESIAN_POINT('',(168.84857312,0.,-0.14633543));
#879=DIRECTION('',(-0.999999624,-0.,0.000866666));
#880=DIRECTION('',(0.000866666,-0.,0.999999624));
#881=AXIS2_PLACEMENT_3D('',#878,#879,#880);
#882=PLANE('',#881);
#883=ORIENTED_EDGE('',*,*,#402,.F.);
#884=ORIENTED_EDGE('',*,*,#128,.T.);
#885=ORIENTED_EDGE('',*,*,#300,.F.);
#886=ORIENTED_EDGE('',*,*,#110,.T.);
#887=EDGE_LOOP('',(#883,#884,#885,#886));
#888=FACE_BOUND('',#887,.T.);
#889=ADVANCED_FACE('',(#888),#882,.F.);
#890=CARTESIAN_POINT('',(153.,62.5,-3.8));
#891=DIRECTION('',(1.,0.,0.));
#892=DIRECTION('',(0.,0.,-1.));
#893=AXIS2_PLACEMENT_3D('',#890,#891,#892);
#894=PLANE('',#893);
#895=ORIENTED_EDGE('',*,*,#48,.T.);
#896=ORIENTED_EDGE('',*,*,#293,.F.);
#897=CARTESIAN_POINT('',(153.,63.,0.));
#898=DIRECTION('',(0.,0.,1.));
#899=VECTOR('',#898,1.35);
#900=LINE('',#897,#899);
#901=EDGE_CURVE('',#43,#282,#900,.T.);
#902=ORIENTED_EDGE('',*,*,#901,.F.);
#903=EDGE_LOOP('',(#895,#896,#902));
#904=FACE_BOUND('',#903,.T.);
#905=ADVANCED_FACE('',(#904),#894,.F.);
#906=CARTESIAN_POINT('',(141.47095,63.,-3.8));
#907=DIRECTION('',(0.,1.,0.));
#908=DIRECTION('',(0.,0.,1.));
#909=AXIS2_PLACEMENT_3D('',#906,#907,#908);
#910=PLANE('',#909);
#911=ORIENTED_EDGE('',*,*,#56,.T.);
#912=ORIENTED_EDGE('',*,*,#901,.T.);
#913=ORIENTED_EDGE('',*,*,#287,.F.);
#914=CARTESIAN_POINT('',(129.9419,63.,0.));
#915=DIRECTION('',(0.,0.,1.));
#916=VECTOR('',#915,1.35);
#917=LINE('',#914,#916);
#918=EDGE_CURVE('',#51,#274,#917,.T.);
#919=ORIENTED_EDGE('',*,*,#918,.F.);
#920=EDGE_LOOP('',(#911,#912,#913,#919));
#921=FACE_BOUND('',#920,.T.);
#922=ADVANCED_FACE('',(#921),#910,.F.);
#923=CARTESIAN_POINT('',(129.9419,62.5,-3.8));
#924=DIRECTION('',(-1.,0.,0.));
#925=DIRECTION('',(0.,0.,1.));
#926=AXIS2_PLACEMENT_3D('',#923,#924,#925);
#927=PLANE('',#926);
#928=ORIENTED_EDGE('',*,*,#64,.T.);
#929=ORIENTED_EDGE('',*,*,#918,.T.);
#930=ORIENTED_EDGE('',*,*,#279,.F.);
#931=EDGE_LOOP('',(#928,#929,#930));
#932=FACE_BOUND('',#931,.T.);
#933=ADVANCED_FACE('',(#932),#927,.F.);
#934=CLOSED_SHELL('',(#114,#266,#357,#374,#391,#436,#448,#488,#512,#545,#567,#579,#591,#631,#655,#688,#710,#722,#734,#774,#805,#836,#853,#865,#877,#889,
#905,#922,#933));
#935=MANIFOLD_SOLID_BREP('door_ram_batt',#934);
#936=COLOUR_RGB('',0.494117647,0.494117647,0.525490224);
#937=FILL_AREA_STYLE_COLOUR('',#936);
#938=FILL_AREA_STYLE('',(#937));
#939=SURFACE_STYLE_FILL_AREA(#938);
#940=SURFACE_SIDE_STYLE('',(#939));
#941=SURFACE_STYLE_USAGE(.BOTH.,#940);
#942=PRESENTATION_STYLE_ASSIGNMENT((#941));
#26=STYLED_ITEM('',(#942),#935);
#16=SHAPE_REPRESENTATION('root',(#15),#10);
#17=ADVANCED_BREP_SHAPE_REPRESENTATION('root',(#935),#10);
#950=SHAPE_REPRESENTATION_RELATIONSHIP('','',#16,#17);
#951=CARTESIAN_POINT('',(0.,0.,0.));
#952=DIRECTION('',(0.,0.,1.));
#953=DIRECTION('',(1.,0.,0.));
#954=AXIS2_PLACEMENT_3D('',#951,#952,#953);
#956=MAPPED_ITEM('',#955,#954);
#955=REPRESENTATION_MAP(#954,#16);
#957=APPLICATION_CONTEXT('Managed model based 3d engineering');
#958=APPLICATION_PROTOCOL_DEFINITION('international standard','ap242_managed_model_based_3d_engineering',2014,#957);
#959=PRODUCT_CONTEXT('',#957,'mechanical');
#960=PRODUCT_DEFINITION_CONTEXT('part definition',#957,'design');
#24=PRODUCT('root','root','',(#959));
#961=PRODUCT_RELATED_PRODUCT_CATEGORY('part','',(#24));
#962=PRODUCT_DEFINITION_FORMATION_WITH_SPECIFIED_SOURCE('','',#24,.NOT_KNOWN.);
#25=PRODUCT_DEFINITION('design','',#962,#960);
#23=PRODUCT_DEFINITION_SHAPE('','',#25);
#963=SHAPE_DEFINITION_REPRESENTATION(#23,#16);
#11=DRAUGHTING_MODEL('',(#956),#10);
#964=DESCRIPTIVE_REPRESENTATION_ITEM('KEY','/Users/hrushka/Library/Containers/com.shapr3d.shapr/Data/tmp/72A10707-7CC1-42BE-991A-0C2F65FA03D3.tmp');
#965=PROPERTY_DEFINITION('KEY','',#25);
#966=REPRESENTATION('',(#964),#10);
#967=PROPERTY_DEFINITION_REPRESENTATION(#965,#966);
#968=GENERAL_PROPERTY('','KEY','');
#969=GENERAL_PROPERTY_ASSOCIATION('','',#968,#965);
#1=MECHANICAL_DESIGN_GEOMETRIC_PRESENTATION_REPRESENTATION('',(#26),#10);
ENDSEC;
END-ISO-10303-21;
